<?xml version="1.0" encoding="utf-8"?>
<!-- Generator: Adobe Illustrator 17.0.0, SVG Export Plug-In . SVG Version: 6.00 Build 0)  -->
<!DOCTYPE svg PUBLIC "-//W3C//DTD SVG 1.1//EN" "http://www.w3.org/Graphics/SVG/1.1/DTD/svg11.dtd">
<svg version="1.1" id="Layer_1" xmlns="http://www.w3.org/2000/svg" xmlns:xlink="http://www.w3.org/1999/xlink" x="0px" y="0px"
	 width="207px" height="207px" viewBox="0 0 207 207" enable-background="new 0 0 207 207" xml:space="preserve">
<g>
	<path fill="#1E73AD" d="M199.056,95.249c0.008-0.796-0.301-1.562-0.857-2.13s-1.316-0.893-2.112-0.9l-15.427-0.155l0.481-47.963
		l8.021,0.08l-0.269,26.75c-0.017,1.657,1.313,3.014,2.97,3.03c0.011,0,0.021,0,0.031,0c1.643,0,2.982-1.323,2.999-2.97l0.299-29.75
		c0.017-1.657-1.313-3.014-2.97-3.03l-11.021-0.111l0.026-2.582c0.017-1.657-1.313-3.014-2.97-3.03l-2.999-0.03l0.091-8.999
		c0.008-0.796-0.301-1.562-0.857-2.13s-1.316-0.893-2.112-0.9l-13.819-0.139c-0.011,0-0.021,0-0.031,0
		c-1.643,0-2.982,1.323-2.999,2.97l-0.091,8.999l-2.847-0.029c-0.01,0-0.021,0-0.03,0c-0.785,0-1.539,0.308-2.1,0.857
		c-0.568,0.557-0.893,1.316-0.9,2.112l-0.568,56.544l-12.474-0.125l0.812-80.818c0.017-1.657-1.313-3.014-2.97-3.03l-91.14-0.916
		c0.335,0.44,0.526,0.974,0.52,1.533l-0.3,29.856c-0.014,1.372-1.131,2.475-2.499,2.475c-0.009,0-0.018,0-0.026,0l-29.999-0.301
		c-0.517-0.005-1.006-0.172-1.411-0.457L7.944,195.511c-0.008,0.796,0.301,1.562,0.857,2.13s1.316,0.893,2.112,0.9l121.521,1.221
		c0.01,0,0.021,0,0.03,0c0.402,0,0.794-0.083,1.158-0.235l61.38,0.617c0.01,0,0.021,0,0.03,0c0.785,0,1.539-0.308,2.1-0.857
		c0.568-0.557,0.893-1.316,0.9-2.112l0.711-70.816c0,0,0-0.001,0-0.001L199.056,95.249z M161.5,26.322l7.819,0.078l-0.061,5.999
		l-7.819-0.078L161.5,26.322z M192.774,123.297l-70.491-0.708l0.187-18.654l0.065-6.454l0.011,0l10.915,0.11
		c0.003,0,0.005-0.001,0.008-0.001l18.46,0.185c0.002,0,0.004,0.001,0.006,0.001l25.665,0.258c0.01,0,0.021,0,0.03,0
		c0.001,0,0.002,0,0.003,0l15.393,0.155L192.774,123.297z M40.304,196.342c-15.761-0.158-28.41-13.063-28.251-28.825
		c0.158-15.761,13.064-28.41,28.825-28.251c15.761,0.158,28.41,13.063,28.251,28.825C68.97,183.852,56.065,196.501,40.304,196.342z
		 M132.5,193.515c-0.001,0-0.002,0-0.004,0l-10.926-0.109l0.638-63.474l70.491,0.708l-0.637,63.474L132.5,193.515z"/>
	<path fill="#1E73AD" d="M151.403,146.986l-6.824-0.068l0.069-6.823c0.013-1.257-0.995-2.285-2.251-2.298c-0.009,0-0.016,0-0.023,0
		c-1.246,0-2.262,1.003-2.274,2.252l-0.069,6.823l-6.825-0.068c-0.008,0-0.016,0-0.022,0c-1.246,0-2.262,1.003-2.274,2.252
		c-0.013,1.256,0.995,2.284,2.252,2.297l6.824,0.068l-0.069,6.824c-0.013,1.257,0.995,2.285,2.251,2.298c0.009,0,0.016,0,0.023,0
		c1.246,0,2.262-1.003,2.274-2.252l0.069-6.824l6.825,0.068c0.008,0,0.015,0,0.022,0c1.246,0,2.262-1.003,2.274-2.252
		C153.667,148.027,152.66,146.998,151.403,146.986z"/>
	<path fill="#1E73AD" d="M150.312,169.69c-0.88-0.898-2.32-0.914-3.216-0.032l-4.873,4.777l-4.776-4.873
		c-0.882-0.898-2.321-0.913-3.217-0.033c-0.897,0.88-0.912,2.32-0.033,3.217l4.777,4.874l-4.874,4.777
		c-0.897,0.879-0.912,2.319-0.032,3.216c0.445,0.455,1.034,0.683,1.624,0.683c0.574,0,1.149-0.216,1.592-0.65l4.874-4.777
		l4.777,4.874c0.446,0.455,1.035,0.683,1.625,0.683c0.574,0,1.149-0.216,1.592-0.649c0.897-0.88,0.912-2.32,0.033-3.217
		l-4.778-4.875l4.873-4.777C151.177,172.027,151.192,170.586,150.312,169.69z"/>
	<path fill="#1E73AD" d="M181.447,149.788c1.246,0,2.262-1.003,2.274-2.251c0.013-1.257-0.995-2.285-2.252-2.298l-18.196-0.184
		c-0.008,0-0.015,0-0.022,0c-1.246,0-2.262,1.003-2.274,2.251c-0.013,1.257,0.995,2.285,2.251,2.298l18.196,0.184
		C181.432,149.788,181.439,149.788,181.447,149.788z"/>
	<path fill="#1E73AD" d="M181.899,174.63l-15.845-0.159c-1.083-0.057-1.989,0.867-2,1.961s0.867,1.989,1.961,2l15.845,0.159
		c0.007,0,0.013,0,0.02,0c1.085,0,1.97-0.874,1.98-1.961C183.871,175.536,182.993,174.641,181.899,174.63z"/>
	<circle fill="#1E73AD" cx="173.957" cy="182.531" r="2.66"/>
	<circle fill="#1E73AD" cx="173.957" cy="170.518" r="2.66"/>
	<path fill="#1E73AD" d="M40.414,164.76c-3.953,0.029-4.83-0.281-5.194-1.853c-0.005-0.023-0.501-2.378,0.724-3.963
		c0.827-1.07,2.363-1.657,4.661-1.75c0.18-0.015,4.415-0.333,4.857,2.911c0.164,1.196,1.274,2.031,2.459,1.869
		c1.195-0.163,2.032-1.264,1.869-2.459c-0.595-4.367-3.981-6.074-6.846-6.556v-2.417c0-1.206-0.979-2.185-2.185-2.185
		s-2.185,0.979-2.185,2.185v2.47c-2.695,0.411-4.757,1.512-6.124,3.308c-2.424,3.186-1.591,7.13-1.489,7.564
		c1.229,5.311,6.195,5.27,9.487,5.244c3.02-0.023,4.478,0.096,4.987,1.311c0.394,0.92,0.64,2.171,0.626,3.188
		c-0.018,1.395-0.835,2.93-2.084,3.913c-0.887,0.697-2.056,0.909-3.14,0.92c-0.027-0.001-0.052-0.008-0.079-0.008
		c-0.021,0-0.041,0.006-0.062,0.006c-0.909-0.006-1.748-0.143-2.286-0.262c-0.464-0.184-2.938-1.291-3.313-4.168
		c-0.157-1.197-1.265-2.043-2.449-1.883c-1.196,0.157-2.039,1.253-1.883,2.449c0.765,5.836,6.102,7.694,6.328,7.771
		c0.065,0.021,0.131,0.041,0.197,0.057c0.372,0.087,0.812,0.17,1.283,0.242v2.402c0,1.206,0.979,2.185,2.185,2.185
		s2.185-0.979,2.185-2.185v-2.431c1.283-0.248,2.579-0.75,3.736-1.661c2.279-1.794,3.716-4.588,3.751-7.291
		c0.021-1.627-0.346-3.481-0.973-4.947C47.767,164.7,43.519,164.732,40.414,164.76z"/>
	<polygon fill="#1E73AD" points="38.684,14.233 17.004,35.48 38.468,35.695 	"/>
</g>
</svg>
