<?xml version="1.0" encoding="utf-8"?>
<!-- Generator: Adobe Illustrator 17.0.0, SVG Export Plug-In . SVG Version: 6.00 Build 0)  -->
<!DOCTYPE svg PUBLIC "-//W3C//DTD SVG 1.1//EN" "http://www.w3.org/Graphics/SVG/1.1/DTD/svg11.dtd">
<svg version="1.1" id="Layer_1" xmlns="http://www.w3.org/2000/svg" xmlns:xlink="http://www.w3.org/1999/xlink" x="0px" y="0px"
	 width="207px" height="207px" viewBox="0 0 207 207" enable-background="new 0 0 207 207" xml:space="preserve">
<g>
	<g>
		<g>
			<path fill="#1E73AD" d="M28.459,109.095L3.117,79.073L69.1,23.377l25.342,30.022L28.459,109.095z M11.021,79.741l18.106,21.45
				l57.411-48.46l-18.106-21.45L11.021,79.741z"/>
		</g>
		<g>
			<path fill="#1E73AD" d="M171.326,115.846l-54.982-65.138l32.537-27.464l54.983,65.138L171.326,115.846z M124.248,51.376
				l47.746,56.566l23.965-20.228l-47.747-56.566L124.248,51.376z"/>
		</g>
		<g>
			<path fill="#1E73AD" d="M65.723,160.198c-0.362,0-0.728-0.016-1.095-0.047c-3.424-0.289-6.531-1.895-8.747-4.521
				c-2.217-2.626-3.277-5.958-2.988-9.383c0.589-6.968,6.806-12.339,13.903-11.735c7.068,0.598,12.332,6.835,11.735,13.903
				C77.972,155.023,72.346,160.198,65.723,160.198z"/>
		</g>
		<g>
			<path fill="#1E73AD" d="M80.809,178.336c-0.362,0-0.728-0.016-1.095-0.047c-7.068-0.598-12.332-6.835-11.735-13.903
				c0.589-6.969,6.817-12.336,13.903-11.736c7.069,0.598,12.333,6.835,11.735,13.903C93.059,173.16,87.433,178.336,80.809,178.336z"
				/>
		</g>
		<g>
			<path fill="#1E73AD" d="M126.72,156.84c-0.784,0-1.565-0.328-2.12-0.967l-12.704-14.647c-1.014-1.17-0.889-2.941,0.281-3.956
				c1.168-1.013,2.94-0.89,3.956,0.281l12.704,14.647c1.014,1.17,0.889,2.941-0.281,3.956
				C128.026,156.614,127.371,156.84,126.72,156.84z"/>
		</g>
		<g>
			<path fill="#1E73AD" d="M142.233,143.515c-0.765,0-1.527-0.311-2.081-0.924l-19.532-21.602c-1.039-1.149-0.949-2.923,0.2-3.961
				c1.148-1.04,2.921-0.949,3.961,0.199l19.532,21.603c1.039,1.148,0.949,2.922-0.2,3.961
				C143.577,143.276,142.903,143.515,142.233,143.515z"/>
		</g>
		<g>
			<path fill="#1E73AD" d="M49.625,142.65c-0.362,0-0.728-0.016-1.095-0.047c-3.424-0.289-6.531-1.895-8.747-4.521
				c-2.217-2.626-3.277-5.958-2.988-9.383c0.589-6.967,6.785-12.335,13.903-11.735c7.068,0.598,12.332,6.835,11.735,13.903
				C61.875,137.475,56.248,142.65,49.625,142.65z"/>
		</g>
		<g>
			<path fill="#1E73AD" d="M103.153,186.333c-4.187,0-8.216-1.924-11.055-5.281l-7.547-8.923l1.638-1.818
				c1.07-1.189,1.706-2.652,1.839-4.229c0.163-1.932-0.435-3.811-1.685-5.292c-1.251-1.482-3.003-2.387-4.934-2.551
				c-1.591-0.135-3.146,0.257-4.491,1.111l-2.065,1.312l-5.55-6.559l1.704-1.822c1.127-1.205,1.796-2.705,1.934-4.337
				c0.337-3.987-2.633-7.505-6.619-7.842c-1.644-0.138-3.244,0.279-4.61,1.184l-2.08,1.379l-5.645-6.676l1.379-1.793
				c0.851-1.106,1.362-2.42,1.479-3.8c0.337-3.987-2.633-7.504-6.619-7.842c-1.212-0.103-2.385,0.092-3.483,0.567l-1.961,0.849
				l-17.233-21.446L86.57,52.704l11.712,14.577L79.978,82.763c-3.6,3.045-4.37,8.077-1.715,11.217
				c1.311,1.551,3.244,2.404,5.444,2.404c2.103,0,4.199-0.793,5.903-2.234l12.774-10.805l23.531,1.99l33.724,39.875
				c2.408,2.847,3.671,6.39,3.553,9.975c-0.121,3.693-1.678,6.986-4.384,9.276c-2.244,1.897-5.029,2.9-8.053,2.9l0,0
				c-1.117,0-2.229-0.141-3.314-0.411c0.257,4.024-1.222,7.978-4.345,10.62c-2.245,1.899-5.031,2.902-8.057,2.902
				c-0.963,0-1.924-0.105-2.868-0.309c0.41,4.192-1.044,8.378-4.288,11.121c-2.248,1.902-5.036,2.906-8.066,2.906
				c-1.434,0-2.85-0.225-4.207-0.658c0.003,0.207,0.001,0.414-0.006,0.621c-0.12,3.693-1.678,6.986-4.384,9.276
				C108.972,185.329,106.183,186.333,103.153,186.333z M91.841,172.063l4.54,5.367c1.771,2.094,4.239,3.295,6.773,3.295
				c1.686,0,3.223-0.546,4.444-1.579c1.48-1.251,2.332-3.089,2.401-5.176c0.071-2.194-0.72-4.385-2.23-6.169l-7.404-8.745
				l4.274-3.632l8.399,9.855c1.777,2.102,4.246,3.303,6.779,3.303c1.686,0,3.223-0.546,4.444-1.579
				c3.069-2.595,3.196-7.618,0.283-11.197l4.185-3.726c1.724,1.77,4.024,2.785,6.311,2.785c1.682,0,3.216-0.545,4.435-1.577
				c2.983-2.522,3.21-7.308,0.517-10.893l4.296-3.593c1.744,1.876,4.102,2.951,6.469,2.951c1.681,0,3.212-0.544,4.43-1.575
				c1.48-1.251,2.332-3.089,2.4-5.176c0.072-2.194-0.719-4.385-2.229-6.169L123.13,90.728l-18.901-1.598l-10.998,9.302
				c-2.715,2.296-6.097,3.56-9.524,3.56c-3.821,0-7.367-1.6-9.728-4.391c-4.651-5.502-3.585-14.079,2.376-19.122l14.128-11.949
				l-4.688-5.834L35.35,103.279l11.247,13.997c1.327-0.32,2.697-0.429,4.101-0.31c7.068,0.598,12.332,6.835,11.735,13.903
				c-0.13,1.535-0.533,3.023-1.185,4.4c1.753-0.651,3.625-0.919,5.546-0.755c7.069,0.598,12.333,6.835,11.736,13.903
				c-0.141,1.666-0.592,3.253-1.327,4.706c1.505-0.442,3.076-0.607,4.679-0.471c3.424,0.289,6.531,1.895,8.747,4.521
				c2.217,2.626,3.277,5.958,2.988,9.383C93.451,168.526,92.845,170.395,91.841,172.063z"/>
		</g>
		<g>
			<path fill="#1E73AD" d="M151.489,124.26L123.13,90.728l-18.901-1.598l-10.998,9.302c-2.715,2.296-6.098,3.56-9.525,3.56
				c-3.82,0-7.366-1.6-9.727-4.391c-4.651-5.501-3.585-14.079,2.376-19.122L96.62,61.343l18.201-0.364l10.664-8.136l46.675,55.295
				L151.489,124.26z"/>
		</g>
	</g>
</g>
</svg>
