<svg xmlns="http://www.w3.org/2000/svg" width="121.477" height="55.657" viewBox="0 0 121.477 55.657">
  <defs>
    <style>
      .cls-1 {
        fill: #fff;
      }
    </style>
  </defs>
  <g id="Group_10718" data-name="Group 10718" transform="translate(2.652 0)">
    <g id="Group_10717" data-name="Group 10717">
      <path id="Path_3314" data-name="Path 3314" class="cls-1" d="M92.038,38.316c-1.461,0-2.921.01-4.381-.005a1.008,1.008,0,0,0-1.041.639q-1.646,3.237-3.383,6.426-2.384,4.362-4.836,8.686a3.309,3.309,0,0,1-4.528,1.058,3.558,3.558,0,0,1-2.031-2.635,2.932,2.932,0,0,1,.3-1.679c.988-1.975,2.058-3.908,3.1-5.857,1.074-2.012,2.139-4.029,3.222-6.036q2.7-4.995,5.408-9.98,3.441-6.359,6.877-12.721Q93.826,10.5,96.918,4.8c.5-.931.99-1.871,1.486-2.805a3.712,3.712,0,0,1,5.924-.889,3.67,3.67,0,0,1,.535,3.847c-.881,1.765-1.833,3.495-2.76,5.237-.961,1.806-1.922,3.613-2.9,5.411a.781.781,0,0,0,.368,1.219,12.175,12.175,0,0,1,5.005,5.671c1.7,3.434,3.332,6.9,5.023,10.341,2.926,5.952,5.852,11.9,8.826,17.831,1.191,2.374-.482,4.16-2.345,4.775-2,.659-3.505-.3-4.3-2.108-1.383-3.141-3.007-6.175-4.518-9.261-1.158-2.365-2.278-4.749-3.451-7.106-1.237-2.485-2.53-4.941-3.775-7.421-1.045-2.082-2.041-4.188-3.1-6.262-.17-.333-.547-.746-.854-.768a1.316,1.316,0,0,0-.921.663c-1.314,2.308-2.576,4.645-3.856,6.972-.317.576-.125.958.565.983,1.011.038,2.025.016,3.037.019.353,0,.707.017,1.059.005a2.329,2.329,0,0,1,2.567,2.028,4.959,4.959,0,0,1-.758,4.547,1.609,1.609,0,0,1-1.355.6q-2.191,0-4.381,0Z"/>
      <path id="Path_3315" data-name="Path 3315" class="cls-1" d="M57.631,36.67c-1.531,0-3.062,0-4.594,0-.892,0-1.057.268-.658,1.072.93,1.876,1.879,3.741,2.81,5.616.805,1.62,1.572,3.259,2.413,4.86a1.352,1.352,0,0,0,.892.658,1.161,1.161,0,0,0,.841-.578Q62.28,43,65.159,37.656q3.714-6.85,7.406-13.712c1.161-2.15,2.345-4.288,3.477-6.452a2.944,2.944,0,0,1,3.824-1.5,4.8,4.8,0,0,1,2.088,1.345,2.74,2.74,0,0,1,.33,3.631q-3.786,6.9-7.551,13.813c-2.235,4.114-4.436,8.246-6.67,12.36-.739,1.361-1.5,2.71-2.31,4.032a9.881,9.881,0,0,1-3.971,3.817,6.8,6.8,0,0,1-5.69.094,10.5,10.5,0,0,1-5.264-4.81c-1.134-1.947-2.092-4-3.1-6.013-1.116-2.229-2.207-4.471-3.3-6.711-1.486-3.041-2.952-6.092-4.453-9.125-1.261-2.55-2.513-5.107-3.856-7.614a3.021,3.021,0,0,1,.78-3.981c1.419-1.238,3.363-1.52,4.592-.532a5.473,5.473,0,0,1,1.3,1.8c1.109,2.18,2.155,4.392,3.224,6.591.688,1.416,1.388,2.825,2.055,4.251a1.157,1.157,0,0,0,1.208.664c2.827,0,5.654-.016,8.481-.011,1.578,0,3.156.058,4.734.041,1.946-.021,2.969,1.988,2.913,3.437a4.1,4.1,0,0,1-.977,2.8,2.938,2.938,0,0,1-2.341.91c-.753,0-1.505-.078-2.258-.1-.73-.018-1.461,0-2.191,0Z"/>
      <path id="Path_3316" data-name="Path 3316" class="cls-1" d="M20.562,15.7a8.879,8.879,0,0,1,6.458,2.5,19.85,19.85,0,0,1,3.771,5.831c1.535,3.121,3.137,6.209,4.678,9.327,1.665,3.37,3.283,6.764,4.941,10.139,1.222,2.489,2.467,4.966,3.714,7.443a3,3,0,0,1-.509,3.231,4.193,4.193,0,0,1-3.744,1.413c-1.449-.143-2.009-1.251-2.566-2.358-1.63-3.234-3.276-6.461-4.876-9.71-1.32-2.679-2.565-5.4-3.877-8.078-1.633-3.339-3.3-6.659-4.949-9.991-.376-.759-.68-1.557-1.105-2.286a1.294,1.294,0,0,0-.884-.626,1.277,1.277,0,0,0-.876.63c-1.447,2.586-2.855,5.193-4.264,7.8-1.889,3.5-3.754,7-5.656,10.49-1.563,2.868-3.17,5.713-4.746,8.576-.738,1.339-1.428,2.7-2.174,4.039A2.921,2.921,0,0,1,.656,55.519a4.138,4.138,0,0,1-3.135-2.57,2.82,2.82,0,0,1,.3-2.493q2.808-5.22,5.637-10.428,2.754-5.086,5.512-10.172,2.063-3.815,4.115-7.635a14.315,14.315,0,0,1,3.886-4.943A6.429,6.429,0,0,1,20.562,15.7Z"/>
    </g>
  </g>
</svg>
