<svg xmlns="http://www.w3.org/2000/svg" width="907.792" height="544.447" viewBox="0 0 907.792 544.447">
  <defs>
    <style>
      .cls-1 {
        opacity: 0.15;
      }

      .cls-2 {
        fill: #fff;
      }
    </style>
  </defs>
  <g id="Group_363" data-name="Group 363" class="cls-1">
    <path id="Path_2025" data-name="Path 2025" class="cls-2" d="M779.285,42.836C837.705,46.8,893.974,59.283,946.51,85.912c50.813,25.757,92.908,61.318,122.08,110.924,16.933,28.789,27.49,59.817,29.705,93.207,3.1,46.727-8.1,90.178-32.215,130.266-30.075,50.005-73.049,85.939-124.125,112.825-45.43,23.912-93.956,38.214-144.572,45.947-45.137,6.9-90.572,8.21-136.071,6.793-60.489-1.885-119.975-10.415-177.522-29.973-57.061-19.392-108.211-48.535-150.594-91.973-36.377-37.28-62.085-81.1-79.382-130.033-13.649-38.619-21.5-78.471-25.324-119.19-1.092-11.625-1.982-23.256-2.315-34.926-.1-3.593-1.005-5.465-5.37-5.26-9.917.467-19.862.27-29.794.344v-1.047c4.767-8.431,12.268-14.562,18.576-21.657,10.591-11.911,21.631-23.426,32.191-35.377,1.2-1.357,2.267-3.218,4.635-2.714,2.31,2.748,1.454,5.966,1.215,9.019-1.262,16.006-.882,31.983-.086,48.008q1.227,24.812,4.4,49.4a505.01,505.01,0,0,0,25.4,106.614c13.72,38.343,32.353,74.067,57.32,106.365a335.468,335.468,0,0,0,104,89.275c44.816,24.8,93.037,39.033,143.472,46.485a548.955,548.955,0,0,0,59.772,5.489c4.969,1.215,10.1.612,15.114,1.3a16.979,16.979,0,0,0-3.518-.3c-17.253-1.819-33.92-6.336-50.4-11.428C563,551.906,525.562,534.005,491.6,509.161a327.6,327.6,0,0,1-85.49-91.487c-28.621-45.848-45.207-95.965-53.147-149.149-3.216-21.539-4.6-43.22-5.607-64.993-.722-15.541.459-30.949.4-46.42a238.015,238.015,0,0,1,2.034-29.668c.207-1.7.142-3.578,2.213-4.347,1.562-.129,2.614.78,3.585,1.806,12.085,12.756,24.035,25.642,36.335,38.193,2.239,2.286,6.074,5.118,4.924,8.019-1.441,3.638-6.173,1.567-9.473,1.966a39.435,39.435,0,0,1-4.7.032c-8.961.005-9.194-.013-9.995,9.077-.732,8.323-.165,16.7-.218,25.056a484.83,484.83,0,0,0,11.179,99.034c7.52,34.419,18.82,67.51,35.438,98.659,26.072,48.876,62.453,87.857,110.862,115.3,40.412,22.907,84.176,34.994,129.971,40.558a559.363,559.363,0,0,0,88.165,4.026c63.382-2.333,124.669-14.045,181.622-43.4a315.314,315.314,0,0,0,68.516-47.63,299.548,299.548,0,0,0,59.732-74.9,240.04,240.04,0,0,0,17.479-37.411c5.161-14.6,5.487-29.75,4.5-44.929-.489-7.46-.843-14.946-1.841-22.384-6.082-45.312-22.52-86.149-51.84-121.555-20.647-24.936-45.714-44.4-73.978-59.84-47.252-25.807-98.452-38.6-151.426-45.511a597.785,597.785,0,0,0-91.772-5.074c-26.584.635-52.753,4.649-78.689,10.3a435.331,435.331,0,0,0-109.429,39.493,422.969,422.969,0,0,0-91.727,64.52A468.708,468.708,0,0,0,396.2,210.692a20.791,20.791,0,0,1-2.244,2.194c-5.011,4.189-8.423,3.307-10.662-2.764a15.562,15.562,0,0,1-.908-3.544c-.63-4.381,1.42-7.725,4.152-10.833a413.235,413.235,0,0,1,54.334-51.921A476.467,476.467,0,0,1,692.6,43.12c6.52-.625,13.137-.2,19.657-1.184h2.092c2.01,1.134,4.192.262,6.276.538,2.086-.273,4.271.6,6.284-.538h34.543c2.412,1.147,4.971.268,7.451.538h5.176C775.815,42.616,777.592,42.138,779.285,42.836Z" transform="translate(-191.01 -41.936)"/>
    <path id="Path_2026" data-name="Path 2026" class="cls-2" d="M415.755,42.857c-2.491-.157-5.153,1.045-7.418-.921h7.326c.315.173.433.37.354.585S415.852,42.857,415.755,42.857Z" transform="translate(162.107 -41.936)"/>
    <path id="Path_2027" data-name="Path 2027" class="cls-2" d="M399.293,41.936c-1.894,1.95-4.231.753-6.38.887-.26-.231-.333-.438-.215-.625s.215-.262.318-.262Z" transform="translate(136.608 -41.936)"/>
    <path id="Path_2028" data-name="Path 2028" class="cls-2" d="M396.674,41.936a8.694,8.694,0,0,1-.1.887c-2.089-.1-4.359,1.087-6.179-.887Z" transform="translate(132.95 -41.936)"/>
    <path id="Path_2029" data-name="Path 2029" class="cls-2" d="M418.63,42.836l-5.192-.058c-.392-.152-.534-.328-.428-.528s.228-.315.349-.315h5.235A4.814,4.814,0,0,0,418.63,42.836Z" transform="translate(169.646 -41.936)"/>
    <path id="Path_2030" data-name="Path 2030" class="cls-2" d="M416.361,41.936q.036.421.079.843l-5.221.081a6.2,6.2,0,0,1-.092-.924Z" transform="translate(166.643 -41.936)"/>
    <path id="Path_2033" data-name="Path 2033" class="cls-2" d="M362.746,245.936c3.9-.748,7.977.847,11.788-.943l6.851,1.045C375.078,246.55,368.877,247.209,362.746,245.936Z" transform="translate(88.029 287.992)"/>
    <path id="Path_2034" data-name="Path 2034" class="cls-2" d="M288.677,86.29a551.769,551.769,0,0,0-6.389,91.606c1.186,64.284,11.649,126.7,38.359,185.728,29.343,64.843,74.6,115.3,136.438,150.745,1.355.777,2.662,1.64,3.99,2.462,1.125,2.053,3.4,3.862,1.8,6.573a6.342,6.342,0,0,1-7.221,3.055c-3.887-.961-.136,2.73-1.953,2.766-21.9-7.8-42.3-18.615-61.8-31.122-67.458-43.259-112.7-104.026-140.132-178.689C238.2,282.5,230.012,244.348,225.35,205.338a739.419,739.419,0,0,1-4.722-85.466c-.039-12.177.785-24.353,1.215-36.532,11.019-10.919,22.1-21.77,33-32.81,2.276-2.307,3.289-2.465,5.412.26C269.581,62.743,279.179,74.476,288.677,86.29Z" transform="translate(-142.888 -30.828)"/>
    <path id="Path_2035" data-name="Path 2035" class="cls-2" d="M509.815,214.576c8.99,0,16.987.1,24.983-.037,4.612-.079,7.6,2.089,9.486,6.037a25.364,25.364,0,0,1,.58,21.266c-1.927,4.743-5.207,7.349-10.835,7.215-13.071-.312-26.16-.021-39.234-.262-2.995-.055-4.23,1.139-5.517,3.522-12.394,22.972-24.917,45.876-37.382,68.809-5.081,9.349-13.849,11.893-23.3,6.7-9.6-5.278-12.166-13.741-7.012-23.287Q482.354,192.011,543.139,79.491c5.2-9.625,13.786-13.7,22.285-10.678,10.479,3.719,14.45,15.114,8.746,25.907-8.213,15.539-16.528,31.023-25.08,46.375-1.811,3.249-1.3,4.4,1.8,6.124,11.129,6.208,17.817,16.381,23.284,27.45,21.416,43.364,42.692,86.8,64.24,130.1,3.179,6.386,4.09,12.226-.485,18a19.653,19.653,0,0,1-19.432,7.615c-5.254-.816-8.365-4.4-10.66-9.079q-27.225-55.526-54.623-110.974c-5.3-10.767-10.565-21.552-15.906-32.3-.722-1.457-1.037-3.27-3.417-3.428-2.563-.171-3.21,1.528-4.121,3.208C523.316,189.714,516.852,201.615,509.815,214.576Z" transform="translate(179.398 0.143)"/>
    <path id="Path_2036" data-name="Path 2036" class="cls-2" d="M432.15,195.912c9.027,18.381,17.7,36.183,26.527,53.9,1.9,3.816,4.615,3.326,7.047-1.134q14.119-25.9,28.174-51.821c16.437-30.277,32.953-60.512,49.226-90.873,3.389-6.321,7.835-10.242,15.209-9.612,7.64.654,13.53,4.281,16.969,11.323,2.357,4.827,1.326,9.336-1.173,13.922q-34.593,63.479-69,127.064c-4.565,8.431-8.974,16.885-15.788,23.857-15.077,15.423-34.29,16.361-50.777,2.294a71.566,71.566,0,0,1-17.571-23.169c-21.432-43.351-42.7-86.784-64.216-130.093-3.294-6.636-3.674-12.639,1.234-18.363,5.362-6.255,12.363-8.289,20.272-6.533,4.323.961,7.014,4.126,8.956,8.126,8.354,17.214,16.917,34.325,25.229,51.556,1.677,3.481,3.5,5.055,7.756,5,19.353-.265,38.711-.037,58.066.016,10.182.029,16.613,6.7,16.637,17.242.021,10.851-6.455,17.347-17.088,17.311C462.845,195.872,447.855,195.912,432.15,195.912Z" transform="translate(74.317 46.022)"/>
    <path id="Path_2037" data-name="Path 2037" class="cls-2" d="M396.882,96.093c16.04.257,26.561,7.034,34.861,17.717,8.74,11.25,13.775,24.566,20.061,37.152,17.885,35.8,35.4,71.786,53.215,107.62,3.111,6.255,4.323,12.213-.17,18.106a19.606,19.606,0,0,1-18.82,7.966c-5.452-.638-8.883-3.976-11.3-8.935-14.116-28.925-28.4-57.767-42.627-86.639-9.148-18.568-18.253-37.159-27.5-55.682-.9-1.8-.947-4.536-4.165-4.641-3.2-.108-3.5,2.5-4.491,4.318-25.629,47.084-51.569,94-76.542,141.432-7.237,13.746-22.324,11.442-29.758,2.992-4.922-5.591-5.438-11.134-1.575-18.255q34.254-63.1,68.49-126.206c5.142-9.513,9.885-19.24,18-26.715C381.437,99.991,389.122,95.555,396.882,96.093Z" transform="translate(-37.447 45.987)"/>
    <path id="Path_2038" data-name="Path 2038" class="cls-2" d="M450.578,233.882c.094,6.452-3.472,9.431-8.531,8.111-2.866-.748-4.845-.8-7.407,1.347-4.334,3.625-10.153,1.347-11.308-4.079-.943-4.42-1.436-8.937-2.155-13.4-.353-2.184-.019-3.667,2.659-4.021,2.572-.339,3.734.2,3.994,3.056.379,4.149,1.258,8.257,2,12.37.213,1.176.512,2.672,2.112,2.5,2.021-.216,1.694-1.843,1.449-3.228-.759-4.286-1.307-8.628-2.408-12.825-.789-3.01.972-2.905,2.864-3.47,2.355-.7,3.567-.33,3.969,2.289.659,4.3,1.51,8.578,2.328,12.853.265,1.394.678,2.953,2.6,2.415,1.567-.441,1.252-1.777.973-3.037-.9-4.079-1.62-8.2-2.632-12.248-.753-3.007.643-3.672,3.243-4.4,3.165-.882,2.986,1.053,3.388,2.9C448.747,225.766,449.824,230.509,450.578,233.882Z" transform="translate(182.783 243.963)"/>
    <path id="Path_2039" data-name="Path 2039" class="cls-2" d="M501.578,198.564c.058-.163.073-.436.175-.475,5.151-1.953,4.9-4.462,1.087-7.822-2.607-2.3.687-3.016,1.622-4.262,1.125-1.5,2.184-2.2,4.032-.347,1.646,1.646,2.509,6.045,6.631,2.848.626-.486,3.075,1.6,2.126,2.52-2.57,2.5-.546,3.782.646,5.56a7.186,7.186,0,0,1,.693,6.019c-1.174,4.514-8.98,11.178-13.675,11.738a6.975,6.975,0,0,1-6.905-2.654c-2.334-3.024-4.649-6.076-7.2-8.911-2.073-2.307-2-3.719.491-5.864,2.916-2.51,3.78-.218,5.2,1.372,1.03,1.152,2.085,2.278,3.127,3.417,1.8.512,2.777,2.008,3.956,3.281a3.564,3.564,0,0,0,4.711.882c1.267-.711,2.423-1.756,2-3.321-.562-2.081-2.068-1.152-3.389-.756C503.982,202.664,500.6,204.184,501.578,198.564Z" transform="translate(293.719 189.773)"/>
    <path id="Path_2040" data-name="Path 2040" class="cls-2" d="M480.106,217.052c2.1-.9,2.483-4.082,4.818-2.919,1.126.559,3.064,2.265.77,4.116-2.443,1.971-2.846,4.449-1.023,6.885,2.284,3.056.3,3.953-1.94,5.418-2.955,1.932-3.488-.26-4.483-2.045-1.606-2.885-3.286-5.727-4.859-8.63-3.175-5.865-2.509-8.778,2.857-12.949,3.583-2.785,8.572-3.8,10.6-8.583a1.674,1.674,0,0,1,2.564-.916c.9.7,2.51,1.95,1.536,2.875-2.78,2.637.283,3.241,1.225,4.635,2.719,4.037,5.381,8.111,8.1,12.148,1.906,2.829-.952,3.05-2.231,4.058-1.361,1.076-2.716,2.307-4.12-.228-1.767-3.192-3.969-6.139-5.749-9.323-1.816-3.249-3.9-4.8-7.5-2.446S477.688,214.113,480.106,217.052Z" transform="translate(264.697 210.145)"/>
    <path id="Path_2041" data-name="Path 2041" class="cls-2" d="M309.127,189.445a15.6,15.6,0,0,1,18.847,7.247c3.105,5.395,2,11.318-2.891,15.453-4.827,4.087-11.984,3.192-17.864-2.231-4.964-4.58-5.859-10.9-2.2-15.93.635-.871,1.155-2.572,2.726-1.354,2.887,2.234,5.7,4.572,8.455,6.966,1.15,1,.068,1.884-.535,2.643-.895,1.123-1.677.373-2.64-.123-1.279-.656-2.3-3.583-3.985-1.383-1.339,1.748-.394,4.071,1.139,5.719,2.137,2.3,4.659,4.008,7.8,2.137,3.3-1.963,5.724-4.93,5.249-8.932-.439-3.682-3.523-6.444-6.817-5.974C312.187,194.285,311.045,191.883,309.127,189.445Z" transform="translate(-9.401 196.249)"/>
    <path id="Path_2042" data-name="Path 2042" class="cls-2" d="M418.927,231.055c0,1.913.014,3.824,0,5.738a12.572,12.572,0,0,1-.142,2.078c-.775,4.276-4.283,6.245-11.108,6.268-7.56.024-11.667-1.952-12.429-6.084-.184-1-.466-2.462.047-3.04,2.457-2.761,1.565-5.144.155-8.063-1.144-2.37-.1-4.83,2.557-6.026a11.1,11.1,0,0,1,9.56.184c.359.165.5,1.21.43,1.809-.16,1.32-1.139,1.467-2.305,1.43-1.467-.048-3.441-.711-3.856,1.491-.438,2.32,1.627,2.761,3.213,3.389.9.36,2.155.108,2.3,1.586.134,1.346-.614,1.764-1.78,2.029-2.06.467-3.635,1.591-3.1,3.969.569,2.52,2.756,2.932,4.9,2.95,2.544.024,4.542-1.1,4.685-3.835a101.13,101.13,0,0,0-.021-11.465c-.175-2.887.861-4.034,3.725-4.231,3.52-.244,2.859,2.113,2.895,4.1.035,1.906.008,3.811.008,5.717Z" transform="translate(140.412 248.896)"/>
    <path id="Path_2043" data-name="Path 2043" class="cls-2" d="M337.507,209.4a6.126,6.126,0,0,0-4.881,3.3c-1.392,2.4-2.911,4.735-4.2,7.189-1.164,2.21-2.048,3.716-5.009,1.859-2.63-1.651-3.2-2.832-1.347-5.512a85.95,85.95,0,0,0,7.823-12.9c2.11-4.617,5.5-2.887,6.407-.724,1.288,3.058,3.165,2.528,5.273,2.929,7.559,1.441,10.242,6.959,6.761,13.78-1.574,3.09-3.383,6.071-4.782,9.237-1.165,2.635-2.332,3.249-5.058,1.722-2.57-1.439-3.063-2.68-1.509-5.171a96.94,96.94,0,0,0,5.271-9.572C343.938,212,342.061,209.359,337.507,209.4Z" transform="translate(20.172 215.568)"/>
    <path id="Path_2044" data-name="Path 2044" class="cls-2" d="M441.568,231.954c3.71,4.294,7.677,4.829,10.52,1.866,2.4-2.5,1.523-9.071-1.59-11.9a6.18,6.18,0,0,0-9.531,1.223c-1.772,3.029-3.853,3.557-6.819,3.034.812-6.281,5.714-10.189,13.03-10.428,7.3-.242,11.567,3.063,12.963,10.035,1.169,5.837-2,10.9-8.31,13.268-7.917,2.981-14.862.147-16.967-6.9-.344-1.152-1.086-2.352.816-2.843,3.189-.824,6.375-1.667,9.565-2.5,1.12-.291,1.577.344,1.75,1.31.187,1.039.386,2.068-1.057,2.459C444.605,230.94,443.3,231.4,441.568,231.954Z" transform="translate(204.046 240.458)"/>
    <path id="Path_2045" data-name="Path 2045" class="cls-2" d="M323.351,194.525c.117,2.079-.964,3.63-2.239,5.092-2.4,2.751-4.85,5.452-7.179,8.258-1.805,2.173-3.029,3.614-6.1.929-3.463-3.023-.911-4.234.721-6.06,2.087-2.328,4.048-4.788,6.3-6.948,2.888-2.774,2.22-5.019-.451-7.4s-5.079-2.657-7.615.194c-2.076,2.334-4.467,4.4-6.462,6.793-1.93,2.323-3.247,3.362-6.111.722-3.056-2.814-1.465-4.184.63-5.977,2.973-2.544,4.993-6.418,9.51-6.809a.827.827,0,0,0,.482-.165c3.7-3.614,3.693-3.614,8.573-.68C319.083,185.89,323.254,190.945,323.351,194.525Z" transform="translate(-26.097 182.958)"/>
    <path id="Path_2046" data-name="Path 2046" class="cls-2" d="M473.944,209.747a5.864,5.864,0,0,0-1.837.5c-1.593.866-4.273,1.394-3.5,3.753.7,2.132,3.019.877,4.583.57,2.549-.5,5.01-1.486,7.567-1.869,2.659-.4,5.239-.005,6.78,2.722a6.477,6.477,0,0,1-.845,7.788,20.059,20.059,0,0,1-15.478,7.423c-2.032.053-4.962-.333-4.647-2.717.221-1.685,2.822-3.486,5.3-3.008,1.4.271,2.808.7,4.078.184,2.365-.958,6.216-1.974,5.544-4.583-.824-3.2-4.1-.654-6.309-.365-2.229.294-4.423.89-6.657,1.107-2.386.234-4.467-.393-5.615-2.853a6.529,6.529,0,0,1,.42-6.935c3.273-4.573,7.982-6.615,13.458-6.68,1.5-.018,4.116.084,4.055,2.237-.045,1.6-2.3,2.468-3.835,3.218C476.407,210.526,475.415,210.012,473.944,209.747Z" transform="translate(249.49 222.65)"/>
    <path id="Path_2047" data-name="Path 2047" class="cls-2" d="M331.846,221.876c1.5-5.063,4.732-10.231,7.73-15.447.987-1.72,2.758.4,4.119.861,1.533.525,2.1,1.575,1.237,3.242-1.6,3.076-3.061,6.228-4.607,9.336-1.31,2.638-2.428,5.255,1.09,7.1,3.6,1.887,6.1.1,7.8-2.856a61.485,61.485,0,0,0,4.132-8.969c.953-2.544,2.173-2.46,4.289-1.4,1.9.948,3.357,1.533,2.137,4.132-2.357,5.024-4.426,10.182-6.72,15.236-.5,1.113-.48,3.242-2.418,2.717-1.552-.42-4.11-.7-4.179-2.512-.121-3.179-1.889-2-3.438-1.94C337.148,231.6,332.024,227.627,331.846,221.876Z" transform="translate(37.823 224.256)"/>
    <path id="Path_2048" data-name="Path 2048" class="cls-2" d="M357.255,230.6c1.15-3.832,2.565-8.843,4.176-13.79.9-2.775,2.793-.825,4.294-.643,2.1.257,2.489,1.425,1.922,3.294-1.014,3.328-1.967,6.675-2.882,10.029-.723,2.638-1.218,5.352,2.237,6.451,3.475,1.105,5.869-.59,7-3.719a72.62,72.62,0,0,0,2.7-10.077c.548-2.672,1.934-2.73,4.126-2.145,2.22.6,3.205,1.478,2.54,3.977-1.433,5.376-2.64,10.811-3.905,16.229-.278,1.189-.307,2.709-1.909,2.641-1.653-.069-4.3.121-4.428-1.816-.265-3.848-2.013-1.425-3.167-1.05C363.624,242.055,357.087,237.907,357.255,230.6Z" transform="translate(79.103 239.798)"/>
    <path id="Path_2049" data-name="Path 2049" class="cls-2" d="M381.549,227.08c3.816-1.943,8.074-1.321,10.88-5.1,1.381-1.858,4.113-.129,6.229.215-.52,2.825-2.5,3.706-4.523,4.743,5.586,5.087,1.867,10.924,1.5,16.31-.171,2.5-3.215.866-4.938.945-2.029.092-2.016-1.459-1.816-2.927.307-2.239.68-4.47.956-6.711.268-2.166.262-4.265-2.368-5.09-2.512-.785-4.43.315-5.953,2.147-1.751,2.116-2.044,4.764-2.2,7.378-.162,2.788-1.4,3.546-4.1,2.861-2.278-.58-3.677-1.121-2.977-4.045,1.21-5.064,2.129-10.208,2.908-15.358.407-2.688,1.09-3.869,4.261-3.491,3.809.457,2.927,2.41,2.368,4.691A20.844,20.844,0,0,0,381.549,227.08Z" transform="translate(103.169 245.574)"/>
    <path id="Path_2050" data-name="Path 2050" class="cls-2" d="M496.156,192.569c2.921-.1,4.645.522,5.922,2.176,2.872,3.716,5.6,7.551,8.667,11.1,2.092,2.423.225,3.265-1.239,4.412-1.488,1.168-2.861,2.727-4.623.118-2.233-3.313-4.784-6.409-7.089-9.677-1.9-2.7-4.089-2.972-6.63-1.063-2.441,1.835-3.995,4-1.93,7.063,2.042,3.024,4,6.124,6.271,8.969,1.8,2.255,1.8,3.562-.754,5.323-2.488,1.717-3.9,1.622-5.252-1.079-1.747-3.5-5.4-6.047-5.233-10.51.013-.341.06-.874-.126-1.005-1.181-.819-4.127-.024-3.323-2.5.71-2.2,2.553-4.09,4.092-5.953C488.085,196.093,491.959,193.293,496.156,192.569Z" transform="translate(279.651 202.795)"/>
    <path id="Path_2051" data-name="Path 2051" class="cls-2" d="M406.565,233.019c-.116-2.433-.26-4.866-.341-7.3-.07-2.081-.457-4.037,2.945-4.116,3.255-.076,3.767,1.315,3.773,3.987a55,55,0,0,0,.577,8.848c.583,3.533,2.764,5.712,6.572,5.161,3.709-.535,3.2-3.578,3.057-6.15-.19-3.3-.473-6.6-.912-9.88-.324-2.425.767-2.966,2.906-3.016,2.034-.047,3.627-.32,3.779,2.638.234,4.51,1.2,8.982,1.433,13.492.313,6.058-6.68,9.683-13.11,7.034-1.506-.622-2.969-3.612-4.578.635-.83,2.189-5.712-.055-5.835-2.972-.118-2.782-.027-5.57-.027-8.354Z" transform="translate(158.593 248.233)"/>
    <path id="Path_2052" data-name="Path 2052" class="cls-2" d="M446.9,226.534c.541-1.843,1.1-3.063-1.262-3.851-1.547-.517-1.153-2.349.214-3.352A60.206,60.206,0,0,1,452.7,214.6c9.159-4.932,13.342-3.376,17.119,6.121.9,2.255,1.81,4.507,2.709,6.762.879,2.207,2.23,4.081-1.588,5.461-3.489,1.263-4.176-.2-5.024-2.813-1.071-3.294-2.376-6.512-3.588-9.759-1.105-2.963-3.048-4.095-6.119-2.8-2.863,1.2-4.725,2.822-3.4,6.357,1.4,3.728,2.386,7.623,3.924,11.287,1.116,2.662-.667,3.155-2.263,3.481-1.376.281-3.452,2.354-4.276-.522C449.06,234.206,447.054,230.455,446.9,226.534Z" transform="translate(221.099 234.161)"/>
    <path id="Path_2053" data-name="Path 2053" class="cls-2" d="M337.118,208.452c0,5.052-4.161,11.182-8.609,12.691-3.945,1.342-12.147-1.7-14.951-5.509-.992-1.346-.4-2.614-.005-3.948,1.336-4.488,2.5-9.035,4.024-13.455.386-1.113-.094-3.929,2.357-3.013,2.047.764,4.782,1.74,3.649,5.192s-2.166,6.951-3.04,10.478c-.328,1.323-1.582,2.885.46,4.139,1.774,1.089,3.294.669,4.835-.317,4.737-3.032,5.525-8.387,1.6-12.318a2.521,2.521,0,0,1-.722-3.166c.683-1.645,1.964-1.024,3.079-.659A11.269,11.269,0,0,1,337.118,208.452Z" transform="translate(7.224 206.823)"/>
    <path id="Path_2054" data-name="Path 2054" class="cls-2" d="M408.229,233.555c-.146,2.517-.3,4.94-.427,7.365-.129,2.394-.341,4.121-3.779,3.89-3.542-.242-3.337-2.121-3.153-4.462.273-3.457.538-6.914.839-10.371.277-3.226-1.269-4.966-4.4-5.207-3.151-.242-5.481.795-5.8,4.4-.337,3.8-.879,7.6-1,11.4-.09,2.756-1.269,3.144-3.631,2.678-2.117-.42-4.289-.355-3.355-3.627,1.165-4.084.134-8.52,2.736-12.578.722-1.123-2.019-4.468,2.066-5.328,5.853-1.231,11.72-2.321,17.214.963C409.951,225.323,407.821,229.859,408.229,233.555Z" transform="translate(121.42 248.212)"/>
    <path id="Path_2055" data-name="Path 2055" class="cls-2" d="M354.015,222.695c0,1.743-.087,3.489.029,5.223.082,1.255-.7,2.864,1.211,3.552,1.942.7,3.367-.118,4.63-1.478,3.772-4.071,3.214-9.108-1.609-12.345-1.376-.924-1.306-1.908-1.1-3.066.262-1.473,1.57-1.213,2.5-1.069,3.756.594,7.151,2,8.723,5.762,2.066,4.932.942,9.62-2.066,13.78-2.276,3.145-5.381,4.908-9.5,3.769-.5-.139-1.029-.194-1.53-.339-7.635-2.168-7.672-2.171-7.565-10.04a97.4,97.4,0,0,1,.538-10.407c.136-1.113-1.032-3.819,1.767-3.231,1.743.365,4.425.441,4.154,3.63-.178,2.071-.034,4.171-.034,6.257Z" transform="translate(63.618 235.561)"/>
    <path id="Path_2056" data-name="Path 2056" class="cls-2" d="M372.532,214.171c7.226.045,8.667,2.756,6.531,9.838-1.951,6.454-2.777,13.244-4.289,19.843-.375,1.638.249,4.554-3.472,3.541-2.677-.73-4.46-1.244-3.473-4.675,2.061-7.152,2.549-14.717,5.413-21.657.775-1.871.276-2.438-1.381-2.963-1.575-.5-4.685.827-4.244-2.192C367.912,213.877,370.689,214.313,372.532,214.171Z" transform="translate(95.841 237.912)"/>
    <path id="Path_2057" data-name="Path 2057" class="cls-2" d="M507.525,179.628a4.379,4.379,0,0,1,1.709.627c4.657,4.407,9.486,8.67,13.754,13.431,1.685,1.879-1.457,2.879-2.446,4.21-1.066,1.43-2.33,1.827-3.826.173-2.8-3.087-5.879-5.916-8.613-9.056-2.249-2.583-4.192-3-6.1.123-.93,1.525-2.136,2.7-3.7,1.486-1.452-1.129.165-2.515.727-3.533C500.9,183.7,503.2,180.652,507.525,179.628Z" transform="translate(307.327 181.786)"/>
    <path id="Path_2058" data-name="Path 2058" class="cls-2" d="M476.319,227.651c-.548,2.544-2.893,2.281-4.378,3.195-1.872,1.144-2.331-.252-2.911-1.617-1.617-3.824-3.384-7.586-4.945-11.431-1.244-3.063-2.908-4.271-5.822-1.883-.984.806-2.021,1.591-3.148.334-1.477-1.654.181-2.533,1.111-3.339a18.033,18.033,0,0,1,7.229-3.953c1.5-.4,3.045-.362,3.872.73C471.442,215.125,473.012,221.852,476.319,227.651Z" transform="translate(237.157 229.06)"/>
    <path id="Path_2059" data-name="Path 2059" class="cls-2" d="M345.669,233.1c-3.288-.018-4.936-2.27-3.622-5.489,2.031-4.979,4.252-9.884,6.155-14.914.984-2.6,2.15-2.782,4.619-1.8,2.657,1.056,2.835,2.189,1.773,4.591-2.177,4.919-4.038,9.977-6.037,14.972C348.066,231.692,347.945,233.306,345.669,233.1Z" transform="translate(53.662 231.699)"/>
    <path id="Path_2060" data-name="Path 2060" class="cls-2" d="M416.765,222.916c-.73-2.772,1.7-2.252,3.451-2.754,2.386-.685,2.959.323,3.219,2.465q1.062,8.811,2.474,17.581c.557,3.423-2.183,2.431-3.7,2.9-1.418.443-3.074.977-3.326-1.651C418.3,235.4,417.512,229.352,416.765,222.916Z" transform="translate(175.584 247.301)"/>
    <path id="Path_2061" data-name="Path 2061" class="cls-2" d="M396.271,239.873c-5.507.772-8.027-2.8-10.116-6.887-.735-1.434.635-2.5,1.538-2.643,2.01-.326,4.265-.331,5.366,1.979.59,1.244-.261,3.512,2.181,3.347,1.787-.121,1.656-1.835,2.042-3.15.735-2.5,2.84-1.147,4.36-1.271a1.863,1.863,0,0,1,2.273,2.095c-.023,2.32-.086,4.72-2.588,5.712C399.778,239.668,397.966,239.621,396.271,239.873Z" transform="translate(125.726 263.937)"/>
    <path id="Path_2062" data-name="Path 2062" class="cls-2" d="M489.229,196.891c.237,2.68-.727,3.761-1.9,4.5-4.992,3.137-10.044,6.182-15.092,9.232-.837.506-1.887,1.373-2.586-.016a2.277,2.277,0,0,1,.819-3.192c1.772-1.092,3.57-2.145,5.365-3.2,2.053-1.207,3.88-2.158,4.331-5.184.428-2.882,3.3-4.449,6.341-4.326A2.951,2.951,0,0,1,489.229,196.891Z" transform="translate(261.201 206.273)"/>
    <path id="Path_2063" data-name="Path 2063" class="cls-2" d="M422.595,224.561c-.683-4.205,2.244-3.861,4.381-4.706,2.766-1.1,7.423,1.21,7.956-4.3.078-.809,1.651-1.053,2.672-.252.569.447,1.378,1.766,1.88.541.635-1.541,2.145-2.906,2.827-2.121,1.126,1.294,1.459,3.481,1.646,5.339.216,2.137-1.9,1.685-3.056,1.929C434.828,222.264,428.724,223.38,422.595,224.561Z" transform="translate(185.11 236.803)"/>
    <path id="Path_2064" data-name="Path 2064" class="cls-2" d="M395.683,223.855c.7-4.218,3.449-3.365,5.779-3.63,2.876-.328,7.221,2.822,7.988-3.115.02-.16,1.609-.459,1.787-.209,1.554,2.186,2.651,1.868,4.522.084,1.074-1.026,2.182.609,1.977,1.95-.281,1.859,1.538,4.925-2.489,4.922C408.825,223.852,402.4,223.855,395.683,223.855Z" transform="translate(141.547 241.958)"/>
    <path id="Path_2065" data-name="Path 2065" class="cls-2" d="M352.432,209.247c6.129,2.045,12.038,3.992,17.922,6.005a1.43,1.43,0,0,1,.906,2.071c-.412.966-.811,1.977-2.228,1.485-6.044-2.084-12.1-4.141-18.129-6.265-.554-.2-1.428-.6-1.065-1.457A2.889,2.889,0,0,1,352.432,209.247Z" transform="translate(66.916 229.911)"/>
    <path id="Path_2066" data-name="Path 2066" class="cls-2" d="M495.21,189.885c-.252,4.8,2.2,3.417,4.761,2.163,1.549-.761,2.869-3.539,5.022-.594,1.97,2.7.585,4.541-1.334,6.216-1.9,1.651-4.084,3.021-6.333.645a60.459,60.459,0,0,1-4.066-5.292Z" transform="translate(300.088 198.452)"/>
    <path id="Path_2067" data-name="Path 2067" class="cls-2" d="M384.913,222.6c-2.159-1.307-6.753,1.425-5.879-4.357.186-1.239-.557-2.685.945-3.352,1.54-.685,3.8-.3,4.194,1.011,1.165,3.843,3.5,3.216,6.24,2.428.929-.267,2.3-1.686,2.832.43a2.163,2.163,0,0,1-1.745,2.759C389.323,222.01,387.089,222.254,384.913,222.6Z" transform="translate(114.319 238.535)"/>
    <path id="Path_2068" data-name="Path 2068" class="cls-2" d="M394.835,223.312c-2.853.016-5.627.436-5.034-4.026.141-1.058-.4-2.41.674-3.045,1.436-.848,3.825-.756,4.26.533,1.47,4.347,4.106,2.855,6.783,1.9.893-.318,1.964-1.38,2.549.108a2.215,2.215,0,0,1-1.212,3.066A18.594,18.594,0,0,1,394.835,223.312Z" transform="translate(131.858 240.378)"/>
    <path id="Path_2069" data-name="Path 2069" class="cls-2" d="M333.646,216.955c-1.439,1.822-.882,5.287-4.023,5.134-1.6-.078-5.26-2.032-4.153-3.1,2.525-2.435-3.184-6.572,1.622-7.042C329.63,211.7,332.622,213.534,333.646,216.955Z" transform="translate(26.852 234.262)"/>
    <path id="Path_2070" data-name="Path 2070" class="cls-2" d="M431.89,210.227c2.916.57,2.289,3.262,2.53,4.846.443,2.892-2.373,2.307-3.995,2.5-3.422.4-2.525-2.8-2.806-4.326C426.986,209.8,430.648,211.689,431.89,210.227Z" transform="translate(193.32 231.504)"/>
    <path id="Path_2071" data-name="Path 2071" class="cls-2" d="M310.059,239.488c-.131-1.843-3.394-5.094,2.415-3.937,4.953.989,5.988-1.178,4.964-8.457a432.092,432.092,0,0,0,80.537,33.354c-.58,2.378-2.213,1.039-3.483.982-19.623-1.614-38.551-6.56-57.32-12.166-7.426-2.218-14.917-4.326-21.915-7.78.628-.743.449-1.981,1.738-2.449-2.253-.1-.879,1.835-1.7,2.462A9.842,9.842,0,0,1,310.059,239.488Z" transform="translate(0.749 258.909)"/>
    <path id="Path_2072" data-name="Path 2072" class="cls-2" d="M341.588,240.783c1.176-.278,2.541.115,3.483-.982l4.158.916c.124,1.874-.919,1.562-2.048,1.087C345.312,241.5,343.307,241.925,341.588,240.783Z" transform="translate(53.653 279.555)"/>
    <path id="Path_2073" data-name="Path 2073" class="cls-2" d="M343.719,241.269c.7-.323,1.735-.029,2.048-1.087,1.535-.283,2.443.648,3.776,1.7C347.2,242.295,345.394,242.374,343.719,241.269Z" transform="translate(57.115 280.09)"/>
    <path id="Path_2074" data-name="Path 2074" class="cls-2" d="M476.719,197.343a3.2,3.2,0,0,1-1.22.659c-.971.139-1.095-.741-.764-1.26a2.393,2.393,0,0,1,1.6-.79C476.706,195.9,477.279,196.261,476.719,197.343Z" transform="translate(269.724 208.302)"/>
    <path id="Path_2075" data-name="Path 2075" class="cls-2" d="M312.242,234.949c.058-1.173-2.15-1.746-1.005-3.063a2.087,2.087,0,0,1,3.231.008c3.11,3.774-3.463.548-2.265,3.042Z" transform="translate(3.802 265.457)"/>
  </g>
</svg>
