<svg xmlns="http://www.w3.org/2000/svg" width="141.208" height="128.396" viewBox="0 0 141.208 128.396">
  <defs>
    <style>
      .cls-1 {
        fill: #1674ba;
      }
    </style>
  </defs>
  <g id="Group_370" data-name="Group 370" transform="translate(-8.032 -15.632)">
    <g id="Group_212" data-name="Group 212" transform="translate(21.257 15.632)">
      <path id="Path_2129" data-name="Path 2129" class="cls-1" d="M978.331,1137.334H880.291a2.007,2.007,0,0,1-2.005-2.088c.532-13.2,10.064-23.537,21.7-23.537h3.549a11.388,11.388,0,0,1,9.531-5.4h7.664v-27.121a7.447,7.447,0,0,1,0-14.8v-2.234a7.447,7.447,0,0,1,0-14.8v-9.63h-31.2a10.221,10.221,0,1,1,0-14.53h30.58a10.221,10.221,0,1,1,18.785,0h30.579a10.221,10.221,0,1,1,0,14.53h-31.2v9.63a7.447,7.447,0,0,1,0,14.8v2.234a7.447,7.447,0,0,1,0,14.8v27.121h4.107a11.387,11.387,0,0,1,9.531,5.4h6.709c11.566,0,21.051,10.213,21.688,23.3a1.978,1.978,0,0,1,.025.322A2.006,2.006,0,0,1,978.331,1137.334Zm-95.861-4.014h93.67c-1.272-10.022-8.646-17.6-17.515-17.6h-7.85a2.006,2.006,0,0,1-1.769-1.059,7.629,7.629,0,0,0-6.622-4.343h-6.114a2.006,2.006,0,0,1-2.007-2.007v-31.088a2.006,2.006,0,0,1,2.007-2.007h1.171a3.433,3.433,0,1,0,0-6.865h-1.171a2.006,2.006,0,0,1-2.007-2.007v-6.155a2.006,2.006,0,0,1,2.007-2.007h1.171a3.433,3.433,0,0,0,0-6.866h-1.171a2.006,2.006,0,0,1-2.007-2.007v-13.6a2.006,2.006,0,0,1,2.007-2.007h34.083a2,2,0,0,1,1.54.721,6.208,6.208,0,1,0,0-7.945,2,2,0,0,1-1.54.72H936.271a2.006,2.006,0,0,1-2.007-2.007v-1.389a2.007,2.007,0,0,1,.354-1.139,6.207,6.207,0,1,0-10.23,0,2.009,2.009,0,0,1,.353,1.138v1.389a2.007,2.007,0,0,1-2.007,2.007H888.652a2.006,2.006,0,0,1-1.541-.721,6.207,6.207,0,1,0,0,7.945,2.006,2.006,0,0,1,1.541-.721h34.083a2.007,2.007,0,0,1,2.007,2.007v13.6a2.007,2.007,0,0,1-2.007,2.007h-1.171a3.433,3.433,0,0,0,0,6.866h1.171a2.006,2.006,0,0,1,2.007,2.007v6.155a2.007,2.007,0,0,1-2.007,2.007h-1.171a3.433,3.433,0,1,0,0,6.865h1.171a2.007,2.007,0,0,1,2.007,2.007v31.088a2.007,2.007,0,0,1-2.007,2.007h-9.671a7.629,7.629,0,0,0-6.622,4.343,2.008,2.008,0,0,1-1.769,1.059h-4.689C891.117,1115.723,883.742,1123.3,882.47,1133.321Z" transform="translate(-872.124 -1008.939)"/>
    </g>
    <g id="Group_225" data-name="Group 225" transform="translate(8.032 43.264)">
      <g id="Group_218" data-name="Group 218">
        <g id="Group_213" data-name="Group 213" transform="translate(0 45.578)">
          <path id="Path_2130" data-name="Path 2130" class="cls-1" d="M875.373,1141.973a23.374,23.374,0,0,1-23.014-21.649,1.8,1.8,0,0,1,1.8-1.941h42.436a1.8,1.8,0,0,1,1.8,1.941A23.373,23.373,0,0,1,875.373,1141.973ZM856.2,1121.986a19.415,19.415,0,0,0,38.354,0Z" transform="translate(-852.353 -1118.384)"/>
        </g>
        <g id="Group_216" data-name="Group 216" transform="translate(1.532)">
          <g id="Group_214" data-name="Group 214" transform="translate(0 0.001)">
            <path id="Path_2131" data-name="Path 2131" class="cls-1" d="M856.445,1099.428a1.8,1.8,0,0,1-1.676-2.459l17.862-45.577a1.8,1.8,0,0,1,3.354,1.314l-17.862,45.577A1.8,1.8,0,0,1,856.445,1099.428Z" transform="translate(-854.644 -1050.248)"/>
          </g>
          <g id="Group_215" data-name="Group 215" transform="translate(21.509)">
            <path id="Path_2132" data-name="Path 2132" class="cls-1" d="M906.463,1099.428a1.8,1.8,0,0,1-1.678-1.145l-17.862-45.577a1.8,1.8,0,0,1,3.354-1.314l17.862,45.577a1.8,1.8,0,0,1-1.676,2.459Z" transform="translate(-886.799 -1050.247)"/>
          </g>
        </g>
        <g id="Group_217" data-name="Group 217" transform="translate(21.218 1.009)">
          <path id="Path_2133" data-name="Path 2133" class="cls-1" d="M885.874,1099.927a1.8,1.8,0,0,1-1.8-1.8v-44.569a1.8,1.8,0,0,1,3.6,0v44.569A1.8,1.8,0,0,1,885.874,1099.927Z" transform="translate(-884.073 -1051.756)"/>
        </g>
      </g>
      <g id="Group_224" data-name="Group 224" transform="translate(95.17)">
        <g id="Group_219" data-name="Group 219" transform="translate(0 45.578)">
          <path id="Path_2134" data-name="Path 2134" class="cls-1" d="M1017.647,1141.973a23.373,23.373,0,0,1-23.014-21.649,1.8,1.8,0,0,1,1.8-1.941h42.437a1.8,1.8,0,0,1,1.8,1.941A23.373,23.373,0,0,1,1017.647,1141.973Zm-19.177-19.987a19.415,19.415,0,0,0,38.354,0Z" transform="translate(-994.628 -1118.384)"/>
        </g>
        <g id="Group_222" data-name="Group 222" transform="translate(1.532)">
          <g id="Group_220" data-name="Group 220" transform="translate(0 0.001)">
            <path id="Path_2135" data-name="Path 2135" class="cls-1" d="M998.719,1099.428a1.8,1.8,0,0,1-1.676-2.459l17.863-45.577a1.8,1.8,0,1,1,3.353,1.314l-17.862,45.577A1.8,1.8,0,0,1,998.719,1099.428Z" transform="translate(-996.918 -1050.248)"/>
          </g>
          <g id="Group_221" data-name="Group 221" transform="translate(21.51)">
            <path id="Path_2136" data-name="Path 2136" class="cls-1" d="M1048.738,1099.428a1.8,1.8,0,0,1-1.678-1.145l-17.862-45.577a1.8,1.8,0,0,1,3.353-1.314l17.863,45.577a1.8,1.8,0,0,1-1.676,2.459Z" transform="translate(-1029.074 -1050.247)"/>
          </g>
        </g>
        <g id="Group_223" data-name="Group 223" transform="translate(21.218 1.009)">
          <path id="Path_2137" data-name="Path 2137" class="cls-1" d="M1028.149,1099.927a1.8,1.8,0,0,1-1.8-1.8v-44.569a1.8,1.8,0,0,1,3.6,0v44.569A1.8,1.8,0,0,1,1028.149,1099.927Z" transform="translate(-1026.348 -1051.756)"/>
        </g>
      </g>
    </g>
  </g>
</svg>
