<svg xmlns="http://www.w3.org/2000/svg" width="128.432" height="128.23" viewBox="0 0 128.432 128.23">
  <defs>
    <style>
      .cls-1 {
        fill: #1674ba;
      }
    </style>
  </defs>
  <g id="Group_373" data-name="Group 373" transform="translate(-14.493 -14.696)">
    <g id="Group_228" data-name="Group 228" transform="translate(14.493 138.912)">
      <path id="Path_2138" data-name="Path 2138" class="cls-1" d="M414.758,892.681H290.34a2.007,2.007,0,0,1,0-4.014H414.758a2.007,2.007,0,0,1,0,4.014Z" transform="translate(-288.333 -888.667)"/>
    </g>
    <g id="Group_229" data-name="Group 229" transform="translate(24.749 102.122)">
      <path id="Path_2139" data-name="Path 2139" class="cls-1" d="M328.861,873.8H305.672a2.007,2.007,0,0,1-2.007-2.007V835.674a2.007,2.007,0,0,1,2.007-2.007h23.189a2.007,2.007,0,0,1,2.007,2.007V871.8A2.007,2.007,0,0,1,328.861,873.8Zm-21.183-4.013h19.176V837.681H307.678Z" transform="translate(-303.665 -833.667)"/>
    </g>
    <g id="Group_230" data-name="Group 230" transform="translate(64.439 76.703)">
      <path id="Path_2140" data-name="Path 2140" class="cls-1" d="M388.2,861.221H365.007A2.007,2.007,0,0,1,363,859.214V797.674a2.007,2.007,0,0,1,2.007-2.007H388.2a2.007,2.007,0,0,1,2.007,2.007v61.541A2.007,2.007,0,0,1,388.2,861.221Zm-21.183-4.014h19.176V799.681H367.013Z" transform="translate(-363 -795.667)"/>
    </g>
    <g id="Group_231" data-name="Group 231" transform="translate(104.13 33.649)">
      <path id="Path_2141" data-name="Path 2141" class="cls-1" d="M447.531,839.911H424.343a2.007,2.007,0,0,1-2.007-2.007V733.311a2.006,2.006,0,0,1,2.007-2.007h23.189a2.006,2.006,0,0,1,2.007,2.007V837.9A2.007,2.007,0,0,1,447.531,839.911ZM426.349,835.9h19.175V735.318H426.349Z" transform="translate(-422.336 -731.304)"/>
    </g>
    <g id="Group_232" data-name="Group 232" transform="translate(14.695 15.755)">
      <path id="Path_2142" data-name="Path 2142" class="cls-1" d="M290.44,769.312a1.8,1.8,0,0,1-1.264-3.093l42.71-41.9a1.783,1.783,0,0,1,1.352-.514,1.8,1.8,0,0,1,1.3.643l7.441,8.885,27.9-28.246a1.8,1.8,0,0,1,2.567,2.537l-29.3,29.656a1.8,1.8,0,0,1-2.667-.11l-7.461-8.909L291.7,768.8A1.8,1.8,0,0,1,290.44,769.312Z" transform="translate(-288.635 -704.553)"/>
    </g>
    <g id="Group_233" data-name="Group 233" transform="translate(79.238 14.695)">
      <path id="Path_2143" data-name="Path 2143" class="cls-1" d="M404.113,723.038a1.805,1.805,0,0,1-1.805-1.805V706.578H386.929a1.8,1.8,0,0,1,0-3.609h17.184a1.8,1.8,0,0,1,1.8,1.8v16.459A1.8,1.8,0,0,1,404.113,723.038Z" transform="translate(-385.124 -702.969)"/>
    </g>
  </g>
</svg>
