<?xml version="1.0" encoding="utf-8"?>
<!-- Generator: Adobe Illustrator 19.0.0, SVG Export Plug-In . SVG Version: 6.00 Build 0)  -->
<svg version="1.1" id="Layer_1" xmlns="http://www.w3.org/2000/svg" xmlns:xlink="http://www.w3.org/1999/xlink" x="0px" y="0px"
	 viewBox="-221 375.2 152.9 91.7" style="enable-background:new -221 375.2 152.9 91.7;" xml:space="preserve">
<style type="text/css">
	.st0{fill:#FFFFFF;}
</style>
<g>
	<path class="st0" d="M-68.2,417c-0.4-5.6-2.1-10.9-5-15.7c-4.9-8.4-12-14.3-20.6-18.7c-8.8-4.5-18.3-6.6-28.2-7.3l-0.9,0
		c0,0,0,0,0,0c0,0,0,0,0-0.1c0,0,0-0.1,0-0.1c0,0,0,0,0,0h-0.9h0h-1.2c0,0,0,0,0,0c0,0,0,0,0,0h-5.8c0,0,0,0,0,0h-1c0,0,0,0,0,0
		c0,0,0,0,0,0h-1.1c0,0,0,0,0,0c0,0,0,0,0,0h-0.4c-1.1,0.2-2.2,0.1-3.3,0.2c-15.5,1.4-30.2,7.3-42.4,17c-3.3,2.6-6.4,5.6-9.1,8.7
		c-0.5,0.5-0.8,1.1-0.7,1.8c0,0,0,0.1,0,0.1c0.1-0.1,0.1-0.1,0.2-0.1c0.1,0.2,0.1,0.3,0.1,0.5c0.1,0.4,0.2,0.8,0.7,0.9
		c0,0,0.1,0,0.1,0c0.4,0,0.7-0.3,0.9-0.7c0.1-0.1,0.1-0.2,0.2-0.3c5.1-5.8,11.1-10.8,17.8-14.7c6.7-3.9,14-6.7,21.5-8.4
		c5.3-1.2,10.6-1.8,16-1.8c1.3,0,2.6,0,3.9,0.1c8.5,0.3,16.9,1.8,25,4.3c6.8,2.1,13.1,5.7,18.4,10.4c2.8,2.5,5.1,5.4,7.1,8.6
		c1,1.6,1.9,3.3,2.6,5.1c0,0-0.1,0-0.1,0.1c0.5,1,0.9,2,1.2,3l0,0.1c0.2,0.6,0.4,1.2,0.5,1.8c0.5,2.1,0.9,4.2,1,6.3
		c0,0.4,0,0.8,0.1,1.2c0.1,3.6-0.3,7.2-1.3,10.6c-0.3,1.1-0.7,2.2-1.1,3.3c-0.3,0.8-0.6,1.5-0.9,2.2c-0.5,0.9-1,1.8-1.6,2.6
		c-2.8,4.4-6.4,8.4-10.4,11.8c-4.9,4-10.4,7.1-16.4,9.3c-6.2,2.3-12.6,3.6-19.2,4.1c-2.7,0.2-5.4,0.3-8.1,0.3
		c-4.4,0-8.7-0.3-13.1-0.9c-5.2-0.7-10.3-2-15.2-4c-9-3.7-16.6-10.1-21.8-18.2c-2.4-3.7-4.3-7.6-5.7-11.8c-1.2-3.5-2.2-7-2.9-10.7
		c-0.7-3.6-1.1-7.3-1.3-11c0-0.2,0-0.5,0-0.7c-0.1-1-0.1-2.1-0.1-3.1l0.1,0.2l0.1,0.2c0,0,0,0.1,0.1,0.1c0-0.1,0-0.3,0-0.4
		c0-1.4-0.1-2.8,0-4.2c0.1-1.5,0.2-1.5,1.7-1.5c0.3,0,0.5,0,0.8,0c0.6-0.1,1.4,0.3,1.6-0.3c0.2-0.5-0.5-1-0.8-1.4
		c-2.1-2.1-4.1-4.3-6.1-6.4c-0.1-0.2-0.3-0.3-0.6-0.3c0,0,0,0,0,0c-0.4,0.4-0.2,0.9-0.3,1.4c-0.9,11-0.4,22,2.7,32.7
		c3,11,9.2,20.8,17.9,28.1c7.7,6.4,16.9,10.9,26.8,13.1c1.2,0.3,2.4,0.5,3.6,0.7c0,0,0,0,0,0l1.2,0.2c-0.6,0.1-1.2,0.1-1.9,0.1
		c-0.3,0-0.6,0-0.9-0.1c-0.1,0-0.2,0-0.3,0c0,0,0,0-0.1,0c-4.8-0.1-9.6-0.7-14.3-1.6c-8.6-1.6-16.8-4.8-24.1-9.6
		c-10.2-6.8-17.3-16.1-21.9-27.4c-3.1-7.7-5.1-15.9-5.9-24.3c-0.5-4.7-0.6-9.4-0.3-14.1c0-0.2,0.2-0.5-0.2-0.7c0,0,0.1,0,0.1-0.1
		c-0.4-0.1-0.6,0.2-0.7,0.5c-1.8,2-3.6,4-5.4,6c-1.2,1.1-2.2,2.3-3.1,3.6v0.2c1.7,0,3.3,0,5-0.1c0.7,0,0.9,0.3,0.9,0.9
		c0.1,2,0.2,3.9,0.4,5.9c0.6,6.8,2,13.6,4.3,20.1c2.8,8.2,7.4,15.7,13.4,21.9c7.1,7.1,15.8,12.4,25.4,15.5c9.7,3.2,19.7,4.9,29.9,5
		c7.7,0.3,15.3-0.1,22.9-1.1c8.5-1.2,16.7-3.8,24.3-7.7c8.6-4.5,15.8-10.6,20.9-19C-69.6,432.4-67.7,424.7-68.2,417z"/>
	<path class="st0" d="M-202.7,423.8c4.6,12.6,12.2,22.8,23.6,30.1c3.3,2.1,6.7,3.9,10.4,5.2c0,0,0,0,0,0c0.3,0.2,0.6,0.3,0.9,0.3
		c0,0,0,0,0,0c1.2,0.5,2.4,1,3.7,1.3c3.1,1,6.4,1.7,9.7,2c0,0,0,0,0,0c0.3,0.1,0.6,0.2,0.9,0.2c0.1,0,0.1,0,0.2,0.1
		c0.3,0.1,0.5,0.1,0.8,0.1c-0.2-0.2-0.4-0.3-0.6-0.3c0,0,0,0,0,0c0,0,0,0,0,0l-0.7-0.2c-4.7-1.4-9.2-3.3-13.6-5.6c0,0,0,0,0,0
		c-0.2-0.1-0.4-0.3-0.7-0.4c-10.2-5.8-18.3-14.7-23-25.4c-4.5-9.9-6.3-20.4-6.5-31.3c-0.1-5.2,0.3-10.3,1.1-15.4c0,0,0,0,0,0
		c-1.6-2-3.2-4-4.8-6c-0.4-0.5-0.5-0.4-0.9,0c-1.8,1.9-3.7,3.7-5.6,5.5c0,0,0,0,0,0c-0.1,2-0.2,4.1-0.2,6.1c0,4.8,0.3,9.6,0.8,14.4
		C-206.4,411.2-204.9,417.6-202.7,423.8z M-167.7,459.3C-167.7,459.3-167.7,459.3-167.7,459.3C-167.7,459.3-167.7,459.4-167.7,459.3
		C-167.7,459.4-167.7,459.3-167.7,459.3z"/>
	<path class="st0" d="M-94.1,391.2c0.1-0.2,0.2-0.4,0.3-0.6c0.5-1.5-0.2-3.2-1.8-3.8c-1.4-0.5-2.9,0.2-3.8,1.8
		c-6.8,12.6-13.6,25.3-20.5,37.9c-0.7,1.4-0.2,3,1.1,3.8c1.4,0.8,3.2,0.4,4-1c2.1-3.9,4.2-7.7,6.3-11.6c0.1-0.4,0.5-0.6,0.9-0.6
		c2.2,0,4.4,0,6.6,0c0.8,0.1,1.6-0.4,1.8-1.2c0.5-1.2,0.5-2.5-0.1-3.6c-0.3-0.6-0.9-1.1-1.6-1c-1.3,0-2.7,0-4.2,0
		c1.2-2.2,2.3-4.2,3.4-6.2c0.2-0.3,0.3-0.6,0.7-0.5c0.4,0,0.5,0.3,0.6,0.6c0.9,1.8,1.8,3.6,2.7,5.4c3.1,6.2,6.1,12.5,9.2,18.7
		c0.3,0.8,1,1.4,1.8,1.5c1.2,0.2,2.5-0.3,3.3-1.3c0.7-0.9,0.7-2.1,0.1-3c-3.6-7.3-7.2-14.6-10.8-21.9c-0.8-1.9-2.2-3.5-3.9-4.6
		c-0.5-0.3-0.6-0.5-0.3-1C-96.9,396.4-95.5,393.8-94.1,391.2z"/>
	<path class="st0" d="M-128,416c1.6,0,2.8-1.3,2.9-2.8c0.1-1.6-1.2-3-2.8-3c-3.3,0-6.5,0-9.8,0c-0.6,0.1-1.1-0.3-1.3-0.8
		c-1.4-2.9-2.8-5.8-4.2-8.7c-0.3-0.7-0.8-1.2-1.5-1.4c-1.3-0.3-2.6,0.1-3.4,1.1c-0.8,0.9-0.8,2.1-0.2,3.1
		c3.6,7.3,7.2,14.6,10.8,21.9c0.7,1.5,1.7,2.8,3,3.9c0.1,0.1,0.2,0.2,0.3,0.3c2.5,2.1,6.1,1.8,8.2-0.7c1.1-1.2,2-2.6,2.7-4
		c3.9-7.1,7.7-14.3,11.6-21.4c0.5-0.7,0.5-1.6,0.2-2.3c-0.5-1.1-1.6-1.9-2.9-1.9c-1.1-0.1-2.2,0.6-2.6,1.6
		c-2.7,5.1-5.5,10.2-8.3,15.3c-1.6,2.9-3.2,5.8-4.7,8.7c-0.4,0.8-0.9,0.8-1.2,0.2c-1.5-3-2.9-6-4.5-9.1
		C-133.1,416-130.6,415.9-128,416z"/>
	<path class="st0" d="M-154.6,402.1c-1.3-1.9-3.5-3-5.9-3c-1.4,0-2.8,0.7-3.8,1.7c-1.3,1.3-2.3,2.8-3,4.5
		c-3.8,7.1-7.7,14.2-11.5,21.3c-0.7,1-0.6,2.2,0.3,3.1c0.3,0.4,0.6,0.7,1,0.9c1.5,0.7,3.2,0.1,4-1.4c4.2-8,8.6-15.9,12.9-23.8
		c0.2-0.3,0.2-0.7,0.8-0.7c0.5,0,0.5,0.5,0.7,0.8c1.6,3.1,3.1,6.2,4.6,9.4c2.4,4.9,4.8,9.7,7.2,14.6c0.3,0.8,1,1.4,1.9,1.5
		c1.2,0.2,2.4-0.3,3.2-1.3c0.6-0.9,0.7-2.1,0-3c-3-6-5.9-12.1-9-18.1C-152.1,406.2-153.3,404.1-154.6,402.1z"/>
	<path class="st0" d="M-119.3,454.3c0.1,0.8,0.2,1.5,0.4,2.3c0,0.2,0.1,0.4,0.3,0.6c0.4,0.5,1.1,0.5,1.6,0.1
		c0.3-0.3,0.8-0.4,1.2-0.2c0.9,0.2,1.5-0.3,1.4-1.4c-0.1-0.6-0.3-1.4-0.5-2.2c-0.1-0.3,0-0.6-0.6-0.5c-0.4,0.1-0.7,0.2-0.5,0.7
		c0.2,0.7,0.3,1.4,0.4,2.1c0,0.2,0.1,0.4-0.2,0.5c-0.3,0.1-0.4-0.2-0.4-0.4c-0.1-0.7-0.3-1.4-0.4-2.2c-0.1-0.4-0.3-0.5-0.7-0.4
		c-0.3,0.1-0.6,0.1-0.5,0.6c0.2,0.7,0.3,1.4,0.4,2.2c0,0.2,0.1,0.5-0.2,0.5c-0.3,0-0.3-0.2-0.4-0.4c-0.1-0.7-0.3-1.4-0.3-2.1
		c0-0.5-0.2-0.6-0.7-0.5C-119.3,453.7-119.4,454-119.3,454.3z"/>
	<path class="st0" d="M-86.5,443.3c1-0.3,1.9-1,2.3-2c0.1-0.3,0.1-0.7-0.1-1c-0.2-0.3-0.5-0.5-0.1-0.9c0.2-0.2-0.3-0.5-0.4-0.4
		c-0.7,0.5-0.8-0.2-1.1-0.5c-0.3-0.3-0.5-0.2-0.7,0.1c-0.2,0.2-0.7,0.3-0.3,0.7c0.6,0.6,0.7,1-0.2,1.3c0,0,0,0.1,0,0.1c0,0,0,0,0,0
		c0,0.8,0.4,0.6,0.8,0.4c0.3-0.1,0.5-0.6,0.8-0.1c0.3,0.5,0.1,0.8-0.2,1c-0.3,0.3-0.7,0.5-1.1,0.1c-0.2-0.3-0.5-0.6-0.7-0.9l0,0
		c-0.2-0.2-0.4-0.4-0.5-0.6c-0.2-0.3-0.4-0.7-0.9-0.2c-0.4,0.4-0.4,0.6-0.1,1c0.4,0.5,0.8,1,1.2,1.5
		C-87.4,443.2-87,443.3-86.5,443.3z"/>
	<path class="st0" d="M-95.5,445.8c0.6-0.4,1-0.1,1.3,0.4s0.7,1,1,1.6c0.2,0.4,0.5,0.2,0.7,0s0.7-0.2,0.4-0.7
		c-0.5-0.7-0.9-1.4-1.4-2c-0.2-0.2-0.7-0.3-0.2-0.8c0.2-0.2-0.1-0.4-0.3-0.5c0,0-0.1,0-0.1,0c-0.1,0-0.3,0-0.3,0.2
		c-0.3,0.8-1.2,1-1.8,1.4c-0.9,0.7-1,1.2-0.5,2.2c0.3,0.5,0.5,1,0.8,1.5c0.2,0.3,0.3,0.7,0.8,0.3c0.4-0.2,0.7-0.4,0.3-0.9
		c0,0-0.1-0.1-0.1-0.1c-0.2-0.4-0.1-0.8,0.2-1.1c0.4-0.3,0.1-0.6-0.1-0.7c-0.4-0.2-0.5,0.3-0.8,0.5C-96,446.7-96.1,446.2-95.5,445.8
		z"/>
	<path class="st0" d="M-170.9,443.6c0.8,0.9,2.1,1.1,3,0.4c0.8-0.6,1-1.7,0.5-2.6c-0.6-1.1-2-1.6-3.2-1.2c0.3,0.4,0.5,0.8,1.2,0.7
		c0,0,0,0,0,0c0.6,0,1.1,0.4,1.1,1c0,0.6-0.3,1.2-0.9,1.5c-0.5,0.3-1,0-1.3-0.4c-0.3-0.2-0.4-0.6-0.2-1c0.3-0.4,0.5,0.1,0.7,0.2
		c0.2,0.1,0.3,0.2,0.4,0c0.1-0.1,0.3-0.3,0.1-0.4c-0.5-0.4-0.9-0.8-1.4-1.2c-0.3-0.2-0.4,0.1-0.5,0.2
		C-171.8,441.8-171.7,443-170.9,443.6z"/>
	<path class="st0" d="M-130.8,457.4c0.1,0.7,0.8,1,2.1,1c1.1,0,1.7-0.3,1.9-1.1c0-0.1,0-0.2,0-0.3c0-0.3,0-0.6,0-1l0,0
		c0-0.3,0-0.6,0-1c0-0.3,0.1-0.7-0.5-0.7c-0.5,0-0.7,0.2-0.6,0.7c0,0.6,0,1.3,0,1.9c0,0.5-0.4,0.6-0.8,0.6c-0.4,0-0.7-0.1-0.8-0.5
		c-0.1-0.4,0.2-0.6,0.5-0.7c0.2,0,0.3-0.1,0.3-0.3c0-0.2-0.2-0.2-0.4-0.3c-0.3-0.1-0.6-0.2-0.5-0.6c0.1-0.4,0.4-0.3,0.6-0.3
		c0.2,0,0.4,0,0.4-0.2c0-0.1,0-0.3-0.1-0.3c-0.5-0.3-1.1-0.3-1.6,0c0,0-0.1,0-0.1,0c-0.4,0.2-0.5,0.6-0.3,1c0.2,0.5,0.4,0.9,0,1.4
		C-130.9,457-130.8,457.2-130.8,457.4z"/>
	<path class="st0" d="M-159.8,450c0.2-0.5,0.5-1,0.8-1.6c0.2-0.2,0.3-0.5,0.3-0.8c0-0.8-0.6-1.5-1.4-1.5c-0.4-0.1-0.7,0-0.9-0.5
		c-0.2-0.4-0.7-0.7-1.1,0.1c-0.4,0.8-0.8,1.5-1.3,2.2c-0.3,0.5-0.2,0.6,0.2,0.9c0.5,0.3,0.6,0.1,0.8-0.3c0.2-0.4,0.5-0.8,0.7-1.2
		c0.2-0.3,0.5-0.5,0.8-0.6c0.8,0,1.1,0.4,0.8,1c-0.3,0.6-0.6,1.1-0.9,1.6c-0.3,0.4-0.2,0.6,0.3,0.9
		C-160.1,450.5-160,450.4-159.8,450z"/>
	<path class="st0" d="M-111.4,454.1c0-0.2-0.1-0.3-0.3-0.2c-0.5,0.1-1.1,0.3-1.6,0.4c-0.3,0.1-0.2,0.3-0.1,0.5
		c0,0.1,0.1,0.2,0.1,0.3c0.5,1,1.7,1.3,2.7,0.8c1-0.3,1.6-1.2,1.4-2.2c0,0,0-0.1,0-0.1c-0.2-1-1.1-1.8-2.2-1.6
		c-1.1-0.1-2,0.7-2.2,1.8c0.5,0.1,0.9-0.1,1.1-0.5c0-0.1,0.1-0.1,0.1-0.2c0.4-0.4,1.1-0.4,1.5,0c0.5,0.5,0.6,1.3,0.3,2
		c-0.5,0.5-1.1,0.4-1.8-0.3c0.3-0.1,0.5-0.2,0.7-0.2C-111.3,454.5-111.3,454.3-111.4,454.1z"/>
	<path class="st0" d="M-173.4,440.2c-0.3,0.3-0.7,0.5-0.1,1c0.5,0.5,0.7,0.2,1-0.2c0.4-0.5,0.8-0.9,1.2-1.4c0.2-0.2,0.4-0.5,0.4-0.9
		c-0.2-0.9-0.9-1.6-1.7-2c-0.8-0.5-0.8-0.5-1.4,0.1c0,0-0.1,0-0.1,0c-0.8,0.1-1.1,0.7-1.6,1.1c-0.4,0.3-0.6,0.5-0.1,1
		c0.5,0.4,0.7,0.3,1-0.1s0.7-0.8,1.1-1.1c0-0.1,0.1-0.1,0.2-0.2c0.3-0.3,0.8-0.2,1.1,0.2c0.5,0.4,0.6,0.8,0.1,1.2
		C-172.8,439.4-173.1,439.8-173.4,440.2z"/>
	<path class="st0" d="M-98.8,450.6c-0.2,0.1-0.5,0-0.7,0c-0.4-0.1-0.8,0.1-0.9,0.5c-0.1,0.4,0.4,0.5,0.8,0.5c1,0,2-0.5,2.6-1.2
		c0.3-0.4,0.4-0.9,0.1-1.3c-0.2-0.4-0.7-0.6-1.1-0.5c-0.4,0.1-0.8,0.2-1.3,0.3c-0.3,0-0.7,0.3-0.8-0.1c-0.1-0.4,0.3-0.5,0.6-0.6
		c0.1,0,0.2-0.1,0.3-0.1c0.2,0,0.4,0.1,0.5,0.1c0.3-0.1,0.6-0.3,0.6-0.5c0-0.4-0.4-0.4-0.7-0.4c-0.9,0-1.7,0.4-2.3,1.1
		c-0.2,0.3-0.3,0.8-0.1,1.2c0.2,0.4,0.6,0.6,0.9,0.5c0.4,0,0.8-0.1,1.1-0.2c0.4,0,0.9-0.5,1.1,0.1
		C-97.8,450.3-98.4,450.4-98.8,450.6z"/>
	<path class="st0" d="M-156.9,451.9c0.3,0,0.6-0.2,0.6,0.3c0,0.3,0.4,0.4,0.7,0.4c0.3,0.1,0.3-0.3,0.4-0.5c0.4-0.9,0.7-1.7,1.1-2.6
		c0.2-0.4,0-0.5-0.4-0.7c-0.4-0.2-0.6-0.2-0.7,0.2c-0.2,0.5-0.4,1-0.7,1.5c-0.3,0.5-0.7,0.8-1.3,0.5c-0.6-0.3-0.4-0.8-0.2-1.2
		c0.3-0.5,0.5-1.1,0.8-1.6c0,0,0.1-0.1,0.1-0.2c0-0.2-0.1-0.4-0.3-0.4c-0.2-0.1-0.5-0.4-0.7-0.1c-0.5,0.8-1,1.7-1.3,2.6
		c0,0,0,0,0,0.1C-158.7,451.3-157.8,452-156.9,451.9z"/>
	<path class="st0" d="M-145.4,456c0.2-0.1,0.5-0.5,0.5,0.2c0,0.3,0.5,0.3,0.7,0.3c0.3,0,0.3-0.2,0.3-0.4c0.2-0.9,0.4-1.8,0.7-2.7
		c0.1-0.4-0.1-0.6-0.4-0.7c-0.4-0.1-0.6-0.1-0.7,0.4c-0.1,0.6-0.3,1.1-0.5,1.7c0,0,0,0.1,0,0.1c-0.2,0.5-0.7,0.7-1.1,0.5
		c-0.6-0.2-0.5-0.6-0.4-1.1c0.2-0.6,0.3-1.1,0.5-1.7c0.1-0.3,0-0.5-0.3-0.6c-0.3,0-0.6-0.4-0.7,0.1c-0.3,0.8-0.5,1.7-0.7,2.3
		c0,0.2,0,0.4,0.1,0.6C-147.1,455.9-146.2,456.3-145.4,456z"/>
	<path class="st0" d="M-136.5,454c-0.4-0.1-0.8-0.3-1,0c-0.5,0.6-1.2,0.5-1.8,0.9c0-0.2,0-0.4,0-0.6c0.1-0.4,0.2-0.7-0.4-0.8
		c-0.5-0.1-0.6,0.1-0.7,0.6c-0.1,0.9-0.3,1.7-0.5,2.6c-0.1,0.5,0.1,0.6,0.5,0.7c0.5,0.1,0.7,0,0.7-0.5c0-0.4,0.1-0.9,0.4-1.2
		c0.2-0.3,0.6-0.5,1-0.4c0.4,0.1,0.4,0.5,0.4,0.9c0,0.4-0.1,0.8-0.2,1.1c0,0.2,0,0.5,0.3,0.5c0.3,0,0.8,0.3,0.8-0.2
		c0.1-0.9,0.7-1.9-0.3-2.7C-136.9,454.6-136.6,454.5-136.5,454z"/>
	<path class="st0" d="M-91.2,443c0.1-0.1,0.1-0.1,0.2-0.1c0.3-0.2,0.8,0,0.9,0.3c0.4,0.6,0.8,1.1,1.2,1.6c0.3,0.4,0.5,0.2,0.8,0
		s0.6-0.3,0.2-0.7c-0.5-0.6-1-1.2-1.5-1.9c-0.2-0.3-0.6-0.4-1-0.4c-0.8,0.2-1.4,0.6-1.9,1.2c-0.3,0.3-0.5,0.6-0.7,1
		c-0.1,0.4,0.4,0.3,0.6,0.4c0,0,0,0.1,0,0.2c0,0.8,0.6,1.2,0.9,1.8c0.2,0.5,0.5,0.5,0.9,0.2s0.4-0.5,0.1-0.9c-0.4-0.5-0.7-1-1.1-1.5
		C-91.9,443.7-91.6,443.3-91.2,443z"/>
	<path class="st0" d="M-125.8,457.7c0,0.5,0.8,0.9,1,0.5c0.3-0.7,0.5-0.2,0.8-0.1c0.2,0.1,0.4,0.2,0.6,0.2c0.8,0.1,1.5-0.6,1.6-1.4
		c0-0.8-0.2-1.5-0.2-2.3c0-0.5-0.3-0.5-0.6-0.4c-0.4,0-0.5,0.1-0.5,0.5c0.1,0.6,0.1,1.1,0.2,1.7c0,0.4,0.1,0.9-0.5,1
		c-0.1,0-0.1,0-0.2,0c-0.5,0-0.9-0.4-0.9-0.9c-0.1-0.5-0.1-1-0.1-1.5c0-0.5-0.1-0.7-0.6-0.7c-0.6,0-0.5,0.3-0.5,0.7
		c0,0.4,0,0.8,0.1,1.2l0.1,0C-125.8,456.7-125.8,457.2-125.8,457.7z"/>
	<path class="st0" d="M-107,451.3c0.1,0,0.1-0.1,0.2-0.1c0.4-0.1,0.7,0.2,0.8,0.6c0.2,0.5,0.4,1.1,0.6,1.6c0.1,0.4,0.3,0.7,0.8,0.5
		c0.6-0.2,0.4-0.5,0.3-0.9s-0.3-0.8-0.5-1.1c-0.6-1.6-1.3-1.9-2.9-1c-0.4,0.2-0.8,0.5-1.2,0.8c-0.2,0.2-0.3,0.5,0,0.6
		c0.4,0.1,0.3,0.3,0.2,0.6c0.1,0.7,0.3,1.3,0.6,2c0.1,0.5,0.5,0.1,0.7,0.1c0.3-0.1,0.6-0.1,0.4-0.6c-0.3-0.6-0.4-1.3-0.7-1.9
		C-107.8,451.8-107.4,451.5-107,451.3z"/>
	<path class="st0" d="M-164.5,447.3c0.8-0.4,1.4-1.2,1.5-2.1c0-0.7-0.5-1.4-1.2-1.7c-0.2-0.1-0.4-0.2-0.5,0.1
		c-0.1,0.2,0,0.4,0.1,0.5c0.1,0.1,0.2,0.2,0.3,0.4c0.3,0.6,0.1,1.4-0.6,1.7c-0.2,0.2-0.6,0.2-0.8,0.1c-0.3-0.2-0.1-0.5-0.1-0.7
		c0.1-0.6,0.3-1.2,0.5-1.8s-0.3-0.7-0.6-0.9c-0.4-0.2-0.3,0.3-0.4,0.5c-0.3,0.7-0.5,1.5-0.7,2.3c-0.1,0.2-0.2,0.4,0,0.7
		C-166.4,447.1-165.4,447.4-164.5,447.3z"/>
	<path class="st0" d="M-132.3,454.5c-0.9-0.4-1.9-0.5-2.9-0.2c-0.7,0.1-0.2,0.7-0.3,0.9c-0.4,0.7-0.3,1.4-0.5,2.1
		c-0.2,0.6,0.2,0.5,0.6,0.6c0.4,0.1,0.6,0,0.6-0.5c0-0.6,0.1-1.3,0.2-1.9c0.1-0.6,0.4-0.8,1-0.7c0.1,0,0.1,0,0.2,0
		c0.4,0.1,0.6,0.5,0.5,0.9c0,0.6-0.1,1.2-0.1,1.7c0,0.4-0.1,0.7,0.5,0.8c0.6,0,0.6-0.2,0.6-0.7c0-0.4,0-0.8,0.1-1.2
		C-131.9,455.7-131.5,454.9-132.3,454.5z"/>
	<path class="st0" d="M-151.7,453c0,1.3,0,1.3,1.3,1.7c0.1,0,0.2,0,0.3,0.1c0.6,0.2,1.3-0.1,1.6-0.6c0.5-0.7,0.7-1.5,0.3-2.3
		c-0.3-0.6-0.8-0.9-1.5-1c-0.2,0-0.4-0.1-0.4,0.2c-0.1,0.2,0,0.4,0.2,0.5c0.1,0.1,0.3,0.2,0.4,0.3c0.5,0.5,0.4,1.3-0.1,1.8
		c-0.2,0.2-0.5,0.3-0.8,0.2c-0.3-0.1-0.2-0.4-0.2-0.6c0-0.3,0-0.6,0-0.9l0,0c0-0.4,0-0.7,0-1.1c0-0.5-0.4-0.5-0.7-0.6
		c-0.5-0.1-0.3,0.4-0.3,0.5C-151.7,451.8-151.7,452.4-151.7,453z"/>
	<path class="st0" d="M-142.9,456.1c-0.2,0.6,0.1,0.7,0.6,0.8c0.6,0.2,0.5-0.3,0.6-0.6c0.3-1.1,0.4-2.3,0.7-3.3
		c0.4-1.2,0.1-1.6-1.1-1.7c-0.3,0-0.8,0-0.8,0.3c-0.1,0.5,0.4,0.3,0.7,0.4c0.3,0.1,0.4,0.2,0.2,0.5
		C-142.4,453.7-142.7,454.9-142.9,456.1z"/>
	<path class="st0" d="M-82.2,439.2c0.3,0.3,0.5,0.2,0.6,0c0.2-0.2,0.7-0.4,0.4-0.7c-0.7-0.8-1.5-1.5-2.3-2.3
		c-0.1-0.1-0.2-0.1-0.3-0.1c-0.6,0.2-1.2,0.6-1.4,1.3c-0.1,0.2-0.4,0.4-0.1,0.6c0.3,0.2,0.5,0,0.6-0.2c0.3-0.5,0.6-0.5,1,0
		C-83.2,438.2-82.7,438.7-82.2,439.2z"/>
	<path class="st0" d="M-102.9,450.5c0.3,0.6,0.6,1.3,0.8,1.9c0.1,0.2,0.2,0.5,0.5,0.3c0.2-0.2,0.6-0.1,0.7-0.5c-0.4-1-0.9-2.1-1.5-3
		c-0.2-0.2-0.4-0.2-0.7-0.1c-0.5,0.1-0.9,0.4-1.2,0.7c-0.2,0.1-0.4,0.3-0.2,0.6c0.2,0.2,0.4,0.1,0.5-0.1
		C-103.4,449.7-103.1,449.9-102.9,450.5z"/>
	<path class="st0" d="M-153.8,453.5c0.4,0,0.4-0.2,0.5-0.4c0.3-0.8,0.7-1.7,1-2.5c0.2-0.4,0.1-0.6-0.3-0.8c-0.4-0.2-0.6-0.1-0.8,0.3
		c-0.3,0.8-0.7,1.7-1,2.5c-0.1,0.1-0.1,0.3-0.1,0.4C-154.4,453.3-154.1,453.5-153.8,453.5z"/>
	<path class="st0" d="M-120.7,453.9c-0.3,0.1-0.7,0-0.6,0.5c0.1,1.1,0.3,2.1,0.4,3.1c0,0.4,0.3,0.4,0.6,0.3c0.3-0.1,0.7,0.1,0.6-0.5
		c-0.2-1-0.3-2-0.4-3C-120.2,454-120.3,453.8-120.7,453.9z"/>
	<path class="st0" d="M-132.2,458.6c-0.3,0-0.6-0.2-0.7,0.2c-0.1,0.2,0,0.5-0.3,0.5c-0.4,0-0.3-0.4-0.4-0.6
		c-0.2-0.4-0.6-0.4-0.9-0.3c0,0-0.1,0-0.1,0c-0.2,0.1-0.2,0.3-0.2,0.4c0.3,0.7,0.8,1.3,1.7,1.2c0.3,0,0.6-0.1,0.9-0.1
		c0.4-0.2,0.4-0.6,0.4-1c0,0,0-0.1,0-0.1C-131.9,458.7-132,458.6-132.2,458.6z"/>
	<path class="st0" d="M-97.5,445.4c0.8-0.5,1.7-1,2.5-1.6c0.3-0.2,0.4-0.5,0.3-0.8c-0.1-0.2-0.2-0.4-0.5-0.4c-0.5-0.1-1,0.2-1.1,0.7
		c-0.1,0.5-0.4,0.7-0.7,0.9c-0.3,0.2-0.6,0.4-0.9,0.5c0,0,0,0,0,0c-0.2,0.1-0.2,0.3-0.1,0.5C-97.8,445.6-97.6,445.5-97.5,445.4z
		 M-95.6,443.4c0.1-0.1,0.2-0.1,0.3-0.1c0.1,0,0.2,0.1,0.1,0.2c-0.1,0.1-0.1,0.1-0.2,0.1C-95.7,443.7-95.7,443.5-95.6,443.4z"/>
	<path class="st0" d="M-116.6,451.4c-0.1,0.9-0.9,0.5-1.3,0.7c-0.4,0.1-0.9,0.1-0.7,0.8c1-0.2,2.1-0.4,3.1-0.6c0.2,0,0.6,0,0.5-0.3
		c0-0.3-0.1-0.6-0.3-0.9c-0.1-0.1-0.4,0.1-0.5,0.4c-0.1,0.2-0.2,0-0.3-0.1C-116.3,451.2-116.6,451.2-116.6,451.4z"/>
	<path class="st0" d="M-126.8,452.8c0-0.2-0.2-0.5-0.3-0.3c-0.3,0.3-0.5,0.4-0.8,0c0,0-0.3,0-0.3,0c-0.1,1-0.9,0.5-1.3,0.5
		c-0.4,0-0.9-0.1-1,0.6l3.3,0C-126.6,453.6-126.9,453.1-126.8,452.8z"/>
	<path class="st0" d="M-147.2,450.5C-147.2,450.5-147.2,450.5-147.2,450.5c0.1-0.2,0-0.3-0.2-0.3c-1-0.3-2-0.7-3-1
		c-0.2,0-0.4,0.1-0.4,0.3c-0.1,0.1,0.1,0.2,0.2,0.2c1,0.4,2,0.7,3.1,1.1C-147.4,450.9-147.3,450.7-147.2,450.5z"/>
	<path class="st0" d="M-135.8,452.7c0.2-0.1,0.3-0.3,0.2-0.5c-0.1-0.4-0.3-0.1-0.5-0.1c-0.5,0.1-0.9,0.2-1.1-0.4
		c-0.1-0.2-0.5-0.3-0.7-0.2s-0.1,0.4-0.2,0.6c-0.1,1,0.6,0.5,1,0.7C-136.6,452.8-136.2,452.8-135.8,452.7
		C-135.8,452.7-135.8,452.7-135.8,452.7z"/>
	<path class="st0" d="M-130.9,453c0.2-0.1,0.3-0.3,0.2-0.5c-0.1-0.2-0.3-0.1-0.4,0c-0.5,0.2-0.9,0.4-1.1-0.3
		c-0.1-0.2-0.5-0.2-0.7-0.1c-0.2,0.1-0.1,0.3-0.1,0.5c-0.1,0.8,0.4,0.7,0.8,0.7C-131.9,453.3-131.4,453.2-130.9,453
		C-130.9,453-130.9,453-130.9,453z"/>
	<path class="st0" d="M-161,452.1c0.5,0,0.4-0.6,0.7-0.9c-0.1-0.5-0.6-0.9-1.1-0.8c-0.8,0.1,0.2,0.8-0.3,1.2
		C-161.9,451.7-161.2,452-161,452.1z"/>
	<path class="st0" d="M-116,450.8c0.3,0,0.7,0.1,0.7-0.4c0-0.3,0.1-0.7-0.4-0.8c-0.2,0.2-0.8-0.1-0.7,0.5
		C-116.4,450.4-116.5,450.9-116,450.8z"/>
</g>
</svg>
