<svg id="Group_368" data-name="Group 368" xmlns="http://www.w3.org/2000/svg" width="143.648" height="116.702" viewBox="0 0 143.648 116.702">
  <defs>
    <style>
      .cls-1 {
        fill: #1674ba;
      }
    </style>
  </defs>
  <g id="Group_327" data-name="Group 327" transform="translate(0 0.095)">
    <path id="Path_2212" data-name="Path 2212" class="cls-1" d="M868.462,452.528l-18.134-21.483,47.216-39.855,18.134,21.484Zm-12.478-21.005,12.956,15.35L910.022,412.2l-12.956-15.349Z" transform="translate(-850.328 -391.19)"/>
  </g>
  <g id="Group_328" data-name="Group 328" transform="translate(81.022 0)">
    <path id="Path_2213" data-name="Path 2213" class="cls-1" d="M1010.8,457.311,971.452,410.7l23.282-19.652,39.344,46.611Zm-33.688-46.133,34.166,40.477,17.149-14.475L994.256,396.7Z" transform="translate(-971.452 -391.048)"/>
  </g>
  <g id="Group_329" data-name="Group 329" transform="translate(35.584 79.588)">
    <path id="Path_2214" data-name="Path 2214" class="cls-1" d="M912.739,528.44q-.389,0-.784-.033a9.206,9.206,0,0,1-8.4-9.949,9.206,9.206,0,1,1,9.182,9.982Zm-.017-14.4a5.22,5.22,0,0,0-5.165,4.756,5.191,5.191,0,0,0,4.737,5.611,5.192,5.192,0,1,0,.874-10.347Q912.944,514.041,912.722,514.041Z" transform="translate(-903.524 -510.028)"/>
  </g>
  <g id="Group_330" data-name="Group 330" transform="translate(46.38 92.566)">
    <path id="Path_2215" data-name="Path 2215" class="cls-1" d="M928.877,547.843c-.259,0-.52-.011-.783-.033a9.2,9.2,0,1,1,.783.033Zm-.016-14.4a5.2,5.2,0,1,0,.446.019C929.157,533.45,929.009,533.444,928.861,533.444Z" transform="translate(-919.664 -529.43)"/>
  </g>
  <g id="Group_331" data-name="Group 331" transform="translate(77.348 81.103)">
    <path id="Path_2216" data-name="Path 2216" class="cls-1" d="M977.058,526.787a2.006,2.006,0,0,1-1.517-.692l-9.091-10.481a2.007,2.007,0,0,1,3.033-2.63l9.09,10.481a2.006,2.006,0,0,1-1.515,3.322Z" transform="translate(-965.96 -512.293)"/>
  </g>
  <g id="Group_332" data-name="Group 332" transform="translate(83.563 66.591)">
    <path id="Path_2217" data-name="Path 2217" class="cls-1" d="M991.235,510.069a2,2,0,0,1-1.489-.661l-13.977-15.458a2.007,2.007,0,0,1,2.978-2.692l13.976,15.458a2.007,2.007,0,0,1-1.488,3.353Z" transform="translate(-975.251 -490.598)"/>
  </g>
  <g id="Group_333" data-name="Group 333" transform="translate(24.065 67.032)">
    <path id="Path_2218" data-name="Path 2218" class="cls-1" d="M895.519,509.669q-.389,0-.784-.033a9.206,9.206,0,0,1-8.4-9.949,9.206,9.206,0,1,1,9.182,9.982Zm-.015-14.4a5.22,5.22,0,0,0-5.167,4.755,5.194,5.194,0,0,0,4.737,5.612,5.193,5.193,0,0,0,.875-10.348C895.8,495.277,895.65,495.27,895.5,495.27Z" transform="translate(-886.304 -491.257)"/>
  </g>
  <g id="Group_334" data-name="Group 334" transform="translate(17.483 21.081)">
    <path id="Path_2219" data-name="Path 2219" class="cls-1" d="M930.564,518.184a10.4,10.4,0,0,1-7.911-3.779l-5.4-6.385,1.172-1.3a5.183,5.183,0,0,0-6.634-7.844l-1.478.939-3.971-4.694,1.219-1.3a5.138,5.138,0,0,0,1.383-3.1,5.187,5.187,0,0,0-8.035-4.764l-1.489.987-4.04-4.777.987-1.283a5.189,5.189,0,0,0-6.171-7.925l-1.4.607-12.331-15.346L918.7,422.563l8.38,10.431-13.1,11.078c-2.577,2.179-3.127,5.779-1.227,8.026a4.988,4.988,0,0,0,3.9,1.72,6.583,6.583,0,0,0,4.224-1.6l9.141-7.731,16.837,1.424,24.133,28.533a10.532,10.532,0,0,1,2.542,7.138,8.94,8.94,0,0,1-3.137,6.638,8.8,8.8,0,0,1-5.762,2.075h0a9.806,9.806,0,0,1-2.371-.294,9.089,9.089,0,0,1-3.11,7.6,8.8,8.8,0,0,1-5.765,2.077,9.729,9.729,0,0,1-2.052-.221,9.149,9.149,0,0,1-3.068,7.957,8.811,8.811,0,0,1-5.772,2.079,9.9,9.9,0,0,1-3.01-.471q0,.223,0,.444a8.941,8.941,0,0,1-3.137,6.638A8.812,8.812,0,0,1,930.564,518.184Zm-8.1-10.212,3.249,3.84a6.4,6.4,0,0,0,4.846,2.358,4.847,4.847,0,0,0,3.18-1.13,4.973,4.973,0,0,0,1.718-3.7,6.526,6.526,0,0,0-1.6-4.414l-5.3-6.258,3.059-2.6,6.01,7.052a6.4,6.4,0,0,0,4.851,2.363,4.847,4.847,0,0,0,3.18-1.13c2.2-1.857,2.287-5.451.2-8.012l2.994-2.666a6.391,6.391,0,0,0,4.516,1.993,4.835,4.835,0,0,0,3.173-1.128c2.135-1.8,2.3-5.229.37-7.794L960,484.172a6.394,6.394,0,0,0,4.629,2.112,4.834,4.834,0,0,0,3.17-1.126,4.971,4.971,0,0,0,1.717-3.7,6.526,6.526,0,0,0-1.595-4.415l-23.06-27.266-13.525-1.143-7.869,6.656a10.6,10.6,0,0,1-6.816,2.548,9.059,9.059,0,0,1-6.961-3.142c-3.329-3.937-2.565-10.075,1.7-13.683l10.109-8.551-3.355-4.175-36.1,30.471,8.048,10.016a9.2,9.2,0,0,1,10.484,12.875,9.1,9.1,0,0,1,3.968-.54,9.217,9.217,0,0,1,8.4,9.948,9.12,9.12,0,0,1-.95,3.367,9.2,9.2,0,0,1,10.474,13.554Z" transform="translate(-876.464 -422.563)"/>
  </g>
  <g id="Group_335" data-name="Group 335" transform="translate(48.635 21.18)">
    <path id="Path_2220" data-name="Path 2220" class="cls-1" d="M980.571,473.815l-20.293-23.994-13.525-1.143-7.869,6.656a10.6,10.6,0,0,1-6.816,2.548,9.061,9.061,0,0,1-6.96-3.142c-3.329-3.937-2.565-10.075,1.7-13.683l14.5-12.263,13.024-.26,7.631-5.822,33.4,39.567Zm-35.138-29.277,16.837,1.424,18.874,22.316,8.46-6.6-28.244-33.461-5.638,4.3-12.911.258L929.4,444.12c-2.577,2.18-3.127,5.78-1.227,8.027a4.99,4.99,0,0,0,3.9,1.72,6.582,6.582,0,0,0,4.224-1.6Z" transform="translate(-923.035 -422.711)"/>
  </g>
</svg>
