<svg xmlns="http://www.w3.org/2000/svg" width="125.559" height="127.872" viewBox="0 0 125.559 127.872">
  <defs>
    <style>
      .cls-1 {
        fill: #1674ba;
      }
    </style>
  </defs>
  <g id="Group_369" data-name="Group 369" transform="translate(-14.493 -15.053)">
    <g id="Group_302" data-name="Group 302" transform="translate(14.493 86.951)">
      <path id="Path_2188" data-name="Path 2188" class="cls-1" d="M864.02,866.962a2.006,2.006,0,0,1-2.007-2.007V820.361a2.006,2.006,0,0,1,1.363-1.9l21.733-7.365a2.005,2.005,0,0,1,2.471,1.07l15.049,33.119a2.006,2.006,0,0,1-.912,2.616l-36.782,18.841A2.005,2.005,0,0,1,864.02,866.962Zm2.007-45.163v39.874L898.183,845.2l-13.506-29.722Z" transform="translate(-862.013 -810.987)"/>
    </g>
    <g id="Group_303" data-name="Group 303" transform="translate(38.818 84.055)">
      <path id="Path_2189" data-name="Path 2189" class="cls-1" d="M955.972,833.588a5.707,5.707,0,0,1-1.541-.189c-2.393-.684-18.215-6.654-18.888-6.909a2.007,2.007,0,0,1,1.418-3.755c4.537,1.713,16.717,6.274,18.572,6.8a7.219,7.219,0,0,0,4.972-1.669,2.41,2.41,0,0,0,1.019-2.3,5.471,5.471,0,0,0-3.335-4.4c-.045-.015-.09-.032-.134-.05-.132-.055-13.271-5.535-23.292-8.985a24.371,24.371,0,0,0-16.589-.066l-17.021,7.058a2.007,2.007,0,0,1-1.538-3.708l16.972-7.036c.3-.136,8.656-3.771,19.483-.044,9.861,3.395,22.661,8.713,23.49,9.059A9.553,9.553,0,0,1,965.5,825a6.469,6.469,0,0,1-2.353,5.9A11.666,11.666,0,0,1,955.972,833.588Z" transform="translate(-898.378 -806.659)"/>
    </g>
    <g id="Group_304" data-name="Group 304" transform="translate(49.691 95.458)">
      <path id="Path_2190" data-name="Path 2190" class="cls-1" d="M958.815,856.176c-4.573,0-10.093-1.47-17.221-5.809-14.542-8.572-23.665-1.986-23.755-1.919a2.006,2.006,0,1,1-2.4-3.215c.457-.341,11.375-8.24,28.218,1.691,13.307,8.1,19.571,5.155,26.2,2.038.573-.269,1.143-.538,1.716-.8,7.032-3.2,25.074-10.894,26.54-11.518a5.948,5.948,0,0,0,2.811-3.452c.227-1.233-.317-2.625-1.615-4.137-.031-.037-.062-.075-.091-.114-.184-.227-2.127-2.419-6.579-.373-6.218,2.857-27.913,10.032-28.833,10.337a2.007,2.007,0,1,1-1.259-3.811c.223-.074,22.4-7.409,28.416-10.172,6-2.756,10.064-.213,11.433,1.569,2.107,2.474,2.937,4.985,2.467,7.466-.749,3.952-4.506,6.043-4.933,6.268-.05.026-.1.051-.152.073-.192.082-19.294,8.223-26.546,11.519-.557.253-1.112.514-1.669.777C967.887,854.323,963.946,856.175,958.815,856.176Z" transform="translate(-914.632 -823.705)"/>
    </g>
    <g id="Group_305" data-name="Group 305" transform="translate(66.326 42.592)">
      <path id="Path_2191" data-name="Path 2191" class="cls-1" d="M1006.559,801.75a2.007,2.007,0,0,1-2.007-2.007V772.819c0-7.767-2.915-13.819-8.664-17.989-9.987-7.243-26.622-7.475-37.2-4.018-13.89,4.539-15.114,19.352-15.172,20.227v16.189a2.007,2.007,0,0,1-4.014,0V770.979c0-.033,0-.066,0-.1.009-.184,1.1-18.381,17.936-23.884,11.524-3.766,29.742-3.438,40.806,4.584,6.752,4.9,10.321,12.24,10.321,21.237v26.924A2.007,2.007,0,0,1,1006.559,801.75Z" transform="translate(-939.5 -744.673)"/>
    </g>
    <g id="Group_306" data-name="Group 306" transform="translate(90.556 33.279)">
      <path id="Path_2192" data-name="Path 2192" class="cls-1" d="M993.467,744.592a2.016,2.016,0,0,1-.389-.037,40.418,40.418,0,0,0-6.965-.5,65.87,65.87,0,0,0-8.134.521,2.006,2.006,0,0,1-2.255-1.991v-9.828a2.006,2.006,0,0,1,2.007-2.007h15.738a2.007,2.007,0,0,1,2.007,2.007v9.828a2.007,2.007,0,0,1-2.007,2.007Zm-13.731-9.828v5.584c2.166-.2,4.3-.306,6.376-.306,2.236,0,4.043.119,5.348.25v-5.528Z" transform="translate(-975.723 -730.75)"/>
    </g>
    <g id="Group_307" data-name="Group 307" transform="translate(82.212 15.053)">
      <path id="Path_2193" data-name="Path 2193" class="cls-1" d="M989.338,725.743H973.6a2.007,2.007,0,0,1-1.755-1.034L963.5,709.658a2.006,2.006,0,0,1,.417-2.468c.168-.15,4.177-3.686,9.122-3.686a9.9,9.9,0,0,1,5.428,1.6,7.1,7.1,0,0,0,3.183.658,19.174,19.174,0,0,0,7.111-1.729,4.206,4.206,0,0,1,1.692-.335c3.153,0,7.711,3.181,8.534,6.893a2.007,2.007,0,0,1-.243,1.474l-7.693,12.709A2.007,2.007,0,0,1,989.338,725.743Zm-14.556-4.013h13.425l6.61-10.921c-.811-1.5-3.108-3.094-4.361-3.094a.509.509,0,0,0-.11.009,22.671,22.671,0,0,1-8.694,2.055,10.979,10.979,0,0,1-5.113-1.151,2,2,0,0,1-.176-.1,5.879,5.879,0,0,0-3.322-1.005,10.093,10.093,0,0,0-5.174,1.738Z" transform="translate(-963.25 -703.504)"/>
    </g>
    <g id="Group_311" data-name="Group 311" transform="translate(92.506 53.458)">
      <g id="Group_308" data-name="Group 308" transform="translate(0 4.088)">
        <path id="Path_2194" data-name="Path 2194" class="cls-1" d="M987.832,794.617a14.065,14.065,0,0,1-3.176-.381c-.061-.014-.121-.031-.181-.052a9.02,9.02,0,0,1-5.815-7.138,2.007,2.007,0,0,1,3.979-.521,4.909,4.909,0,0,0,3.045,3.828c1.1.248,3.575.61,5.114-.6a4.926,4.926,0,0,0,1.915-3.6,7.816,7.816,0,0,0-.576-2.928c-.468-1.118-1.818-1.235-4.582-1.205-3.016.019-7.586.061-8.717-4.818a8.857,8.857,0,0,1,1.369-6.949c1.511-1.985,3.933-3.062,7.2-3.2,2.735-.213,8,.793,8.731,6.136a2.007,2.007,0,0,1-3.977.542c-.393-2.891-4.056-2.7-4.473-2.674l-.079.005c-2.022.08-3.433.618-4.193,1.6a4.974,4.974,0,0,0-.664,3.641c.334,1.443,1.142,1.735,4.772,1.7,2.848-.022,6.755-.054,8.31,3.652a11.8,11.8,0,0,1,.894,4.545,8.954,8.954,0,0,1-3.446,6.7A8.669,8.669,0,0,1,987.832,794.617Z" transform="translate(-978.638 -767.029)"/>
      </g>
      <g id="Group_309" data-name="Group 309" transform="translate(7.196 27.648)">
        <path id="Path_2195" data-name="Path 2195" class="cls-1" d="M991.4,810.333a2.007,2.007,0,0,1-2.007-2.007v-4.069a2.007,2.007,0,1,1,4.013,0v4.069A2.006,2.006,0,0,1,991.4,810.333Z" transform="translate(-989.396 -802.25)"/>
      </g>
      <g id="Group_310" data-name="Group 310" transform="translate(7.196)">
        <path id="Path_2196" data-name="Path 2196" class="cls-1" d="M991.4,769a2.007,2.007,0,0,1-2.007-2.007v-4.069a2.007,2.007,0,1,1,4.013,0v4.069A2.006,2.006,0,0,1,991.4,769Z" transform="translate(-989.396 -760.917)"/>
      </g>
    </g>
  </g>
</svg>
