<?xml version="1.0" encoding="utf-8"?>
<!-- Generator: Adobe Illustrator 19.0.0, SVG Export Plug-In . SVG Version: 6.00 Build 0)  -->
<svg version="1.1" id="Layer_1" xmlns="http://www.w3.org/2000/svg" xmlns:xlink="http://www.w3.org/1999/xlink" x="0px" y="0px"
	 viewBox="-333 222 174.4 151.3" style="enable-background:new -333 222 174.4 151.3;" xml:space="preserve">
<style type="text/css">
	.st0{fill:#FFFFFF;}
	.st1{fill:#E6E6E6;}
	.st2{fill:#888888;}
	.st3{fill:#231F20;}
	.st4{fill:#2E65DC;}
	.st5{fill:#2156B5;}
	.st6{fill:#4A8AF4;}
</style>
<g>
	<g id="XMLID_958_">
		<path id="XMLID_973_" class="st0" d="M-274.6,275.2c0.2-0.7,0.8-1.2,1.5-1.2h6.5v-11.1h-6.5c-0.7,0-1.3-0.5-1.5-1.2
			c-0.5-1.9-1.2-3.6-2.2-5.3c-0.3-0.6-0.2-1.4,0.3-1.9l4.6-4.6l0,0l-7.8-7.8l-4.6,4.6c-0.5,0.5-1.3,0.6-1.9,0.3
			c-1.6-0.9-3.4-1.6-5.3-2.2c-0.7-0.2-1.2-0.8-1.2-1.5v-6.5h-11.1v6.5c0,0.7-0.5,1.3-1.2,1.5c-1.9,0.5-3.6,1.2-5.3,2.2
			c-0.6,0.3-1.4,0.2-1.9-0.3l-4.6-4.6l0,0l-7.8,7.8l0,0l4.6,4.6c0.5,0.5,0.6,1.3,0.3,1.9c-0.9,1.6-1.6,3.4-2.2,5.3
			c-0.2,0.7-0.8,1.2-1.5,1.2h-6.5v11.2h6.5c0.7,0,1.3,0.5,1.5,1.2c0.5,1.9,1.2,3.6,2.2,5.3c0.3,0.6,0.2,1.4-0.3,1.9l-4.6,4.6l0,0
			l7.8,7.8l4.6-4.6c0.5-0.5,1.3-0.6,1.9-0.3c1.6,0.9,3.4,1.6,5.3,2.2c0.7,0.2,1.2,0.8,1.2,1.5v6.5h11.1v-6.5c0-0.7,0.5-1.3,1.2-1.5
			c1.9-0.5,3.6-1.2,5.3-2.2c0.6-0.3,1.4-0.2,1.9,0.3l4.6,4.6l7.8-7.8l-4.6-4.6c-0.5-0.5-0.6-1.3-0.3-1.9
			C-275.9,278.8-275.2,277.1-274.6,275.2z M-298.2,282c-7.4,0-13.4-6-13.4-13.4s6-13.4,13.4-13.4s13.4,6,13.4,13.4
			S-290.8,282-298.2,282z"/>
		<g id="XMLID_968_">
			<path id="XMLID_972_" class="st1" d="M-279.8,294.8l3-3c-2.5-0.1-4.8-0.5-7.1-1.2L-279.8,294.8z"/>
			<path id="XMLID_971_" class="st1" d="M-311.6,268.5c0-2.6,0.8-5.1,2.1-7.1c-0.2-1.6-0.3-3.1-0.3-4.7c0-3.6,0.5-7.1,1.6-10.4
				c-0.6,0.3-1.2,0.6-1.8,0.9c-0.6,0.3-1.4,0.2-1.9-0.3l-4.6-4.6l0,0l-7.8,7.8l0,0l4.6,4.6c0.5,0.5,0.6,1.3,0.3,1.9
				c-0.9,1.6-1.6,3.4-2.2,5.3c-0.2,0.7-0.8,1.2-1.5,1.2h-6.5v11h6.5c0.7,0,1.3,0.5,1.5,1.2c0.5,1.9,1.2,3.6,2.2,5.3
				c0.3,0.6,0.2,1.4-0.3,1.9l-4.6,4.6l0,0l7.8,7.8l4.6-4.6c0.5-0.5,1.3-0.6,1.9-0.3c1.6,0.9,3.4,1.6,5.3,2.2
				c0.7,0.2,1.2,0.8,1.2,1.5v6.5h11.1v-6.5c0-0.7,0.5-1.3,1.2-1.5c1.9-0.5,3.6-1.2,5.2-2.2c-4.9-1.7-9.3-4.5-12.9-8
				C-306.1,281.4-311.6,275.6-311.6,268.5z"/>
			<path id="XMLID_970_" class="st1" d="M-309.7,260.5c0,0-0.4-16.3,17-18.4v-5.2h-11.1v6.5l-2.9,2.1l-3.5,1.6l-4.4,9.3
				L-309.7,260.5z"/>
			<path id="XMLID_969_" class="st1" d="M-286.2,289.9L-286.2,289.9c0.8,0.3,1.5,0.5,2.3,0.7l-0.5-0.5
				C-284.9,289.7-285.6,289.6-286.2,289.9z"/>
		</g>
		<g id="XMLID_963_">
			<polyline id="XMLID_967_" class="st2" points="-324.4,286.9 -324.4,287 -316.6,294.8 -314.5,292.7 -321.7,285.5 -321.7,285.5 			
				"/>
			<path id="XMLID_966_" class="st2" d="M-327,272.6V263h-2.7v11.1h2.7"/>
			<path id="XMLID_965_" class="st2" d="M-310.3,289.8c0.1,0,0.2,0,0.2,0.1c1.6,0.9,3.4,1.6,5.3,2.2c0.7,0.2,1.2,0.8,1.2,1.5v6.5
				h11.1v-1.4h-8.3v-6.5c0-0.7-0.5-1.3-1.2-1.5"/>
			<path id="XMLID_964_" class="st2" d="M-312,290.2l-2.5,2.5l0.7,0.7l3.5-3.5"/>
		</g>
		<path class="st3" d="M-291.7,301.1h-13.1v-7.5c0-0.3-0.2-0.5-0.4-0.6c-1.9-0.5-3.8-1.3-5.5-2.3c-0.2-0.1-0.5-0.1-0.7,0.1l-5.3,5.3
			l-8.8-8.8v-0.8l0.3-0.3l4.6-4.6c0.2-0.2,0.2-0.5,0.1-0.7c-0.9-1.7-1.7-3.5-2.3-5.5c-0.1-0.3-0.3-0.4-0.6-0.4l0,0h-7.5v-13.1h7.5
			c0.3,0,0.5-0.2,0.6-0.4c0.5-1.9,1.3-3.8,2.3-5.5c0.1-0.2,0.1-0.5-0.1-0.7l-4.9-4.9v-0.8l0.3-0.3l8.1-8.1h0.2l0.4-0.2l5.1,5.1
			c0.2,0.2,0.5,0.2,0.7,0.1c1.7-1,3.5-1.7,5.5-2.3c0.3-0.1,0.4-0.3,0.4-0.6v-7.5h13.1v7.5c0,0.3,0.2,0.5,0.4,0.6
			c1.9,0.5,3.8,1.3,5.5,2.3c0.2,0.1,0.5,0.1,0.7-0.1l5.3-5.3l8.8,8.8v0.8l-0.3,0.3l-4.6,4.6c-0.2,0.2-0.2,0.5-0.1,0.7
			c0.9,1.7,1.7,3.5,2.3,5.5c0.1,0.3,0.3,0.4,0.6,0.4l0,0h7.5v13.2h-7.5l0,0c-0.3,0-0.5,0.2-0.6,0.4l0,0c-0.5,1.9-1.3,3.8-2.3,5.5
			c-0.1,0.2-0.1,0.5,0.1,0.7l5.3,5.3l-9.2,9.3l-5.3-5.3c-0.2-0.2-0.5-0.2-0.7-0.1c-1.7,0.9-3.5,1.7-5.5,2.3
			c-0.3,0.1-0.4,0.3-0.4,0.6V301.1z M-302.7,299.1h9.1v-5.5c0-1.2,0.8-2.2,1.9-2.5c1.8-0.5,3.5-1.2,5-2.1c1-0.6,2.3-0.4,3.1,0.4
			l3.9,3.9l6.4-6.4l-3.9-3.9c-0.8-0.8-1-2.1-0.4-3.1c0.9-1.6,1.6-3.3,2.1-5c0.3-1.1,1.3-1.9,2.5-1.9l0,0h5.5v-9.1h-5.5l0,0
			c-1.2,0-2.2-0.8-2.5-1.9c-0.5-1.8-1.2-3.5-2.1-5c-0.6-1-0.4-2.3,0.4-3.1l3.9-3.9l-6.4-6.4l-3.9,3.9c-0.8,0.8-2.1,1-3.1,0.4
			c-1.6-0.9-3.3-1.6-5-2.1c-1.1-0.3-1.9-1.3-1.9-2.5v-5.5h-9.1v5.5c0,1.2-0.8,2.2-1.9,2.5c-1.8,0.5-3.5,1.2-5,2.1
			c-1,0.6-2.3,0.4-3.1-0.4l-3.9-3.9l-6.4,6.4l3.9,3.9c0.8,0.8,1,2.1,0.4,3.1c-0.9,1.6-1.6,3.3-2.1,5c-0.3,1.1-1.3,1.9-2.5,1.9h-5.5
			v9.1h5.5c1.2,0,2.2,0.8,2.5,1.9c0.5,1.8,1.2,3.5,2.1,5c0.6,1,0.4,2.3-0.4,3.1l-3.9,3.9l6.4,6.4l3.9-3.9c0.8-0.8,2.1-1,3.1-0.4
			c1.6,0.9,3.3,1.6,5,2.1c1.1,0.3,1.9,1.3,1.9,2.5V299.1z M-298.2,283c-8,0-14.4-6.5-14.4-14.4c0-8,6.5-14.4,14.4-14.4
			s14.4,6.5,14.4,14.4S-290.2,283-298.2,283z M-298.2,256.1c-6.8,0-12.4,5.6-12.4,12.4s5.6,12.4,12.4,12.4s12.4-5.6,12.4-12.4
			S-291.3,256.1-298.2,256.1z"/>
		<path class="st3" d="M-298.2,283c-8,0-14.4-6.5-14.4-14.4c0-8,6.5-14.4,14.4-14.4s14.4,6.5,14.4,14.4S-290.2,283-298.2,283z
			 M-298.2,256.1c-6.8,0-12.4,5.6-12.4,12.4s5.6,12.4,12.4,12.4s12.4-5.6,12.4-12.4S-291.3,256.1-298.2,256.1z"/>
	</g>
	<path id="XMLID_69_" class="st1" d="M-183.6,353.2L-183.6,353.2c-4.2,0-7.5-3.4-7.5-7.5v-51.9h15.1v51.9
		C-176.1,349.8-179.4,353.2-183.6,353.2z"/>
	<path id="XMLID_68_" class="st2" d="M-177.1,346.5c-0.8,1.2-2.1,1.9-3.6,1.9c-1.3,0-2.5-0.6-3.3-1.6c-0.3-0.4-0.6-0.8-0.7-1.3
		c-0.1-0.4-0.2-0.9-0.2-1.4v-1v-1.7v-47.7h-6.2v51.9c0,4.2,3.4,7.5,7.5,7.5c1.3,0,2.5-0.3,3.5-0.9l0,0c4-1,4-6.9,4-6.9
		C-176.4,345.9-176.8,346.2-177.1,346.5z"/>
	<g id="XMLID_56_">
		<path id="XMLID_60_" class="st0" d="M-169.1,342.6h-84.2c-4.1,0-7.4-3.3-7.4-7.4v-65.8c0-4.1,3.3-7.4,7.4-7.4h84.2
			c4.1,0,7.4,3.3,7.4,7.4v65.8C-161.6,339.3-165,342.6-169.1,342.6z"/>
		<path id="XMLID_59_" class="st1" d="M-175.1,342.6h-78.1c-4.1,0-7.4-3.3-7.4-7.4v-65.8c0-4.1,3.3-7.4,7.4-7.4h78.1
			c4.1,0,7.4,3.3,7.4,7.4v65.8C-167.7,339.3-171,342.6-175.1,342.6z"/>
		<path id="XMLID_58_" class="st1" d="M-177.8,337h-78.1c-4.1,0-7.4-3.3-7.4-7.4v-65.8c0-4.1,3.3-7.4,7.4-7.4h78.1
			c4.1,0,7.4,3.3,7.4,7.4v65.8C-170.4,333.6-173.7,337-177.8,337z"/>
		<path class="st3" d="M-169.1,343.6h-84.2c-4.7,0-8.4-3.8-8.4-8.4v-65.8c0-4.7,3.8-8.4,8.4-8.4h84.2c4.7,0,8.4,3.8,8.4,8.4v65.8
			C-160.6,339.8-164.4,343.6-169.1,343.6z M-253.3,262.9c-3.6,0-6.4,2.9-6.4,6.4v65.8c0,3.6,2.9,6.4,6.4,6.4h84.2
			c3.6,0,6.4-2.9,6.4-6.4v-65.8c0-3.6-2.9-6.4-6.4-6.4L-253.3,262.9L-253.3,262.9z"/>
	</g>
	<g id="XMLID_52_">
		<path id="XMLID_55_" class="st4" d="M-178.8,333.4h-84.1c-4.1,0-7.4-3.3-7.4-7.4v-65.8c0-4.1,3.3-7.4,7.4-7.4h84.2
			c4.1,0,7.4,3.3,7.4,7.4V326C-171.3,330.1-174.6,333.4-178.8,333.4z"/>
		<path id="XMLID_54_" class="st5" d="M-184.8,333.4h-78.1c-4.1,0-7.4-3.3-7.4-7.4v-65.8c0-4.1,3.3-7.4,7.4-7.4h78.1
			c4.1,0,7.4,3.3,7.4,7.4V326C-177.4,330.1-180.7,333.4-184.8,333.4z"/>
		<path class="st3" d="M-178.8,334.4h-84.1c-4.7,0-8.4-3.8-8.4-8.4v-65.8c0-4.7,3.8-8.4,8.4-8.4h84.2c4.7,0,8.4,3.8,8.4,8.4V326
			C-170.3,330.6-174.1,334.4-178.8,334.4z M-262.9,253.8c-3.6,0-6.4,2.9-6.4,6.4V326c0,3.6,2.9,6.4,6.4,6.4h84.2
			c3.6,0,6.4-2.9,6.4-6.4v-65.8c0-3.6-2.9-6.4-6.4-6.4L-262.9,253.8L-262.9,253.8z"/>
	</g>
	<g id="XMLID_48_">
		<path id="XMLID_51_" class="st6" d="M-188.2,324.4h-84.3c-4.1,0-7.5-3.3-7.5-7.5V251c0-4.1,3.3-7.5,7.5-7.5h84.3
			c4.1,0,7.5,3.3,7.5,7.5v65.9C-180.8,321.1-184.1,324.4-188.2,324.4z"/>
		<path id="XMLID_2_" class="st4" d="M-183.9,323.1c-3.7,0.5-4.4-3.4-4.6-5.7v-1.8l0,0l0,0v-10.4l-2.3-2.3l-2.2,18.9l-2.3-1.2
			c-32,0-58.3-19.1-61.2-43.5h10.1c-10.3-15.6,2.3-33.7,2.3-33.7h-28.5c-4.1,0-7.5,3.3-7.5,7.5V317c0,4.1,3.3,7.5,7.5,7.5h82.4l0,0
			c0.8,0,1.5,0,2.1,0h0.1l0,0C-184.7,324.2-183.9,323.1-183.9,323.1z"/>
		<path class="st3" d="M-188.4,325.2h-84.2c-4.7,0-8.4-3.8-8.4-8.4V251c0-4.7,3.8-8.4,8.4-8.4h84.2c4.7,0,8.4,3.8,8.4,8.4v65.8
			C-180,321.4-183.8,325.2-188.4,325.2z M-272.6,244.6c-3.6,0-6.4,2.9-6.4,6.4v65.8c0,3.6,2.9,6.4,6.4,6.4h84.2
			c3.6,0,6.4-2.9,6.4-6.4V251c0-3.6-2.9-6.4-6.4-6.4L-272.6,244.6L-272.6,244.6z"/>
	</g>
	<path id="XMLID_47_" class="st0" d="M-176.1,342.4v3.2c0,4.2-3.4,7.5-7.5,7.5l0,0c-4.2,0-7.5-3.4-7.5-7.5v-5.7v-9.2v-9.2v-18.8
		l-25.8-25.6h-34.8l-3.8-6.8c-1.1-1.9-3-3.1-5.2-3.2c-0.1,0-0.2,0-0.4,0h-9.3h-9.7h-11.7c-4,0-7.3,3.2-7.3,7.3v76.2c0,4.4,3.6,8,8,8
		h73.5h26.4h11.9c4.4,0,8-3.6,8-8v-8.1h-4.8V342.4z"/>
	<path id="XMLID_46_" class="st1" d="M-177,349.3c-1.3,2.3-3.8,3.9-6.6,3.9l0,0c-2.9,0-5.4-1.6-6.6-4c-6.8-0.1-13.5-0.3-20.3-0.6
		c-21.3-1-44.7-5.1-58.4-23.2c-12.1-16-14.7-40.6-5.2-58.4h-5.9h-11.7c-4,0-7.3,3.2-7.3,7.3v76.2c0,4.4,3.6,8,8,8h73.5h26.4h11.9
		c4.4,0,8-3.6,8-8v-1.3C-173.2,349.3-175.1,349.3-177,349.3z"/>
	<g id="XMLID_44_">
		<path id="XMLID_45_" class="st2" d="M-294.6,350.5v-76.2c0-4,3.2-7.3,7.3-7.3h-3.7c-4,0-7.3,3.2-7.3,7.3v76.2c0,4.4,3.6,8,8,8h3.7
			C-291.1,358.5-294.6,354.9-294.6,350.5z"/>
	</g>
	<path class="st3" d="M-179.3,359.5h-111.8c-4.9,0-9-4-9-9v-76.2c0-4.6,3.7-8.3,8.3-8.3h30.7c0.1,0,0.2,0,0.3,0h0.1
		c2.5,0.1,4.8,1.5,6,3.7l3.5,6.3h34.2c0.3,0,0.5,0.1,0.7,0.3l25.7,25.7c0.2,0.2,0.3,0.4,0.3,0.7v42.9c0,3.6,2.9,6.5,6.5,6.5
		s6.5-2.9,6.5-6.5v-3c0-0.3,0.1-0.5,0.3-0.7s0.4-0.3,0.7-0.3h4.8c0.6,0,1,0.4,1,1v7.8C-170.3,355.5-174.3,359.5-179.3,359.5z
		 M-291.7,268c-3.4,0-6.3,2.8-6.3,6.3v76.2c0,3.8,3.1,7,7,7h111.8c3.8,0,7-3.1,7-7v-6.8h-2.8v2c0,4.7-3.8,8.5-8.5,8.5
		s-8.5-3.8-8.5-8.5v-42.5l-25.1-25.1h-34.4c-0.4,0-0.7-0.2-0.9-0.5l-3.8-6.8c-0.9-1.6-2.5-2.6-4.4-2.7h-0.2h-0.1L-291.7,268
		L-291.7,268z"/>
	<g>
		<path id="XMLID_1_" class="st1" d="M-191.1,302.8l-25.8-25.7V300c0,1.6,1.3,2.8,2.8,2.8L-191.1,302.8L-191.1,302.8z"/>
		<path class="st3" d="M-191.3,303.7h-22.9c-2.1,0-3.8-1.7-3.8-3.8V277c0-0.4,0.2-0.8,0.6-0.9c0.4-0.2,0.8-0.1,1.1,0.2l25.7,25.7
			c0.3,0.3,0.4,0.7,0.2,1.1C-190.6,303.5-190.9,303.7-191.3,303.7z M-216.1,279.4v20.5c0,1,0.8,1.8,1.8,1.8h20.5L-216.1,279.4z"/>
	</g>
</g>
</svg>
