<?xml version="1.0" encoding="utf-8"?>
<!-- Generator: Adobe Illustrator 19.0.0, SVG Export Plug-In . SVG Version: 6.00 Build 0)  -->
<svg version="1.1" id="Layer_1" xmlns="http://www.w3.org/2000/svg" xmlns:xlink="http://www.w3.org/1999/xlink" x="0px" y="0px"
	 viewBox="-408 286.3 24 24" style="enable-background:new -408 286.3 24 24;" xml:space="preserve">
<style type="text/css">
	.st0{display:none;}
	.st1{display:inline;stroke:#000000;stroke-miterlimit:10;}
	.st2{fill:#1E73AD;}
</style>
<g id="Layer_15" class="st0">
	<rect x="-415.8" y="209.8" class="st1" width="47" height="121"/>
</g>
<g id="Layer_3">
</g>
<g id="Layer_4">
</g>
<g id="Layer_5">
</g>
<g id="Layer_6">
</g>
<g id="Layer_8">
</g>
<g id="Layer_9">
</g>
<g id="Layer_10">
</g>
<g id="Layer_11">
</g>
<g id="Layer_12">
</g>
<g id="Layer_13">
</g>
<path class="st2" d="M-385.1,293.6L-385.1,293.6l0,8.7c0,0.7-0.6,1.3-1.3,1.3h-1.5v-0.3v-0.3h1.5c0.4,0,0.8-0.3,0.8-0.8v-8.7v-0.3
	v-0.2c0,0,0,0,0,0c0-0.4-0.3-0.7-0.8-0.7h0v0.7v0.3v0.3v7.4c0,0.7-0.6,1.3-1.3,1.3h-0.1V302v-0.3h0.1c0.4,0,0.8-0.3,0.8-0.8v-7.4
	v-0.3v-0.3v-0.7v-0.3v-0.2c0,0,0,0,0,0c0-0.4-0.3-0.7-0.8-0.7h-11.8c-0.2,0-0.3,0.1-0.4,0.1c-0.2,0.1-0.4,0.4-0.4,0.6v2h-0.3h-0.3
	v-2c0-0.4,0.2-0.8,0.5-1l-0.3-0.3l-0.6,0.6c-0.1,0.1-0.2,0.1-0.3,0c-0.2-0.1-0.5-0.2-0.7-0.3c-0.1,0-0.2-0.1-0.2-0.2v-0.9h-1.5v0.9
	c0,0.1-0.1,0.2-0.2,0.2c-0.3,0.1-0.5,0.2-0.7,0.3c-0.1,0-0.2,0-0.3,0l-0.6-0.6c0,0,0,0,0,0l-1.1,1.1v0l0.6,0.6
	c0.1,0.1,0.1,0.2,0,0.3c-0.1,0.2-0.2,0.5-0.3,0.7c0,0.1-0.1,0.2-0.2,0.2h-0.9v1.5h0.9c0.1,0,0.2,0.1,0.2,0.2
	c0.1,0.3,0.2,0.5,0.3,0.7c0,0.1,0,0.2,0,0.3l-0.6,0.6v0l1.1,1.1l0.6-0.6c0.1-0.1,0.2-0.1,0.3,0c0.2,0.1,0.5,0.2,0.7,0.3
	c0.1,0,0.2,0.1,0.2,0.2v0.9h0.5v7.2c0,0.8,0.6,1.4,1.4,1.4h15.6c0.8,0,1.4-0.6,1.4-1.4v-0.6h0v-0.8h0c0.4,0,0.8-0.3,0.8-0.8v-9.2
	C-384.3,294-384.7,293.6-385.1,293.6z M-391.5,296.1L-391.5,296.1l2.7,2.7h0h-2.6c-0.1,0-0.1-0.1-0.1-0.1V296.1z M-403.5,295.1v0.9
	c-0.9-0.1-1.6-0.9-1.6-1.8c0-1,0.8-1.9,1.9-1.9c0.9,0,1.7,0.7,1.8,1.5h-0.8C-402.9,293.8-403.5,294.4-403.5,295.1z M-385.7,305.7
	c0,0.5-0.4,0.8-0.8,0.8h-15.6c-0.5,0-0.8-0.4-0.8-0.8v-7.2V296v-0.9c0-0.4,0.3-0.7,0.7-0.7l0.8,0l0.5,0l0.3,0l0.3,0l0.8,0l0.3,0
	l0.3,0l0.1,0l0.7,0l0.2,0c0,0,0,0,0,0c0.1,0,0.2,0,0.3,0.1c0.1,0.1,0.2,0.1,0.2,0.2l0.5,0.9c0,0.1,0.1,0.1,0.2,0.1h4.6v2.9
	c0,0.4,0.3,0.7,0.7,0.7h2.9v2.5v0.3v0.3v0.7v0.3v0.3v0.7v0.3v0.3v0c0,0.4,0.2,0.7,0.4,1v0h0c0.2,0.2,0.5,0.4,0.9,0.4
	c0.4,0,0.8-0.2,1-0.5c0.1-0.1,0.2-0.3,0.2-0.5l0.3,0V305.7z"/>
</svg>
