<svg xmlns="http://www.w3.org/2000/svg" width="127.846" height="104.931" viewBox="0 0 127.846 104.931">
  <defs>
    <style>
      .cls-1, .cls-2, .cls-3 {
        fill: #1674ba;
      }

      .cls-1, .cls-3 {
        stroke: #fff;
        stroke-linecap: round;
        stroke-linejoin: round;
      }

      .cls-1 {
        stroke-width: 5.526px;
      }

      .cls-3 {
        stroke-width: 6px;
      }
    </style>
  </defs>
  <g id="Group_374" data-name="Group 374" transform="translate(-15.337 -27.644)">
    <g id="Group_247" data-name="Group 247" transform="translate(94.351 109.297)">
      <path id="Path_2152" data-name="Path 2152" class="cls-1" d="M699.785,1148.964" transform="translate(-699.785 -1148.964)"/>
    </g>
    <g id="Group_248" data-name="Group 248" transform="translate(34.697 73.307)">
      <path id="Path_2153" data-name="Path 2153" class="cls-2" d="M612.473,1137.371a1.847,1.847,0,0,1-1.848-1.84c-.022-5.258-.021-12.438-.02-18.918,0-3.016,0-5.88,0-8.327-.005-7.4,5.072-12.89,12.071-13.058,4.376-.1,8.893-.088,13.426.052,6.258.193,11.372,5.731,11.4,12.346.008,2.062.006,4.123,0,6.215v1.126q4.794,0,9.584,0h1.5a4.349,4.349,0,0,1,3.067,7.373,4.863,4.863,0,0,1-3.038,1.356c-3.355.043-6.761.043-10.053.043q-1.947,0-3.893,0v10.23a1.848,1.848,0,0,1-3.7,0V1121.9a1.847,1.847,0,0,1,1.84-1.848q2.874-.013,5.748-.009c3.282,0,6.675,0,10.007-.043a1.709,1.709,0,0,0,.547-.349c.066-.062.19-.179.014-.588-.165-.383-.293-.4-.544-.4h-1.5q-5.246,0-10.491,0c-.251,0-.505-.018-.774-.04l-.29-.022a1.848,1.848,0,0,1-1.728-1.844l0-2.918c0-2.086,0-4.141,0-6.2-.019-4.569-3.6-8.537-7.816-8.667-4.466-.137-8.915-.155-13.224-.051-4.987.119-8.467,3.968-8.463,9.359,0,2.448,0,5.314,0,8.33,0,6.475,0,13.649.019,18.9a1.847,1.847,0,0,1-1.84,1.856Z" transform="translate(-610.605 -1095.16)"/>
    </g>
    <g id="Group_249" data-name="Group 249" transform="translate(22.966 58.93)">
      <path id="Path_2154" data-name="Path 2154" class="cls-3" d="M593.067,1073.667" transform="translate(-593.067 -1073.667)"/>
    </g>
    <g id="Group_250" data-name="Group 250" transform="translate(22.835 27.644)">
      <path id="Path_2155" data-name="Path 2155" class="cls-2" d="M703.982,1116H594.614a1.742,1.742,0,0,1-1.742-1.742v-85.621a1.742,1.742,0,0,1,1.742-1.742H703.982a1.742,1.742,0,0,1,1.741,1.742v85.621A1.742,1.742,0,0,1,703.982,1116Zm-107.627-3.484H702.24V1030.38H596.355Z" transform="translate(-592.872 -1026.896)"/>
    </g>
    <g id="Group_251" data-name="Group 251" transform="translate(81.54 38.46)">
      <path id="Path_2156" data-name="Path 2156" class="cls-2" d="M718,1068.808H682.131a1.5,1.5,0,0,1-1.5-1.5v-22.743a1.5,1.5,0,0,1,1.5-1.5H718a1.5,1.5,0,0,1,1.5,1.5v22.743A1.5,1.5,0,0,1,718,1068.808Zm-34.372-3H716.5v-19.745H683.63Z" transform="translate(-680.632 -1043.066)"/>
    </g>
    <g id="Group_252" data-name="Group 252" transform="translate(40.697 49.483)">
      <path id="Path_2157" data-name="Path 2157" class="cls-2" d="M632.39,1085.177a12.816,12.816,0,1,1,12.816-12.816A12.83,12.83,0,0,1,632.39,1085.177Zm0-21.936a9.12,9.12,0,1,0,9.12,9.12A9.131,9.131,0,0,0,632.39,1063.241Z" transform="translate(-619.574 -1059.545)"/>
    </g>
    <g id="Group_253" data-name="Group 253" transform="translate(81.48 73.596)">
      <path id="Path_2158" data-name="Path 2158" class="cls-2" d="M682.1,1118.632a1.56,1.56,0,0,1-1.3-2.417l13.12-19.921a1.559,1.559,0,0,1,2.6,1.715L683.4,1117.93A1.557,1.557,0,0,1,682.1,1118.632Z" transform="translate(-680.543 -1095.593)"/>
    </g>
    <g id="Group_254" data-name="Group 254" transform="translate(15.337 113.159)">
      <path id="Path_2159" data-name="Path 2159" class="cls-2" d="M695.772,1174.153H595.434c-8.18,0-13.327-5.81-13.769-15.54q0-.042,0-.084v-1.943a1.848,1.848,0,0,1,1.848-1.848h124.15a1.848,1.848,0,0,1,1.848,1.848v2.512c0,.042,0,.085,0,.127C708.849,1168.712,703.843,1174.153,695.772,1174.153Zm-110.413-15.667c.213,4.491,1.809,11.971,10.075,11.971H695.772c4.211,0,9.366-1.984,10.042-11.424v-.6H585.359Z" transform="translate(-581.663 -1154.737)"/>
    </g>
    <g id="Group_255" data-name="Group 255" transform="translate(59.142 116.585)">
      <path id="Path_2160" data-name="Path 2160" class="cls-2" d="M647.148,1159.858v.63c.062,1.363.566,4.465,3.864,4.465h32.52c3.158,0,3.754-2.841,3.854-4.28v-.815Z" transform="translate(-647.148 -1159.858)"/>
    </g>
  </g>
</svg>
