<svg xmlns="http://www.w3.org/2000/svg" width="127.839" height="129.298" viewBox="0 0 127.839 129.298">
  <defs>
    <style>
      .cls-1 {
        fill: #1674ba;
      }
    </style>
  </defs>
  <g id="Group_376" data-name="Group 376" transform="translate(-15.087 -13.208)">
    <g id="Group_261" data-name="Group 261" transform="translate(30.338 107.866)">
      <g id="Group_258" data-name="Group 258" transform="translate(0 2.973)">
        <path id="Path_2161" data-name="Path 2161" class="cls-1" d="M1182.98,1171.359a10.285,10.285,0,0,1-2.312-.278,1.248,1.248,0,0,1-.131-.038,6.568,6.568,0,0,1-4.234-5.2,1.461,1.461,0,1,1,2.9-.381,3.609,3.609,0,0,0,2.223,2.789c.807.179,2.6.439,3.717-.439a3.582,3.582,0,0,0,1.4-2.618,5.661,5.661,0,0,0-.419-2.131c-.341-.814-1.319-.892-3.337-.878-2.193.018-5.523.045-6.345-3.508a6.449,6.449,0,0,1,1-5.061,6.576,6.576,0,0,1,5.273-2.33c1.9-.165,5.791.556,6.325,4.469a1.461,1.461,0,0,1-2.9.395c-.288-2.105-2.955-1.975-3.258-1.947a3.927,3.927,0,0,0-3.12,1.183,3.643,3.643,0,0,0-.476,2.628c.246,1.06.806,1.286,3.476,1.249,2.068-.018,4.918-.04,6.05,2.659a8.581,8.581,0,0,1,.651,3.309,6.52,6.52,0,0,1-2.509,4.876A6.306,6.306,0,0,1,1182.98,1171.359Z" transform="translate(-1176.286 -1151.269)"/>
      </g>
      <g id="Group_259" data-name="Group 259" transform="translate(5.239 20.13)">
        <path id="Path_2162" data-name="Path 2162" class="cls-1" d="M1185.58,1182.8a1.462,1.462,0,0,1-1.462-1.462v-2.963a1.461,1.461,0,1,1,2.922,0v2.963A1.462,1.462,0,0,1,1185.58,1182.8Z" transform="translate(-1184.118 -1176.918)"/>
      </g>
      <g id="Group_260" data-name="Group 260" transform="translate(5.239)">
        <path id="Path_2163" data-name="Path 2163" class="cls-1" d="M1185.58,1152.709a1.462,1.462,0,0,1-1.462-1.461v-2.963a1.461,1.461,0,1,1,2.922,0v2.963A1.461,1.461,0,0,1,1185.58,1152.709Z" transform="translate(-1184.118 -1146.824)"/>
      </g>
    </g>
    <g id="Group_262" data-name="Group 262" transform="translate(16.136 13.209)">
      <path id="Path_2164" data-name="Path 2164" class="cls-1" d="M1177.129,1029.3h-.021l-20.067-.2a2.007,2.007,0,0,1-1.384-3.44l20.172-19.771a2.037,2.037,0,0,1,1.432-.574h.1a2.007,2.007,0,0,1,1.979,2.027l-.2,19.971a2.009,2.009,0,0,1-2.007,1.987Zm-15.2-4.167,13.216.133.132-13.216Z" transform="translate(-1155.055 -1005.316)"/>
    </g>
    <g id="Group_263" data-name="Group 263" transform="translate(15.828 99.776)">
      <path id="Path_2165" data-name="Path 2165" class="cls-1" d="M1175.7,1176.926h-.216a21.1,21.1,0,0,1,.209-42.195h.215a21.1,21.1,0,0,1-.208,42.195Zm-.007-38.182a17.084,17.084,0,0,0-.168,34.168h.175a17.084,17.084,0,0,0,.168-34.168Z" transform="translate(-1154.594 -1134.73)"/>
    </g>
    <g id="Group_264" data-name="Group 264" transform="translate(87.06 69.8)">
      <path id="Path_2166" data-name="Path 2166" class="cls-1" d="M1314.258,1162.623h-.021l-51.166-.514a2.007,2.007,0,0,1-1.987-2.027l.684-68.179a2.007,2.007,0,0,1,2.007-1.987h.021l51.167.514a2.008,2.008,0,0,1,1.987,2.027l-.686,68.179A2.006,2.006,0,0,1,1314.258,1162.623Zm-49.14-4.507,47.153.474.645-64.165-47.153-.474Z" transform="translate(-1261.084 -1089.917)"/>
    </g>
    <g id="Group_265" data-name="Group 265" transform="translate(15.087 13.208)">
      <path id="Path_2167" data-name="Path 2167" class="cls-1" d="M1236.781,1134.359h-.021l-81.287-.817a2.008,2.008,0,0,1-1.987-2.027l1.05-104.442a2.005,2.005,0,0,1,.6-1.413l20.172-19.771a1.968,1.968,0,0,1,1.425-.574l61.316.616a2.007,2.007,0,0,1,1.987,2.027l-.564,56.068a2.007,2.007,0,0,1-2.006,1.987h-.021l-7.309-.074-.644,64.165,7.309.073a2.009,2.009,0,0,1,1.987,2.031l0,.165A2.008,2.008,0,0,1,1236.781,1134.359Zm-79.26-4.81,67.957.683.666-66.338a2.007,2.007,0,0,1,2.006-1.987h.021l7.308.073.524-52.054-58.477-.587-18.985,18.607Z" transform="translate(-1153.487 -1005.315)"/>
    </g>
    <g id="Group_266" data-name="Group 266" transform="translate(109.418 30.187)">
      <path id="Path_2168" data-name="Path 2168" class="cls-1" d="M1313.682,1074.714h-.021l-17.167-.173a2.006,2.006,0,0,1-1.987-2.027l.4-39.83a2.009,2.009,0,0,1,2.007-1.987h.021l17.168.173a2.008,2.008,0,0,1,1.987,2.027l-.4,39.83A2.007,2.007,0,0,1,1313.682,1074.714Zm-15.141-4.166,13.154.132.36-35.817-13.154-.132Z" transform="translate(-1294.508 -1030.698)"/>
    </g>
    <g id="Group_267" data-name="Group 267" transform="translate(113.729 22.2)">
      <path id="Path_2169" data-name="Path 2169" class="cls-1" d="M1312.2,1030.891h-.02l-9.244-.093a2.008,2.008,0,0,1-1.987-2.027l.08-8.027a2.008,2.008,0,0,1,2.007-1.987h.021l9.244.093a2.008,2.008,0,0,1,1.987,2.027l-.081,8.026a2.008,2.008,0,0,1-2.007,1.987Zm-7.217-4.086,5.231.052.039-4.013-5.23-.053Z" transform="translate(-1300.952 -1018.757)"/>
    </g>
    <g id="Group_268" data-name="Group 268" transform="translate(127.157 34.096)">
      <path id="Path_2170" data-name="Path 2170" class="cls-1" d="M1332,1060.546h-.021a2.007,2.007,0,0,1-1.986-2.027l.179-17.893-7.163-.072a2.007,2.007,0,0,1,.019-4.013h.021l9.169.092a2.006,2.006,0,0,1,1.986,2.027l-.2,19.9A2.007,2.007,0,0,1,1332,1060.546Z" transform="translate(-1321.026 -1036.541)"/>
    </g>
    <g id="Group_269" data-name="Group 269" transform="translate(87.527 91.507)">
      <path id="Path_2171" data-name="Path 2171" class="cls-1" d="M1314.956,1126.9h-.021l-51.166-.514a2.007,2.007,0,0,1,.019-4.014h.021l51.166.514a2.007,2.007,0,0,1-.02,4.013Z" transform="translate(-1261.782 -1122.368)"/>
    </g>
    <g id="Group_272" data-name="Group 272" transform="translate(97.34 100.801)">
      <g id="Group_270" data-name="Group 270" transform="translate(0 6.025)">
        <path id="Path_2172" data-name="Path 2172" class="cls-1" d="M1290.145,1148.435h-.015l-12.172-.122a1.521,1.521,0,0,1,.015-3.042h.015l12.172.122a1.522,1.522,0,0,1-.015,3.043Z" transform="translate(-1276.452 -1145.27)"/>
      </g>
      <g id="Group_271" data-name="Group 271" transform="translate(6.025)">
        <path id="Path_2173" data-name="Path 2173" class="cls-1" d="M1286.98,1151.478h-.015a1.521,1.521,0,0,1-1.506-1.536l.122-12.172a1.521,1.521,0,0,1,1.521-1.506h.015a1.521,1.521,0,0,1,1.506,1.537l-.122,12.172A1.522,1.522,0,0,1,1286.98,1151.478Z" transform="translate(-1285.459 -1136.263)"/>
      </g>
    </g>
    <g id="Group_275" data-name="Group 275" transform="translate(99.018 121.592)">
      <g id="Group_273" data-name="Group 273" transform="translate(0.086)">
        <path id="Path_2174" data-name="Path 2174" class="cls-1" d="M1289.132,1179.081a1.514,1.514,0,0,1-1.086-.457l-8.521-8.693a1.521,1.521,0,1,1,2.173-2.13l8.521,8.693a1.522,1.522,0,0,1-1.086,2.587Z" transform="translate(-1279.089 -1167.343)"/>
      </g>
      <g id="Group_274" data-name="Group 274" transform="translate(0 0.086)">
        <path id="Path_2175" data-name="Path 2175" class="cls-1" d="M1280.482,1179.036a1.521,1.521,0,0,1-1.064-2.609l8.693-8.52a1.521,1.521,0,0,1,2.129,2.174l-8.693,8.52A1.515,1.515,0,0,1,1280.482,1179.036Z" transform="translate(-1278.96 -1167.473)"/>
      </g>
    </g>
    <g id="Group_277" data-name="Group 277" transform="translate(117.453 105.657)">
      <g id="Group_276" data-name="Group 276">
        <path id="Path_2176" data-name="Path 2176" class="cls-1" d="M1320.212,1146.687h-.015l-12.172-.122a1.522,1.522,0,0,1,.029-3.043l12.173.122a1.522,1.522,0,0,1-.015,3.043Z" transform="translate(-1306.519 -1143.522)"/>
      </g>
    </g>
    <g id="Group_279" data-name="Group 279" transform="translate(119.512 125.334)">
      <g id="Group_278" data-name="Group 278">
        <path id="Path_2177" data-name="Path 2177" class="cls-1" d="M1321.521,1175.694h-.013l-10.6-.107a1.325,1.325,0,1,1,.026-2.649l10.6.106a1.325,1.325,0,0,1-.013,2.649Z" transform="translate(-1309.598 -1172.938)"/>
      </g>
    </g>
    <g id="Group_280" data-name="Group 280" transform="translate(124.357 128.946)">
      <ellipse id="Ellipse_1" data-name="Ellipse 1" class="cls-1" cx="1.779" cy="1.779" rx="1.779" ry="1.779"/>
    </g>
    <g id="Group_281" data-name="Group 281" transform="translate(124.357 120.91)">
      <ellipse id="Ellipse_2" data-name="Ellipse 2" class="cls-1" cx="1.779" cy="1.779" rx="1.779" ry="1.779"/>
    </g>
  </g>
</svg>
