<svg xmlns="http://www.w3.org/2000/svg" width="126.289" height="125.813" viewBox="0 0 126.289 125.813">
  <defs>
    <style>
      .cls-1 {
        fill: #1674ba;
      }
    </style>
  </defs>
  <g id="Group_372" data-name="Group 372" transform="translate(-16.637 -16.459)">
    <g id="Group_289" data-name="Group 289" transform="translate(16.637 16.459)">
      <g id="Group_286" data-name="Group 286">
        <path id="Path_2178" data-name="Path 2178" class="cls-1" d="M1212.793,750.245h-54.982a2.006,2.006,0,0,1-2.007-2.007V707.613a2.006,2.006,0,0,1,2.007-2.007h54.982a2.007,2.007,0,0,1,2.007,2.007v40.625A2.007,2.007,0,0,1,1212.793,750.245Zm-52.976-4.013h50.969V709.62h-50.969Z" transform="translate(-1155.804 -705.606)"/>
      </g>
      <g id="Group_287" data-name="Group 287" transform="translate(27.491 40.625)">
        <path id="Path_2179" data-name="Path 2179" class="cls-1" d="M1198.908,778.823a2.007,2.007,0,0,1-2.007-2.007v-8.471a2.007,2.007,0,0,1,4.014,0v8.471A2.006,2.006,0,0,1,1198.908,778.823Z" transform="translate(-1196.901 -766.339)"/>
      </g>
      <g id="Group_288" data-name="Group 288" transform="translate(17.68 50.655)">
        <path id="Path_2180" data-name="Path 2180" class="cls-1" d="M1203.863,785.347h-19.621a2.007,2.007,0,0,1,0-4.014h19.621a2.007,2.007,0,1,1,0,4.014Z" transform="translate(-1182.235 -781.333)"/>
      </g>
    </g>
    <g id="Group_293" data-name="Group 293" transform="translate(83.929 87.605)">
      <g id="Group_290" data-name="Group 290">
        <path id="Path_2181" data-name="Path 2181" class="cls-1" d="M1313.393,856.6H1258.41a2.007,2.007,0,0,1-2.007-2.007V813.972a2.007,2.007,0,0,1,2.007-2.007h54.983a2.007,2.007,0,0,1,2.007,2.007V854.6A2.007,2.007,0,0,1,1313.393,856.6Zm-52.976-4.014h50.969V815.979h-50.969Z" transform="translate(-1256.403 -811.965)"/>
      </g>
      <g id="Group_291" data-name="Group 291" transform="translate(27.491 40.625)">
        <path id="Path_2182" data-name="Path 2182" class="cls-1" d="M1299.508,885.181a2.006,2.006,0,0,1-2.007-2.007V874.7a2.007,2.007,0,1,1,4.013,0v8.471A2.006,2.006,0,0,1,1299.508,885.181Z" transform="translate(-1297.501 -872.697)"/>
      </g>
      <g id="Group_292" data-name="Group 292" transform="translate(17.681 50.654)">
        <path id="Path_2183" data-name="Path 2183" class="cls-1" d="M1304.463,891.7h-19.621a2.007,2.007,0,0,1,0-4.013h19.621a2.007,2.007,0,0,1,0,4.013Z" transform="translate(-1282.835 -887.691)"/>
      </g>
    </g>
    <g id="Group_296" data-name="Group 296" transform="translate(36.278 81.12)">
      <g id="Group_294" data-name="Group 294" transform="translate(9.03 2.007)">
        <path id="Path_2184" data-name="Path 2184" class="cls-1" d="M1226.984,842.061h-26.31a2.006,2.006,0,0,1-2.007-2.007V807.278a2.007,2.007,0,1,1,4.013,0v30.77h24.3a2.007,2.007,0,0,1,0,4.013Z" transform="translate(-1198.667 -805.271)"/>
      </g>
      <g id="Group_295" data-name="Group 295">
        <path id="Path_2185" data-name="Path 2185" class="cls-1" d="M1205.124,815.872a2,2,0,0,1-1.47-.64l-7.46-8.018-7.56,8.027a2.007,2.007,0,0,1-2.922-2.751l9.03-9.588a2.006,2.006,0,0,1,1.461-.631h.006a2,2,0,0,1,1.463.641l8.919,9.588a2.006,2.006,0,0,1-1.468,3.373Z" transform="translate(-1185.167 -802.271)"/>
      </g>
    </g>
    <g id="Group_299" data-name="Group 299" transform="translate(85.221 38.743)">
      <g id="Group_297" data-name="Group 297">
        <path id="Path_2186" data-name="Path 2186" class="cls-1" d="M1286.651,775.709a2.007,2.007,0,0,1-2.007-2.007v-30.77h-24.3a2.007,2.007,0,0,1,0-4.013h26.311a2.007,2.007,0,0,1,2.007,2.007V773.7A2.007,2.007,0,0,1,1286.651,775.709Z" transform="translate(-1258.334 -738.919)"/>
      </g>
      <g id="Group_298" data-name="Group 298" transform="translate(17.39 25.196)">
        <path id="Path_2187" data-name="Path 2187" class="cls-1" d="M1295.259,790.187h-.006a2.009,2.009,0,0,1-1.463-.639l-8.92-9.588a2.007,2.007,0,1,1,2.938-2.734l7.46,8.018,7.56-8.027a2.007,2.007,0,1,1,2.922,2.752l-9.03,9.588A2.007,2.007,0,0,1,1295.259,790.187Z" transform="translate(-1284.332 -776.586)"/>
      </g>
    </g>
  </g>
</svg>
