<svg xmlns="http://www.w3.org/2000/svg" width="152.855" height="91.675" viewBox="0 0 152.855 91.675">
  <defs>
    <style>
      .cls-1 {
        fill: #eb1b24;
      }

      .cls-2 {
        fill: #ee5057;
      }

      .cls-3 {
        fill: #ed555b;
      }

      .cls-4 {
        fill: #f28a8f;
      }

      .cls-5 {
        fill: #f5c3c6;
      }

      .cls-6 {
        fill: #f28b8f;
      }

      .cls-7, .cls-8 {
        fill: #fff;
      }

      .cls-7 {
        stroke: rgba(0,0,0,0);
      }

      .cls-9 {
        fill: #f2ecea;
      }

      .cls-10 {
        fill: #1f1872;
      }

      .cls-11 {
        fill: #1c3791;
      }

      .cls-12 {
        fill: #201972;
      }

      .cls-13 {
        fill: #201a72;
      }

      .cls-14 {
        fill: #211b72;
      }

      .cls-15 {
        fill: #211a73;
      }

      .cls-16 {
        fill: #211a72;
      }

      .cls-17 {
        fill: #231d74;
      }

      .cls-18 {
        fill: #221b74;
      }

      .cls-19 {
        fill: #241e75;
      }

      .cls-20 {
        fill: #f0f0f1;
      }

      .cls-21 {
        fill: #241f75;
      }

      .cls-22 {
        fill: #1f1871;
      }

      .cls-23 {
        fill: #272276;
      }

      .cls-24 {
        fill: #9292b8;
      }

      .cls-25 {
        fill: #bab8cd;
      }
    </style>
  </defs>
  <g id="Group_353" data-name="Group 353" transform="translate(-186 -1082.792)">
    <path id="Path_2025" data-name="Path 2025" class="cls-1" d="M290.065,42.088c9.837.667,19.311,2.769,28.158,7.253,8.556,4.337,15.644,10.325,20.556,18.678a35.321,35.321,0,0,1,5,15.694,36.961,36.961,0,0,1-5.424,21.934c-5.064,8.42-12.3,14.47-20.9,19a76.559,76.559,0,0,1-24.343,7.737,125.478,125.478,0,0,1-22.912,1.144,102.107,102.107,0,0,1-29.891-5.047,62.926,62.926,0,0,1-25.357-15.487,58.976,58.976,0,0,1-13.367-21.9,83.283,83.283,0,0,1-4.264-20.069c-.184-1.957-.334-3.916-.39-5.881-.017-.605-.169-.92-.9-.886-1.67.079-3.344.046-5.017.058v-.176a22.469,22.469,0,0,1,3.128-3.647c1.783-2.006,3.642-3.945,5.42-5.957.2-.228.382-.542.78-.457.389.463.245,1,.2,1.519a62.931,62.931,0,0,0-.015,8.084q.207,4.178.741,8.318a85.034,85.034,0,0,0,4.276,17.952,64.577,64.577,0,0,0,9.652,17.91A56.487,56.487,0,0,0,232.708,122.9a70.577,70.577,0,0,0,24.158,7.827,92.432,92.432,0,0,0,10.065.924,24.65,24.65,0,0,0,2.545.22,2.858,2.858,0,0,0-.592-.05,44.659,44.659,0,0,1-8.486-1.924,63,63,0,0,1-18.773-9.284,55.161,55.161,0,0,1-14.395-15.4,64.816,64.816,0,0,1-8.949-25.114,107.782,107.782,0,0,1-.944-10.944c-.122-2.617.077-5.211.067-7.816a40.073,40.073,0,0,1,.343-5c.035-.286.024-.6.373-.732a.738.738,0,0,1,.6.3c2.035,2.148,4.047,4.318,6.118,6.431.377.385,1.023.862.829,1.35-.243.613-1.039.264-1.6.331a6.641,6.641,0,0,1-.791.005c-1.509,0-1.548,0-1.683,1.528-.123,1.4-.028,2.812-.037,4.219a81.635,81.635,0,0,0,1.882,16.675,64.108,64.108,0,0,0,5.967,16.612,47.359,47.359,0,0,0,18.667,19.414,57.872,57.872,0,0,0,21.885,6.829,94.189,94.189,0,0,0,14.845.678c10.672-.393,20.992-2.365,30.582-7.307a53.093,53.093,0,0,0,11.537-8.02,50.438,50.438,0,0,0,10.058-12.611,40.421,40.421,0,0,0,2.943-6.3,18.719,18.719,0,0,0,.757-7.565c-.082-1.256-.142-2.517-.31-3.769a39.6,39.6,0,0,0-8.729-20.467,42.118,42.118,0,0,0-12.457-10.076c-7.956-4.345-16.577-6.5-25.5-7.663a100.656,100.656,0,0,0-15.453-.854,70.088,70.088,0,0,0-13.25,1.734,73.3,73.3,0,0,0-18.426,6.65,71.22,71.22,0,0,0-15.445,10.864,78.924,78.924,0,0,0-5.561,5.757,3.5,3.5,0,0,1-.378.369c-.844.705-1.418.557-1.8-.465a2.62,2.62,0,0,1-.153-.6,2.214,2.214,0,0,1,.7-1.824,69.583,69.583,0,0,1,9.149-8.743,80.228,80.228,0,0,1,42.387-16.957c1.1-.105,2.212-.034,3.31-.2h.352c.339.191.706.044,1.057.091.351-.046.719.1,1.058-.091h5.816c.406.193.837.045,1.255.091h.872A2.754,2.754,0,0,1,290.065,42.088Z" transform="translate(-5.01 1040.856)"/>
    <path id="Path_2231" data-name="Path 2231" class="cls-1" d="M331.725,1147.581s5.923-9.26,5.791-16.388-2.307-16.456-3.652-18.634-5.418-6.689-6.072,1.247.676,19.556,0,23.008S331.725,1147.581,331.725,1147.581Z"/>
    <path id="Path_2026" data-name="Path 2026" class="cls-2" d="M409.586,42.091c-.419-.027-.868.176-1.249-.155h1.234c.053.029.073.062.06.1S409.6,42.091,409.586,42.091Z" transform="translate(-126.285 1040.856)"/>
    <path id="Path_2027" data-name="Path 2027" class="cls-3" d="M393.763,41.936c-.319.328-.712.127-1.074.149-.044-.039-.056-.074-.036-.105s.036-.044.054-.044Z" transform="translate(-117.527 1040.856)"/>
    <path id="Path_2028" data-name="Path 2028" class="cls-4" d="M391.45,41.936a1.467,1.467,0,0,1-.017.149c-.352-.016-.734.183-1.04-.149Z" transform="translate(-116.271 1040.856)"/>
    <path id="Path_2029" data-name="Path 2029" class="cls-5" d="M413.928,42.088l-.874-.01c-.066-.026-.09-.055-.072-.089s.038-.053.059-.053h.881A.808.808,0,0,0,413.928,42.088Z" transform="translate(-128.873 1040.856)"/>
    <path id="Path_2030" data-name="Path 2030" class="cls-6" d="M412.009,41.936q.006.071.013.142l-.879.014a1.036,1.036,0,0,1-.016-.156Z" transform="translate(-127.842 1040.856)"/>
    <path id="Subtraction_3" data-name="Subtraction 3" class="cls-7" d="M60.19,85.175a95.8,95.8,0,0,1-13.069-.894A60.665,60.665,0,0,1,31.96,80.26,47.649,47.649,0,0,1,10.14,62.022,57.509,57.509,0,0,1,4.4,50.269,72.084,72.084,0,0,1,1.484,39.591,82.536,82.536,0,0,1,.141,28.6c-.013-.241-.028-.481-.043-.722a29.83,29.83,0,0,1-.082-3.145l.078.152.077.152c.268.525.465.829.685.829s.432-.272.73-.71c.039-.057.073-.12.106-.181a.814.814,0,0,1,.382-.42,2.3,2.3,0,0,1,.134.467c.083.39.169.792.67.87a.9.9,0,0,0,.138.011c.43,0,.687-.339.935-.667.07-.093.142-.188.217-.273A72.17,72.17,0,0,1,21.932,10.216,75.766,75.766,0,0,1,43.441,1.831,72.375,72.375,0,0,1,59.472,0c1.295,0,2.606.037,3.9.109A94.25,94.25,0,0,1,88.339,4.442a50.1,50.1,0,0,1,18.4,10.382,38.393,38.393,0,0,1,9.643,13.625.449.449,0,0,0-.088.067,22.181,22.181,0,0,1,1.237,3.048l.021.062c.193.6.375,1.218.541,1.832a34.024,34.024,0,0,1,1.034,6.274,34.549,34.549,0,0,1-1.225,11.8,37.337,37.337,0,0,1-2.066,5.567,51.309,51.309,0,0,1-11.992,14.371,56.773,56.773,0,0,1-16.353,9.271,70.735,70.735,0,0,1-19.208,4.1C65.584,85.063,62.86,85.175,60.19,85.175Z" transform="translate(216.332 1085.91)"/>
    <path id="Path_2032" data-name="Path 2032" class="cls-8" d="M211.769,65.3c1.137-.421,1.768-1.456,2.636-2.2a8.8,8.8,0,0,1,1.481-1.159,20.18,20.18,0,0,1,.065,5.076,16.055,16.055,0,0,0,.014,3.512,15.407,15.407,0,0,1,.077,1.935,90.4,90.4,0,0,0,4.6,27.77,61.625,61.625,0,0,0,11.817,20.877,56.723,56.723,0,0,0,20.979,15.1c.46.194.9.426,1.375.59a5.233,5.233,0,0,0,.983.386,1.821,1.821,0,0,1,.259.087,61.4,61.4,0,0,0,13.049,3.265,4.982,4.982,0,0,0,.874.239c.106.024.21.068.32.082.082.011.165.013.247.023-.062-.03-.129-.009-.2-.023a6.331,6.331,0,0,0-.733-.171,69.425,69.425,0,0,1-12.724-5.071c-.317-.16-.583-.392-.9-.549a54.372,54.372,0,0,1-13.882-10.852,57.63,57.63,0,0,1-11.929-20.267A78.53,78.53,0,0,1,226.3,86.008a85.587,85.587,0,0,1-.477-11.942,83.424,83.424,0,0,1,.921-10.415c.068-.414,0-.9.4-1.212a16.427,16.427,0,0,0,2.018,3.395,3.215,3.215,0,0,1,.575.954c-.359.421-.216.947-.254,1.417-.874,11.04-.385,21.975,2.719,32.681a56.422,56.422,0,0,0,17.905,28.15,62.512,62.512,0,0,0,26.758,13.071c1.2.276,2.411.494,3.617.739-.628.475-1.319.159-1.985.159a81.153,81.153,0,0,1-14.312-1.615,65.752,65.752,0,0,1-24.088-9.6c-10.214-6.8-17.291-16.133-21.949-27.382a84.592,84.592,0,0,1-5.879-24.252,85.546,85.546,0,0,1-.347-14.143C211.934,65.779,212.084,65.48,211.769,65.3Z" transform="translate(-16.592 1029.692)"/>
    <path id="Path_2033" data-name="Path 2033" class="cls-9" d="M362.746,245.152c.656-.126,1.343.143,1.985-.159l1.154.176A10.973,10.973,0,0,1,362.746,245.152Z" transform="translate(-100.844 927.543)"/>
    <path id="Path_2034" data-name="Path 2034" class="cls-10" d="M232.085,55.09a92.9,92.9,0,0,0-1.076,15.425c.2,10.824,1.962,21.334,6.459,31.273a54.328,54.328,0,0,0,22.974,25.383c.228.131.448.276.672.415.189.346.572.65.3,1.107a1.068,1.068,0,0,1-1.216.514c-.655-.162-.023.46-.329.466a51.031,51.031,0,0,1-10.407-5.24c-11.359-7.284-18.977-17.516-23.6-30.088a84.441,84.441,0,0,1-4.447-19.208,124.51,124.51,0,0,1-.8-14.391c-.007-2.05.132-4.1.2-6.151,1.855-1.839,3.722-3.666,5.557-5.525.383-.388.554-.415.911.044C228.87,51.125,230.486,53.1,232.085,55.09Z" transform="translate(-21.537 1037.041)"/>
    <path id="Path_2035" data-name="Path 2035" class="cls-11" d="M434.273,92.543c1.514,0,2.86.017,4.207-.006a1.614,1.614,0,0,1,1.6,1.017,4.271,4.271,0,0,1,.1,3.581,1.749,1.749,0,0,1-1.825,1.215c-2.2-.053-4.4,0-6.606-.044a.9.9,0,0,0-.929.593c-2.087,3.868-4.2,7.725-6.294,11.586a2.909,2.909,0,0,1-5.1-2.792Q429.65,88.743,439.885,69.8c.876-1.621,2.321-2.306,3.752-1.8a2.938,2.938,0,0,1,1.473,4.362c-1.383,2.616-2.783,5.224-4.223,7.809-.3.547-.219.74.3,1.031a9.982,9.982,0,0,1,3.921,4.622c3.606,7.3,7.189,14.615,10.817,21.906a2.587,2.587,0,0,1-.082,3.031,3.309,3.309,0,0,1-3.272,1.282,2.417,2.417,0,0,1-1.795-1.529q-4.584-9.35-9.2-18.686c-.893-1.813-1.779-3.629-2.678-5.438-.122-.245-.175-.551-.575-.577-.431-.029-.541.257-.694.54C436.547,88.356,435.458,90.36,434.273,92.543Z" transform="translate(-132.223 1026.404)"/>
    <path id="Path_2036" data-name="Path 2036" class="cls-11" d="M367.414,112.882c1.52,3.1,2.98,6.092,4.467,9.076.32.643.777.56,1.187-.191q2.377-4.36,4.744-8.726c2.768-5.1,5.549-10.189,8.289-15.3a2.522,2.522,0,0,1,2.561-1.619,3.3,3.3,0,0,1,2.857,1.907,2.408,2.408,0,0,1-.2,2.344q-5.825,10.689-11.619,21.4a17.216,17.216,0,0,1-2.659,4.017,5.844,5.844,0,0,1-8.55.386,12.051,12.051,0,0,1-2.959-3.9c-3.609-7.3-7.19-14.613-10.813-21.905a2.566,2.566,0,0,1,.208-3.092,3.294,3.294,0,0,1,3.413-1.1,2.253,2.253,0,0,1,1.508,1.368c1.407,2.9,2.848,5.78,4.248,8.681a1.231,1.231,0,0,0,1.306.841c3.259-.045,6.518-.006,9.777,0a2.91,2.91,0,0,1-.076,5.818C372.582,112.875,370.058,112.882,367.414,112.882Z" transform="translate(-96.134 1010.647)"/>
    <path id="Path_2037" data-name="Path 2037" class="cls-11" d="M304.272,96.057a7.1,7.1,0,0,1,5.87,2.983,35.9,35.9,0,0,1,3.378,6.256c3.012,6.028,5.96,12.087,8.96,18.121a2.659,2.659,0,0,1-.029,3.049,3.3,3.3,0,0,1-3.169,1.341,2.375,2.375,0,0,1-1.9-1.5c-2.377-4.87-4.782-9.727-7.178-14.588-1.54-3.126-3.073-6.257-4.63-9.376-.151-.3-.16-.764-.7-.781s-.59.421-.756.727c-4.315,7.928-8.683,15.828-12.888,23.814a2.966,2.966,0,0,1-5.011.5,2.4,2.4,0,0,1-.265-3.074q5.768-10.624,11.532-21.251a16.278,16.278,0,0,1,3.031-4.5A5.306,5.306,0,0,1,304.272,96.057Z" transform="translate(-57.75 1010.659)"/>
    <path id="Path_2038" data-name="Path 2038" class="cls-12" d="M426.032,220.587c.016,1.086-.585,1.588-1.436,1.366a1.188,1.188,0,0,0-1.247.227,1.148,1.148,0,0,1-1.9-.687c-.159-.744-.242-1.5-.363-2.257-.059-.368,0-.617.448-.677.433-.057.629.034.673.514.064.7.212,1.39.337,2.083.036.2.086.45.356.421.34-.036.285-.31.244-.544-.128-.722-.22-1.453-.405-2.16-.133-.507.164-.489.482-.584.4-.118.6-.056.668.385.111.725.254,1.444.392,2.164.045.235.114.5.437.407.264-.074.211-.3.164-.511-.151-.687-.273-1.381-.443-2.062-.127-.506.108-.618.546-.74.533-.148.5.177.57.488C425.724,219.221,425.905,220.019,426.032,220.587Z" transform="translate(-133.386 942.665)"/>
    <path id="Path_2039" data-name="Path 2039" class="cls-12" d="M491.4,186.9c.01-.027.012-.073.03-.08.867-.329.825-.751.183-1.317-.439-.387.116-.508.273-.718.19-.253.368-.37.679-.058.277.277.423,1.018,1.116.48.105-.082.518.269.358.424-.433.421-.092.637.109.936a1.21,1.21,0,0,1,.117,1.013,3.61,3.61,0,0,1-2.3,1.976,1.175,1.175,0,0,1-1.163-.447c-.393-.509-.783-1.023-1.212-1.5-.349-.388-.337-.626.083-.987.491-.423.636-.037.875.231.174.194.351.384.527.575a1.537,1.537,0,0,1,.666.553.6.6,0,0,0,.793.148c.213-.12.408-.3.337-.559-.095-.35-.348-.194-.571-.127C491.8,187.595,491.234,187.851,491.4,186.9Z" transform="translate(-171.485 961.276)"/>
    <path id="Path_2040" data-name="Path 2040" class="cls-12" d="M472.93,200.444c.353-.152.418-.687.811-.492.19.094.516.381.13.693a.769.769,0,0,0-.172,1.159c.385.515.051.666-.327.912-.5.325-.587-.044-.755-.344-.27-.486-.553-.964-.818-1.453-.535-.987-.422-1.478.481-2.18.6-.469,1.443-.64,1.785-1.445a.282.282,0,0,1,.432-.154c.151.118.423.328.259.484-.468.444.048.546.206.78.458.68.906,1.366,1.364,2.045.321.476-.16.514-.376.683s-.457.388-.694-.038c-.3-.537-.668-1.034-.968-1.57s-.657-.809-1.262-.412S472.523,199.949,472.93,200.444Z" transform="translate(-161.518 954.279)"/>
    <path id="Path_2041" data-name="Path 2041" class="cls-12" d="M303.85,188.683a2.627,2.627,0,0,1,3.173,1.22,1.97,1.97,0,0,1-.487,2.6,2.236,2.236,0,0,1-3.008-.376,1.957,1.957,0,0,1-.37-2.682c.107-.147.194-.433.459-.228.486.376.959.77,1.424,1.173.194.168.012.317-.09.445-.151.189-.282.063-.445-.021-.215-.111-.387-.6-.671-.233a.761.761,0,0,0,.192.963c.36.387.784.675,1.314.36a1.541,1.541,0,0,0,.884-1.5,1.078,1.078,0,0,0-1.148-1.006C304.365,189.5,304.173,189.094,303.85,188.683Z" transform="translate(-67.382 959.052)"/>
    <path id="Path_2042" data-name="Path 2042" class="cls-12" d="M399.016,222.636c0,.322,0,.644,0,.966a2.113,2.113,0,0,1-.024.35c-.13.72-.721,1.051-1.87,1.055-1.273,0-1.964-.329-2.093-1.024-.031-.169-.079-.415.008-.512.414-.465.263-.866.026-1.358a.731.731,0,0,1,.43-1.015,1.87,1.87,0,0,1,1.61.031c.06.028.084.2.072.3-.027.222-.192.247-.388.241-.247-.008-.579-.12-.649.251-.074.391.274.465.541.571.152.061.363.018.388.267.023.227-.1.3-.3.342-.347.079-.612.268-.521.668.1.424.464.494.825.5.428,0,.765-.185.789-.646a17.032,17.032,0,0,0,0-1.931c-.03-.486.145-.679.627-.712.593-.041.481.356.487.691s0,.642,0,.963Z" transform="translate(-118.834 940.971)"/>
    <path id="Path_2043" data-name="Path 2043" class="cls-12" d="M323.765,201.931a1.031,1.031,0,0,0-.822.556c-.234.4-.49.8-.708,1.211-.2.372-.345.626-.843.313-.443-.278-.539-.477-.227-.928a14.473,14.473,0,0,0,1.317-2.172c.355-.777.925-.486,1.079-.122.217.515.533.426.888.493a1.465,1.465,0,0,1,1.138,2.32c-.265.52-.57,1.022-.805,1.555-.2.444-.393.547-.852.29-.433-.242-.516-.451-.254-.871a16.323,16.323,0,0,0,.888-1.612C324.848,202.37,324.532,201.924,323.765,201.931Z" transform="translate(-77.538 952.417)"/>
    <path id="Path_2044" data-name="Path 2044" class="cls-12" d="M435.4,218.469c.625.723,1.293.813,1.771.314a1.658,1.658,0,0,0-.268-2,1.041,1.041,0,0,0-1.6.206.955.955,0,0,1-1.148.511,2.053,2.053,0,0,1,2.194-1.756,1.913,1.913,0,0,1,2.183,1.69,1.937,1.937,0,0,1-1.4,2.234,2,2,0,0,1-2.857-1.162c-.058-.194-.183-.4.137-.479.537-.139,1.074-.281,1.611-.421.189-.049.266.058.295.221s.065.348-.178.414C435.909,218.3,435.689,218.376,435.4,218.469Z" transform="translate(-140.688 943.868)"/>
    <path id="Path_2045" data-name="Path 2045" class="cls-12" d="M297.7,182.736a1.188,1.188,0,0,1-.377.857c-.4.463-.817.918-1.209,1.39-.3.366-.51.609-1.028.156-.583-.509-.153-.713.121-1.02.351-.392.682-.806,1.06-1.17.486-.467.374-.845-.076-1.246a.788.788,0,0,0-1.282.033c-.35.393-.752.74-1.088,1.144s-.547.566-1.029.122c-.515-.474-.247-.7.106-1.006.5-.428.841-1.081,1.6-1.146a.139.139,0,0,0,.081-.028c.622-.609.622-.609,1.444-.114A3.172,3.172,0,0,1,297.7,182.736Z" transform="translate(-61.648 963.617)"/>
    <path id="Path_2046" data-name="Path 2046" class="cls-12" d="M464.108,205.615a.987.987,0,0,0-.309.083c-.268.146-.72.235-.59.632.118.359.508.148.772.1.429-.084.844-.25,1.274-.315a1.007,1.007,0,0,1,1.142.458,1.091,1.091,0,0,1-.142,1.311,3.378,3.378,0,0,1-2.606,1.25c-.342.009-.836-.056-.782-.457a.784.784,0,0,1,.893-.506,1.225,1.225,0,0,0,.687.031c.4-.161,1.047-.332.934-.772-.139-.539-.691-.11-1.062-.061s-.745.15-1.121.186a.845.845,0,0,1-.945-.48,1.1,1.1,0,0,1,.071-1.168,2.684,2.684,0,0,1,2.266-1.125c.253,0,.693.014.683.377-.008.269-.387.415-.646.542C464.523,205.746,464.356,205.66,464.108,205.615Z" transform="translate(-156.295 949.984)"/>
    <path id="Path_2047" data-name="Path 2047" class="cls-12" d="M331.846,208.479a13.187,13.187,0,0,1,1.3-2.6c.166-.29.464.067.693.145a.338.338,0,0,1,.208.546c-.27.518-.515,1.049-.776,1.572-.221.444-.409.885.183,1.2s1.028.017,1.313-.481a10.35,10.35,0,0,0,.7-1.51c.16-.428.366-.414.722-.236.319.16.565.258.36.7-.4.846-.745,1.714-1.131,2.566-.085.187-.081.546-.407.457-.261-.071-.692-.118-.7-.423-.02-.535-.318-.337-.579-.327A1.724,1.724,0,0,1,331.846,208.479Z" transform="translate(-83.6 949.433)"/>
    <path id="Path_2048" data-name="Path 2048" class="cls-12" d="M357.252,217.9c.194-.645.432-1.489.7-2.322.152-.467.47-.139.723-.108.354.043.419.24.324.555-.171.56-.331,1.124-.485,1.689-.122.444-.205.9.377,1.086a.88.88,0,0,0,1.178-.626,12.224,12.224,0,0,0,.455-1.7c.092-.45.326-.46.695-.361s.54.249.428.67c-.241.905-.444,1.82-.658,2.733-.047.2-.052.456-.321.445s-.723.02-.746-.306c-.045-.648-.339-.24-.533-.177A1.587,1.587,0,0,1,357.252,217.9Z" transform="translate(-97.778 944.095)"/>
    <path id="Path_2049" data-name="Path 2049" class="cls-12" d="M373.66,220.266c.643-.327,1.359-.222,1.832-.859.233-.313.693-.022,1.049.036-.088.476-.422.624-.762.8.941.857.314,1.839.252,2.746-.029.42-.541.146-.831.159-.342.015-.339-.246-.306-.493.052-.377.114-.753.161-1.13s.044-.718-.4-.857a.892.892,0,0,0-1,.362,2.04,2.04,0,0,0-.37,1.242c-.027.469-.236.6-.69.482-.384-.1-.619-.189-.5-.681.2-.853.358-1.719.49-2.586.069-.453.183-.652.717-.588.641.077.493.406.4.79A3.511,3.511,0,0,0,373.66,220.266Z" transform="translate(-106.043 942.112)"/>
    <path id="Path_2050" data-name="Path 2050" class="cls-12" d="M483.286,192.56a1.067,1.067,0,0,1,1,.366c.484.626.944,1.272,1.459,1.869.352.408.038.55-.209.743s-.482.459-.778.02c-.376-.558-.806-1.079-1.194-1.629a.691.691,0,0,0-1.116-.179c-.411.309-.673.673-.325,1.189s.674,1.031,1.056,1.51c.3.38.3.6-.127.9s-.657.273-.884-.182c-.294-.59-.909-1.018-.881-1.77,0-.057.01-.147-.021-.169-.2-.138-.695,0-.56-.422a3.378,3.378,0,0,1,.689-1A3.294,3.294,0,0,1,483.286,192.56Z" transform="translate(-166.654 956.804)"/>
    <path id="Path_2051" data-name="Path 2051" class="cls-12" d="M406.24,222.627c-.019-.41-.044-.819-.057-1.23-.012-.35-.077-.68.5-.693.548-.013.634.221.635.671a9.257,9.257,0,0,0,.1,1.49.917.917,0,0,0,1.107.869c.625-.09.539-.6.515-1.036-.032-.556-.08-1.112-.153-1.664-.055-.408.129-.5.489-.508.343-.008.611-.054.636.444.039.759.2,1.512.241,2.272a1.482,1.482,0,0,1-2.208,1.184c-.254-.1-.5-.608-.771.107-.14.369-.962-.009-.982-.5-.02-.468,0-.938,0-1.407Z" transform="translate(-125.078 941.198)"/>
    <path id="Path_2052" data-name="Path 2052" class="cls-13" d="M445.024,214.333c.091-.31.185-.516-.213-.648-.26-.087-.194-.4.036-.564a10.148,10.148,0,0,1,1.152-.8c1.542-.831,2.246-.568,2.883,1.031.151.38.3.759.456,1.139s.376.687-.267.92c-.587.213-.7-.034-.846-.474-.18-.555-.4-1.1-.6-1.643a.69.69,0,0,0-1.03-.472c-.482.2-.8.475-.572,1.07.236.628.4,1.284.661,1.9.188.448-.112.531-.381.586-.232.047-.581.4-.72-.088A8.826,8.826,0,0,1,445.024,214.333Z" transform="translate(-146.545 946.031)"/>
    <path id="Path_2053" data-name="Path 2053" class="cls-12" d="M317.072,197.3a2.507,2.507,0,0,1-1.45,2.137,2.89,2.89,0,0,1-2.517-.928c-.167-.227-.068-.44,0-.665.225-.756.42-1.521.678-2.266.065-.187-.016-.662.4-.507.345.129.805.293.614.874s-.365,1.17-.512,1.764c-.055.223-.266.486.077.7a.7.7,0,0,0,.814-.053,1.27,1.27,0,0,0,.27-2.074.424.424,0,0,1-.122-.533c.115-.277.331-.172.519-.111A1.9,1.9,0,0,1,317.072,197.3Z" transform="translate(-73.091 955.42)"/>
    <path id="Path_2054" data-name="Path 2054" class="cls-12" d="M387.494,222.707c-.025.424-.05.832-.072,1.24s-.057.694-.636.655c-.6-.041-.562-.357-.531-.751.046-.582.091-1.164.141-1.746a.719.719,0,0,0-.74-.877c-.531-.041-.923.134-.977.742-.057.64-.148,1.279-.169,1.92-.015.464-.214.529-.611.451-.357-.071-.722-.06-.565-.611.2-.688.023-1.435.461-2.118.122-.189-.34-.752.348-.9a3.828,3.828,0,0,1,2.9.162C387.784,221.321,387.425,222.084,387.494,222.707Z" transform="translate(-112.311 941.205)"/>
    <path id="Path_2055" data-name="Path 2055" class="cls-12" d="M348.781,214.4c0,.293-.015.587,0,.88.014.211-.118.482.2.6a.681.681,0,0,0,.78-.249,1.28,1.28,0,0,0-.271-2.079.428.428,0,0,1-.185-.516c.044-.248.264-.2.421-.18a1.716,1.716,0,0,1,1.469.97,2.286,2.286,0,0,1-.348,2.32,1.4,1.4,0,0,1-1.6.635c-.085-.023-.173-.033-.258-.057-1.286-.365-1.292-.365-1.274-1.691a16.394,16.394,0,0,1,.091-1.752c.023-.187-.174-.643.3-.544.293.061.745.074.7.611-.03.349-.006.7-.006,1.054Z" transform="translate(-92.459 945.55)"/>
    <path id="Path_2056" data-name="Path 2056" class="cls-13" d="M368.391,214.171c1.217.008,1.459.464,1.1,1.657-.328,1.087-.468,2.23-.722,3.341-.063.276.042.767-.585.6-.451-.123-.751-.21-.585-.787a33.73,33.73,0,0,1,.911-3.647c.13-.315.046-.411-.232-.5s-.789.139-.715-.369C367.613,214.122,368.081,214.195,368.391,214.171Z" transform="translate(-103.526 944.743)"/>
    <path id="Path_2057" data-name="Path 2057" class="cls-13" d="M499.365,179.628a.737.737,0,0,1,.288.106c.784.742,1.6,1.46,2.316,2.262.284.316-.245.485-.412.709-.179.241-.392.308-.644.029-.471-.52-.99-1-1.45-1.525-.379-.435-.706-.506-1.027.021-.157.257-.36.455-.624.25-.244-.19.028-.423.122-.595A2.22,2.22,0,0,1,499.365,179.628Z" transform="translate(-176.159 964.019)"/>
    <path id="Path_2058" data-name="Path 2058" class="cls-14" d="M458.2,211.91c-.092.428-.487.384-.737.538-.315.193-.392-.043-.49-.272-.272-.644-.57-1.277-.833-1.925-.21-.516-.49-.719-.98-.317-.166.136-.34.268-.53.056-.249-.278.031-.427.187-.562a3.037,3.037,0,0,1,1.217-.666.6.6,0,0,1,.652.123A25.666,25.666,0,0,1,458.2,211.91Z" transform="translate(-152.06 947.783)"/>
    <path id="Path_2059" data-name="Path 2059" class="cls-15" d="M342.28,214.178a.61.61,0,0,1-.61-.924c.342-.838.716-1.664,1.036-2.511.166-.438.362-.468.778-.3.447.178.477.369.3.773-.366.828-.68,1.68-1.017,2.521C342.684,213.941,342.664,214.213,342.28,214.178Z" transform="translate(-89.04 946.877)"/>
    <path id="Path_2060" data-name="Path 2060" class="cls-16" d="M416.654,220.449c-.123-.467.286-.379.581-.464.4-.115.5.054.542.415q.179,1.484.417,2.96c.094.576-.368.409-.622.489-.239.075-.518.164-.56-.278C416.912,222.551,416.78,221.533,416.654,220.449Z" transform="translate(-130.913 941.518)"/>
    <path id="Path_2061" data-name="Path 2061" class="cls-17" d="M387.684,231.819c-.927.13-1.352-.472-1.7-1.16a.319.319,0,0,1,.259-.445c.338-.055.718-.056.9.333.1.21-.044.591.367.564.3-.02.279-.309.344-.53.124-.421.478-.193.734-.214a.314.314,0,0,1,.383.353c0,.391-.015.795-.436.962A3.883,3.883,0,0,1,387.684,231.819Z" transform="translate(-113.789 935.805)"/>
    <path id="Path_2062" data-name="Path 2062" class="cls-17" d="M472.676,195.068a.7.7,0,0,1-.32.758c-.84.528-1.691,1.041-2.541,1.554-.141.085-.318.231-.435,0a.383.383,0,0,1,.138-.537c.3-.184.6-.361.9-.539.346-.2.653-.363.729-.873a.96.96,0,0,1,1.068-.728A.5.5,0,0,1,472.676,195.068Z" transform="translate(-160.317 955.609)"/>
    <path id="Path_2063" data-name="Path 2063" class="cls-18" d="M422.511,215.353c-.115-.708.378-.65.738-.792.466-.185,1.25.2,1.34-.725.013-.136.278-.177.45-.042.1.075.232.3.317.091.107-.259.361-.489.476-.357a1.679,1.679,0,0,1,.277.9c.036.36-.32.284-.515.325C424.571,214.966,423.543,215.154,422.511,215.353Z" transform="translate(-134.184 945.124)"/>
    <path id="Path_2064" data-name="Path 2064" class="cls-16" d="M395.683,217.872c.118-.71.581-.567.973-.611.484-.055,1.216.475,1.345-.525,0-.027.271-.077.3-.035.262.368.446.315.762.014.181-.173.367.1.333.328-.047.313.259.829-.419.829Z" transform="translate(-119.223 943.353)"/>
    <path id="Path_2065" data-name="Path 2065" class="cls-19" d="M350.2,209.247c1.032.344,2.027.672,3.018,1.011a.241.241,0,0,1,.153.349c-.069.163-.137.333-.375.25-1.018-.351-2.037-.7-3.053-1.055-.093-.033-.24-.1-.179-.245A.486.486,0,0,1,350.2,209.247Z" transform="translate(-93.592 947.491)"/>
    <path id="Path_2066" data-name="Path 2066" class="cls-20" d="M493.587,189.885c-.042.808.37.575.8.364.261-.128.483-.6.846-.1.332.455.1.765-.225,1.047s-.688.509-1.066.109a10.18,10.18,0,0,1-.685-.891Z" transform="translate(-173.673 958.295)"/>
    <path id="Path_2067" data-name="Path 2067" class="cls-17" d="M379.934,215.909c-.364-.22-1.137.24-.99-.734.031-.209-.094-.452.159-.564s.639-.05.706.17c.2.647.59.541,1.051.409.156-.045.387-.284.477.072a.364.364,0,0,1-.294.465C380.676,215.81,380.3,215.851,379.934,215.909Z" transform="translate(-109.872 944.529)"/>
    <path id="Path_2068" data-name="Path 2068" class="cls-21" d="M390.582,216.972c-.48,0-.948.073-.848-.678.024-.178-.068-.406.113-.513.242-.143.644-.127.717.09.248.732.691.481,1.142.32.15-.053.331-.232.429.018a.373.373,0,0,1-.2.516A3.13,3.13,0,0,1,390.582,216.972Z" transform="translate(-115.896 943.896)"/>
    <path id="Path_2069" data-name="Path 2069" class="cls-17" d="M326.534,212.772c-.242.307-.148.89-.677.865-.269-.013-.886-.342-.7-.522.425-.41-.536-1.107.273-1.186A1.11,1.11,0,0,1,326.534,212.772Z" transform="translate(-79.833 945.997)"/>
    <path id="Path_2070" data-name="Path 2070" class="cls-19" d="M428.278,210.227c.491.1.385.549.426.816.075.487-.4.388-.673.421-.576.068-.425-.472-.472-.728C427.452,210.155,428.069,210.473,428.278,210.227Z" transform="translate(-137.004 946.944)"/>
    <path id="Path_2071" data-name="Path 2071" class="cls-22" d="M309.2,229.181c-.022-.31-.571-.858.407-.663.834.167,1.008-.2.836-1.424a72.755,72.755,0,0,0,13.561,5.616c-.1.4-.373.175-.587.165a47.337,47.337,0,0,1-9.652-2.048,23.242,23.242,0,0,1-3.69-1.31c.106-.125.076-.334.293-.412-.379-.017-.148.309-.286.415A1.657,1.657,0,0,1,309.2,229.181Z" transform="translate(-70.867 937.532)"/>
    <path id="Path_2072" data-name="Path 2072" class="cls-23" d="M341.588,239.966c.2-.047.428.019.586-.165l.7.154c.021.316-.155.263-.345.183A2.153,2.153,0,0,1,341.588,239.966Z" transform="translate(-89.037 930.441)"/>
    <path id="Path_2073" data-name="Path 2073" class="cls-24" d="M343.719,240.322c.118-.054.292,0,.345-.183.258-.048.411.109.636.287A1.267,1.267,0,0,1,343.719,240.322Z" transform="translate(-90.226 930.257)"/>
    <path id="Path_2074" data-name="Path 2074" class="cls-25" d="M474.932,196.182a.54.54,0,0,1-.206.111c-.163.023-.184-.125-.129-.212a.4.4,0,0,1,.269-.133C474.93,195.94,475.026,196,474.932,196.182Z" transform="translate(-163.245 954.912)"/>
    <path id="Path_2075" data-name="Path 2075" class="cls-10" d="M311.132,231.768c.01-.2-.362-.294-.169-.516a.351.351,0,0,1,.544,0c.524.635-.583.092-.381.512Z" transform="translate(-71.916 935.283)"/>
  </g>
</svg>
