<svg id="Group_371" data-name="Group 371" xmlns="http://www.w3.org/2000/svg" width="119.586" height="131.108" viewBox="0 0 119.586 131.108">
  <defs>
    <style>
      .cls-1 {
        fill: #1674ba;
      }
    </style>
  </defs>
  <g id="Group_337" data-name="Group 337" transform="translate(97.229 47.602)">
    <path id="Path_2221" data-name="Path 2221" class="cls-1" d="M445.033,517.013a11.647,11.647,0,0,1-4.67-1.005c-4.2-1.829-6.612-5.32-6.626-9.58-.066-19.249-.052-37.37-.037-56.555l.01-14.121a2.033,2.033,0,0,1,1.347-1.966,2,2,0,0,1,.948-.241l18-.039h0a2.005,2.005,0,0,1,2.007,2.005l.011,13.311c.016,18.387.034,37.4-.025,56.1C455.981,511.816,451.265,517.013,445.033,517.013Zm-7.312-79.457-.009,12.32c-.015,19.181-.029,37.3.037,56.538a6.332,6.332,0,0,0,4.216,5.915,7.673,7.673,0,0,0,3.068.671c4.016,0,6.941-3.4,6.956-8.089.059-18.694.041-37.7.025-56.085l-.009-11.3Z" transform="translate(-433.687 -433.506)"/>
  </g>
  <g id="Group_338" data-name="Group 338" transform="translate(18.315 76.632)">
    <path id="Path_2222" data-name="Path 2222" class="cls-1" d="M375.331,480.919H317.72a2.007,2.007,0,0,1,0-4.014h57.611a2.007,2.007,0,0,1,0,4.014Z" transform="translate(-315.713 -476.905)"/>
  </g>
  <g id="Group_339" data-name="Group 339" transform="translate(18.315 90.275)">
    <path id="Path_2223" data-name="Path 2223" class="cls-1" d="M375.331,501.315H317.72a2.007,2.007,0,0,1,0-4.014h57.611a2.007,2.007,0,0,1,0,4.014Z" transform="translate(-315.713 -497.301)"/>
  </g>
  <g id="Group_340" data-name="Group 340" transform="translate(18.315 103.918)">
    <path id="Path_2224" data-name="Path 2224" class="cls-1" d="M375.331,521.709H317.72a2.007,2.007,0,1,1,0-4.013h57.611a2.007,2.007,0,1,1,0,4.013Z" transform="translate(-315.713 -517.696)"/>
  </g>
  <g id="Group_341" data-name="Group 341" transform="translate(18.315 34.154)">
    <path id="Path_2225" data-name="Path 2225" class="cls-1" d="M317.72,433.585a2.007,2.007,0,0,1-1.377-3.467l17.152-16.168a2.006,2.006,0,0,1,2.8.041l15.924,15.924a2.007,2.007,0,0,1-2.838,2.838L334.83,418.206,319.1,433.038A2,2,0,0,1,317.72,433.585Z" transform="translate(-315.713 -413.403)"/>
  </g>
  <g id="Group_342" data-name="Group 342" transform="translate(50.033 38.491)">
    <path id="Path_2226" data-name="Path 2226" class="cls-1" d="M387.843,435.553a2,2,0,0,1-1.419-.588l-10.288-10.287L366.5,433.6a2.006,2.006,0,1,1-2.725-2.945l11.054-10.23a2.006,2.006,0,0,1,2.781.054l11.653,11.653a2.006,2.006,0,0,1-1.419,3.426Z" transform="translate(-363.13 -419.887)"/>
  </g>
  <g id="Group_343" data-name="Group 343" transform="translate(0 0)">
    <path id="Path_2227" data-name="Path 2227" class="cls-1" d="M341.04,493.386l-40.1,0c-8.233,0-12.587-4.3-12.591-12.415-.023-38.651-.011-78.5,0-113.649,0-.725.062-1.408.129-2.131.029-.316.06-.642.084-.984a2.007,2.007,0,0,1,2-1.86h96.823a2.007,2.007,0,0,1,2.007,2.007v3.684q0,12.4,0,24.808,0,15.55,0,31.1a2.146,2.146,0,0,1,0,.466v66.968a2.007,2.007,0,0,1-2.007,2.007ZM292.4,366.358c-.025.336-.042.653-.042.962-.01,35.154-.021,75,0,113.646,0,5.89,2.568,8.4,8.578,8.4l62.991,0h21.438V424.177q0-15.375,0-30.748,0-12.7.005-25.394v-1.678Z" transform="translate(-288.333 -362.344)"/>
  </g>
  <g id="Group_344" data-name="Group 344" transform="translate(94.617 127.095)">
    <path id="Path_2228" data-name="Path 2228" class="cls-1" d="M444.779,556.359H431.788a2.007,2.007,0,0,1,0-4.014h12.992a2.007,2.007,0,0,1,0,4.014Z" transform="translate(-429.781 -552.345)"/>
  </g>
  <g id="Group_345" data-name="Group 345" transform="translate(56.584 21.243)">
    <ellipse id="Ellipse_8" data-name="Ellipse 8" class="cls-1" cx="3.031" cy="3.031" rx="3.031" ry="3.031"/>
  </g>
</svg>
