<svg xmlns="http://www.w3.org/2000/svg" width="123.055" height="124.277" viewBox="0 0 123.055 124.277">
  <defs>
    <style>
      .cls-1 {
        fill: #1674ba;
      }
    </style>
  </defs>
  <g id="Group_375" data-name="Group 375" transform="translate(-18.475 -15.133)">
    <g id="Group_239" data-name="Group 239" transform="translate(47.589 15.133)">
      <g id="Group_236" data-name="Group 236">
        <path id="Path_2144" data-name="Path 2144" class="cls-1" d="M661.567,767a31.69,31.69,0,1,1,31.689-31.69A31.726,31.726,0,0,1,661.567,767Zm0-59.366a27.676,27.676,0,1,0,27.676,27.676A27.707,27.707,0,0,0,661.567,707.636Z" transform="translate(-629.877 -703.623)"/>
      </g>
      <g id="Group_237" data-name="Group 237" transform="translate(20.998 14.452)">
        <path id="Path_2145" data-name="Path 2145" class="cls-1" d="M671.96,746.612a10.692,10.692,0,1,1,10.692-10.692A10.7,10.7,0,0,1,671.96,746.612Zm0-17.37a6.678,6.678,0,1,0,6.678,6.678A6.685,6.685,0,0,0,671.96,729.242Z" transform="translate(-661.268 -725.228)"/>
      </g>
      <g id="Group_238" data-name="Group 238" transform="translate(9.237 31.822)">
        <path id="Path_2146" data-name="Path 2146" class="cls-1" d="M666.139,782.753a31.549,31.549,0,0,1-21.829-8.729,2.007,2.007,0,0,1-.621-1.561,22.483,22.483,0,0,1,44.9,0,2.006,2.006,0,0,1-.621,1.561A31.549,31.549,0,0,1,666.139,782.753Zm-18.37-11a27.644,27.644,0,0,0,36.74,0,18.471,18.471,0,0,0-36.74,0Z" transform="translate(-643.686 -751.196)"/>
      </g>
    </g>
    <g id="Group_240" data-name="Group 240" transform="translate(76.703 84.261)">
      <path id="Path_2147" data-name="Path 2147" class="cls-1" d="M675.408,837.168a2.007,2.007,0,0,1-2.007-2.007V808.973a2.007,2.007,0,0,1,4.013,0v26.188A2.006,2.006,0,0,1,675.408,837.168Z" transform="translate(-673.401 -806.966)"/>
    </g>
    <g id="Group_241" data-name="Group 241" transform="translate(30.948 94.719)">
      <path id="Path_2148" data-name="Path 2148" class="cls-1" d="M701.1,842.344a2.007,2.007,0,0,1-2.007-2.007V826.615H609.013v13.723a2.007,2.007,0,0,1-4.013,0v-15.73a2.006,2.006,0,0,1,2.007-2.007H701.1a2.006,2.006,0,0,1,2.007,2.007v15.73A2.007,2.007,0,0,1,701.1,842.344Z" transform="translate(-605 -822.601)"/>
    </g>
    <g id="Group_242" data-name="Group 242" transform="translate(18.475 110.449)">
      <path id="Path_2149" data-name="Path 2149" class="cls-1" d="M600.833,875.077a14.48,14.48,0,1,1,14.48-14.48A14.5,14.5,0,0,1,600.833,875.077Zm0-24.947A10.467,10.467,0,1,0,611.3,860.6,10.479,10.479,0,0,0,600.833,850.13Z" transform="translate(-586.353 -846.116)"/>
    </g>
    <g id="Group_243" data-name="Group 243" transform="translate(64.229 110.449)">
      <path id="Path_2150" data-name="Path 2150" class="cls-1" d="M669.234,875.077a14.48,14.48,0,1,1,14.481-14.48A14.5,14.5,0,0,1,669.234,875.077Zm0-24.947A10.467,10.467,0,1,0,679.7,860.6,10.479,10.479,0,0,0,669.234,850.13Z" transform="translate(-654.754 -846.116)"/>
    </g>
    <g id="Group_244" data-name="Group 244" transform="translate(112.569 110.449)">
      <path id="Path_2151" data-name="Path 2151" class="cls-1" d="M741.5,875.077a14.48,14.48,0,1,1,14.48-14.48A14.5,14.5,0,0,1,741.5,875.077Zm0-24.947A10.467,10.467,0,1,0,751.967,860.6,10.479,10.479,0,0,0,741.5,850.13Z" transform="translate(-727.02 -846.116)"/>
    </g>
  </g>
</svg>
