<?xml version="1.0" encoding="utf-8"?>
<!-- Generator: Adobe Illustrator 17.0.0, SVG Export Plug-In . SVG Version: 6.00 Build 0)  -->
<!DOCTYPE svg PUBLIC "-//W3C//DTD SVG 1.1//EN" "http://www.w3.org/Graphics/SVG/1.1/DTD/svg11.dtd">
<svg version="1.1" id="Layer_1" xmlns="http://www.w3.org/2000/svg" xmlns:xlink="http://www.w3.org/1999/xlink" x="0px" y="0px"
	 width="207px" height="207px" viewBox="0 0 207 207" enable-background="new 0 0 207 207" xml:space="preserve">
<path fill="#1E73AD" d="M193.473,132.284c-0.643-0.837-1.685-1.785-3.089-2.566V91.165c0-24.874-17.469-36.902-37.5-40.698V39.002
	l11.066-18.284c0.399-0.661,0.529-1.449,0.362-2.203c-1.23-5.55-8.043-10.304-12.757-10.304c-0.918,0-1.77,0.168-2.531,0.501
	c-2.206,0.965-6.52,2.584-10.631,2.584c-1.849,0-3.448-0.331-4.758-0.983c-2.475-1.589-5.204-2.395-8.115-2.395
	c-7.393,0-13.386,5.285-13.637,5.51c-1.044,0.935-1.303,2.466-0.624,3.69l12.098,21.822v11.355c-3.337,0.57-6.518,1.323-9.405,2.267
	c-25.172,8.226-26.801,35.43-26.814,35.704c-0.003,0.049-0.004,0.098-0.004,0.147v22.663c-8.203,0.084-13.607,2.434-13.899,2.565
	l-22.69,9.408l-2.676-5.889c-0.639-1.402-2.235-2.098-3.694-1.6l-32.489,11.011c-1.218,0.412-2.037,1.555-2.037,2.841v66.666
	c0,1.045,0.544,2.015,1.436,2.56c0.479,0.293,1.021,0.44,1.564,0.44c0.469,0,0.938-0.109,1.368-0.33l54.986-28.166
	c1.426-0.73,2.026-2.452,1.363-3.911l-1.247-2.744c4.585-2.235,16.503-5.944,33.456,4.048c10.655,6.486,18.906,8.685,25.743,8.685
	c7.671-0.001,13.562-2.77,19.062-5.355c0.833-0.392,1.662-0.782,2.495-1.16c10.842-4.929,39.397-17.1,39.685-17.222
	c0.077-0.033,0.153-0.069,0.228-0.108c0.637-0.337,6.255-3.464,7.374-9.371C197.865,139.737,196.623,135.982,193.473,132.284z
	 M128.62,76.265c1.877-2.466,4.708-3.979,8.41-4.543v-3.391c0-1.657,1.343-3,3-3s3,1.343,3,3v3.336
	c3.981,0.672,8.59,3.018,9.404,8.99c0.224,1.642-0.926,3.154-2.567,3.378c-1.649,0.222-3.154-0.927-3.378-2.567
	c-0.589-4.321-6.062-4.042-6.688-3.999c-0.033,0.003-0.084,0.006-0.118,0.008c-3.041,0.12-5.156,0.935-6.289,2.423
	c-1.64,2.154-0.984,5.363-0.977,5.395c0.505,2.179,1.739,2.608,7.138,2.564c4.264-0.037,10.1-0.08,12.423,5.46
	c0.862,2.012,1.365,4.561,1.336,6.797c-0.047,3.71-2.021,7.546-5.151,10.012c-1.59,1.252-3.37,1.942-5.133,2.282v3.34
	c0,1.657-1.343,3-3,3s-3-1.343-3-3v-3.3c-0.647-0.098-1.25-0.212-1.762-0.332c-0.091-0.021-0.182-0.047-0.271-0.077
	c-0.312-0.104-7.642-2.656-8.692-10.672c-0.215-1.643,0.941-3.148,2.585-3.364c1.641-0.222,3.148,0.941,3.364,2.585
	c0.511,3.897,3.879,5.45,4.565,5.728c0.738,0.164,1.883,0.35,3.122,0.359c0.03-0.001,0.058-0.009,0.088-0.009
	c0.037,0,0.072,0.01,0.109,0.011c1.49-0.015,3.094-0.306,4.312-1.265c1.715-1.351,2.839-3.46,2.862-5.373
	c0.019-1.398-0.319-3.116-0.86-4.379c-0.701-1.671-2.736-1.834-6.85-1.802c-4.521,0.041-11.342,0.091-13.03-7.203
	C126.435,86.058,125.291,80.64,128.62,76.265z M129.358,41.165h17.526v8.263c-1.951-0.194-4.652-0.373-7.995-0.373
	c-1.202,0-2.422,0.03-3.649,0.076c-1.979,0.057-3.944,0.183-5.882,0.369V41.165z M191.272,142.304
	c-0.47,2.553-3.12,4.544-4.203,5.161c-2.19,0.934-29.163,12.44-39.676,17.219c-0.856,0.39-1.71,0.791-2.565,1.193
	c-9.913,4.661-19.277,9.062-39.17-3.046c-19.071-11.243-33.054-7.199-39.016-4.353l-13.613-29.96l22.58-9.363
	c0.101-0.045,9.793-4.253,22.741-0.546c5.227,1.766,32.727,12.432,35.517,13.515l4.35,2.559c0.842,0.888,1.645,2.136,2.044,3.853
	c0.006,0.092,0.024,0.18,0.024,0.273c-0.01,1.667-1.11,3.422-3.252,5.219c-0.169,0.087-0.338,0.17-0.509,0.247
	c-1.414,0.472-2.317,0.772-2.544,0.847c-1.128,0.247-2.075,0.287-2.519,0.159c-2.773-0.792-20.982-7.611-27.765-10.172
	c-1.553-0.586-3.282,0.197-3.866,1.747c-0.585,1.55,0.197,3.281,1.747,3.866c1.005,0.38,24.657,9.306,28.235,10.328
	c0.661,0.188,1.444,0.282,2.305,0.282c0.958,0,2.015-0.131,3.102-0.362c0.19-0.024,0.38-0.064,0.568-0.126
	c0.004-0.001,0.017-0.006,0.023-0.007c0.883-0.219,1.775-0.516,2.656-0.883c8.196-2.735,32.569-10.953,40.424-14.563
	c6.654-3.058,9.561,0.219,9.835,0.558c0.043,0.059,0.089,0.116,0.136,0.171C190.798,138.379,191.611,140.46,191.272,142.304z"/>
</svg>
