<?xml version="1.0" encoding="utf-8"?>
<!-- Generator: Adobe Illustrator 17.0.0, SVG Export Plug-In . SVG Version: 6.00 Build 0)  -->
<!DOCTYPE svg PUBLIC "-//W3C//DTD SVG 1.1//EN" "http://www.w3.org/Graphics/SVG/1.1/DTD/svg11.dtd">
<svg version="1.1" id="Layer_1" xmlns="http://www.w3.org/2000/svg" xmlns:xlink="http://www.w3.org/1999/xlink" x="0px" y="0px"
	 width="1024px" height="670px" viewBox="0 0 1024 670" enable-background="new 0 0 1024 670" xml:space="preserve">
<g>
	<path opacity="0.2" fill="#CBEAFF" d="M27.343,653.231h982.151c-3.146-1.079-6.345-2.115-9.64-3.073
		c-35.168-10.225-79.739-12.701-101.338-42.279c-26.575-36.392-18.859-103.073-88.864-158.993
		c-60.586-48.397-167.802-45.977-226.972,14.519c-23.911,24.446-81.997,71.861-127.749-8.469
		c-40.346-70.838-142.151-68.086-175.761-8.124c-17.695,31.569-46.893,66.573-83.007,64.23
		c-11.314-0.734-21.555-6.543-31.905-11.172c-35.084-15.691-77.483-18.085-111.3,0.179C19.141,518.313-8.6,566.021,16.082,614.635
		C24.459,631.135,27.711,643.683,27.343,653.231z"/>
</g>
<g>
	<g>
		<linearGradient id="SVGID_1_" gradientUnits="userSpaceOnUse" x1="68.4093" y1="560.9314" x2="134.3058" y2="560.9314">
			<stop  offset="0" style="stop-color:#A8CD5E"/>
			<stop  offset="1" style="stop-color:#6ED891"/>
		</linearGradient>
		<path fill="url(#SVGID_1_)" d="M79.795,614c-3.355-2.051-4.387-20.012-4.82-23.377c-2.444-19.014,3.438-36.4,6.719-54.722
			c2.056-11.48,1.683-23.349-1.662-34.478c-1.675-5.572-4.953-22.6-11.622-24.561c0,0,61.756,26.56,65.897,100.392
			c0,0-22.426,34.908-22.426,43.188c0,0-3.105,5.558-5.52,24.558H96.355C96.355,645,90.145,620.327,79.795,614z"/>
		<linearGradient id="SVGID_2_" gradientUnits="userSpaceOnUse" x1="97.735" y1="573.9709" x2="113.9296" y2="573.9709">
			<stop  offset="6.009600e-04" style="stop-color:#91BF77"/>
			<stop  offset="1" style="stop-color:#0A9E77"/>
		</linearGradient>
		<path fill="url(#SVGID_2_)" d="M108.085,629.345c0,0,2.07-34.501,0-51.751c0,0-3.795-49.681-10.35-58.996
			c0,0,8.74,8.97,11.27,39.331c0,0,8.05,45.886,3.565,58.651"/>
		<linearGradient id="SVGID_3_" gradientUnits="userSpaceOnUse" x1="106.2883" y1="601.3929" x2="178.6966" y2="601.3929">
			<stop  offset="0" style="stop-color:#B2E263"/>
			<stop  offset="1" style="stop-color:#78ED96"/>
		</linearGradient>
		<path fill="url(#SVGID_3_)" d="M106.36,645.079c0,0-5.176-71.732,72.336-87.372c0,0-14.03,23.461-14.72,46.462
			c-0.69,23.001-19.613,40.901-19.613,40.901"/>
		<linearGradient id="SVGID_4_" gradientUnits="userSpaceOnUse" x1="118.0904" y1="615.5598" x2="152.9363" y2="615.5598">
			<stop  offset="0" style="stop-color:#A8CD5E"/>
			<stop  offset="1" style="stop-color:#6ED891"/>
		</linearGradient>
		<path fill="url(#SVGID_4_)" d="M123.266,645c0,0,16.1-51.75,29.671-58.88c0,0-20.01,6.88-34.846,58.88H123.266z"/>
		<path fill="#EEB041" d="M73.783,612c0,0-9.858-20.014-46.889-30.134c0,0,29.44,0.134,50.141,30.134H73.783z"/>
		<path fill="#EEB041" d="M70.365,604.216c0,0-1.84-6.459,3.68-11.979c0,0,2.989,6.903,2.99,13.112c0,0-0.525,4.032-3.482,3.28
			C70.595,607.876,70.365,604.216,70.365,604.216z"/>
		<path fill="#EEB041" d="M57.714,593.386c0,0-2.99-8.146,2.53-16.148c0,0,8.51,8.787,2.07,19.598L57.714,593.386z"/>
		<path fill="#EEB041" d="M44.651,588.834c0,0-2.53-7.819,0-12.42c0,0,9.43,6.23,6.67,15.42L44.651,588.834z"/>
		<path fill="#EEB041" d="M32.231,582.812c0,0-3.22-6.216,0-10.586c0,0,5.75,3.451,4.83,11.271L32.231,582.812z"/>
		<path fill="#FEAE3B" d="M30.568,582.311c0,0-2.791-3.479-8.35-0.645C22.218,581.666,28.658,587.571,30.568,582.311z"/>
		<path fill="#EEB041" d="M34.968,582.046c0,0-8.534,0.024-10.834,9.914c0,0,12.65-0.001,12.65-8.741L34.968,582.046z"/>
		<path fill="#EEB041" d="M46.884,587.003c0,0-6.88-1.929-11.02,7.609c0,0,14.182,1.258,14.796-5.643L46.884,587.003z"/>
		<path fill="#EEB041" d="M59.511,594.612c0,0-5.016-3.342-13.296,7.468c0,0,15.411,3.834,15.641-4.868L59.511,594.612z"/>
		<linearGradient id="SVGID_5_" gradientUnits="userSpaceOnUse" x1="57.714" y1="625.7963" x2="96.3549" y2="625.7963">
			<stop  offset="0" style="stop-color:#B2E263"/>
			<stop  offset="1" style="stop-color:#78ED96"/>
		</linearGradient>
		<path fill="url(#SVGID_5_)" d="M70.134,645.117c-0.758,0.02-2.338-6.598-2.485-7.151c-0.686-2.574-1.154-5.16-1.314-7.822
			c-0.281-4.687-0.332-8.779-1.958-13.222c-0.728-1.989-1.587-3.963-2.675-5.783c-0.632-1.056-2.574-4.547-3.988-4.663
			c0.002,0,16.79,1.379,22.31,7.129c0,0,12.42,9.892,16.331,30.822C96.355,644.427,70.144,645.117,70.134,645.117z"/>
		<linearGradient id="SVGID_6_" gradientUnits="userSpaceOnUse" x1="68.4093" y1="630.1727" x2="90.1448" y2="630.1727">
			<stop  offset="0" style="stop-color:#A8CD5E"/>
			<stop  offset="1" style="stop-color:#6ED891"/>
		</linearGradient>
		<path fill="url(#SVGID_6_)" d="M87.155,645c0,0-10.755-24.35-18.746-29.655c0,0,9.775,2.655,21.736,29.655H87.155z"/>
	</g>
	<path opacity="0.54" fill="#CBEAFF" d="M216.177,647.896c-7.445-2.73-14.184-6.987-19.822-13.409
		c-21.76-24.786-28.441-68.665-38.899-99.377C106.944,386.77,45.88,142.308,190.294,24.042c32.264-26.422,73.796-17.868,89.497,20.9
		c10.37,25.603,6.529,59.489,25.431,81.237c24.286,27.942,69.734,19.98,101.743,15.261c43.595-6.427,89.855-18.091,133.848-8.184
		c42.376,9.544,74.563,39.285,105.523,67.84c36.142,33.335,78.792,63.051,105.054,105.532
		c41.214,66.668,27.395,148.376,22.476,222.153c-2.707,40.6-6.336,114.563,50.377,118.574
		c-88.353-6.248-179.385-0.119-267.971,0.021c-83.693,0.132-167.386,0.327-251.09,0.432
		C278.62,647.844,242.867,657.683,216.177,647.896z"/>
	<path fill="#97C3FF" d="M999.966,653.231H23.691c-2.707,0-4.9-2.195-4.9-4.9c0-2.705,2.193-4.9,4.9-4.9h976.275
		c2.705,0,4.9,2.195,4.9,4.9C1004.866,651.036,1002.671,653.231,999.966,653.231z"/>
	<path fill="#4C8BF5" d="M166.909,408.091v-12.61c0-0.812-0.658-1.47-1.47-1.47h-4.225c-0.606,0-1.136-0.377-1.369-0.936
		c-0.003-0.006-0.005-0.012-0.008-0.019c-0.234-0.561-0.125-1.206,0.304-1.635l2.988-2.988c0.574-0.574,0.574-1.505,0-2.079
		l-8.916-8.917c-0.574-0.574-1.505-0.574-2.08,0l-2.988,2.988c-0.43,0.43-1.074,0.539-1.635,0.304
		c-0.006-0.003-0.012-0.005-0.019-0.008c-0.559-0.233-0.936-0.764-0.936-1.369v-4.225c0-0.812-0.658-1.47-1.47-1.47h-12.61
		c-0.812,0-1.47,0.658-1.47,1.47v4.225c0,0.605-0.376,1.136-0.935,1.369c-0.006,0.003-0.013,0.005-0.019,0.008
		c-0.561,0.234-1.206,0.126-1.635-0.304l-2.988-2.988c-0.574-0.574-1.505-0.574-2.079,0l-8.917,8.917
		c-0.574,0.574-0.574,1.505,0,2.079l2.988,2.988c0.43,0.43,0.539,1.075,0.304,1.635c-0.003,0.006-0.005,0.013-0.008,0.019
		c-0.233,0.559-0.764,0.936-1.369,0.936h-4.225c-0.812,0-1.47,0.658-1.47,1.47v12.61c0,0.812,0.658,1.47,1.47,1.47h4.225
		c0.606,0,1.137,0.377,1.369,0.936c0.003,0.006,0.005,0.012,0.008,0.019c0.234,0.561,0.126,1.206-0.304,1.635l-2.988,2.988
		c-0.574,0.574-0.574,1.505,0,2.079l8.917,8.917c0.574,0.574,1.505,0.574,2.079,0l2.988-2.988c0.43-0.43,1.074-0.539,1.635-0.304
		c0.006,0.003,0.013,0.005,0.019,0.008c0.559,0.233,0.935,0.764,0.935,1.369v4.225c0,0.812,0.658,1.47,1.47,1.47h12.61
		c0.812,0,1.47-0.658,1.47-1.47v-4.225c0-0.605,0.377-1.136,0.936-1.369c0.006-0.003,0.012-0.005,0.019-0.008
		c0.561-0.234,1.205-0.126,1.635,0.304l2.988,2.988c0.574,0.574,1.505,0.574,2.08,0l8.916-8.917c0.574-0.574,0.574-1.505,0-2.079
		l-2.988-2.988c-0.43-0.43-0.539-1.075-0.304-1.635c0.003-0.006,0.005-0.013,0.008-0.019c0.233-0.559,0.764-0.936,1.369-0.936h4.225
		C166.251,409.562,166.909,408.903,166.909,408.091z M152.626,401.786c0,7.647-6.199,13.846-13.846,13.846
		s-13.846-6.199-13.846-13.846s6.199-13.846,13.846-13.846S152.626,394.14,152.626,401.786z"/>
	<path fill="#CBEAFF" d="M443.281,202.263h8.683c0.559,0,1.013-0.453,1.013-1.012v-2.91c0-0.417,0.259-0.782,0.644-0.943
		c0.004-0.002,0.009-0.004,0.013-0.006c0.386-0.161,0.83-0.086,1.126,0.21l2.057,2.058c0.395,0.395,1.036,0.395,1.432,0l6.14-6.14
		c0.395-0.395,0.395-1.036,0-1.432l-2.058-2.057c-0.296-0.296-0.371-0.74-0.21-1.126c0.002-0.004,0.004-0.009,0.006-0.013
		c0.16-0.385,0.526-0.644,0.943-0.644h2.91c0.559,0,1.012-0.454,1.012-1.013v-8.683c0-0.559-0.453-1.013-1.012-1.013h-2.91
		c-0.417,0-0.782-0.259-0.943-0.644c-0.002-0.004-0.004-0.009-0.006-0.013c-0.161-0.386-0.086-0.83,0.21-1.126l2.058-2.058
		c0.395-0.395,0.395-1.036,0-1.432l-6.14-6.14c-0.395-0.396-1.036-0.396-1.432,0l-2.057,2.057c-0.296,0.296-0.74,0.371-1.126,0.21
		c-0.004-0.002-0.009-0.004-0.013-0.006c-0.385-0.16-0.644-0.526-0.644-0.943v-2.909c0-0.559-0.454-1.012-1.013-1.012h-8.683
		c-0.559,0-1.012,0.453-1.012,1.012v2.909c0,0.417-0.26,0.783-0.645,0.943c-0.004,0.002-0.008,0.004-0.013,0.006
		c-0.386,0.161-0.83,0.086-1.126-0.21l-2.058-2.057c-0.395-0.396-1.036-0.396-1.432,0l-6.14,6.14c-0.396,0.395-0.396,1.037,0,1.432
		l2.057,2.058c0.296,0.296,0.371,0.74,0.21,1.126c-0.002,0.004-0.004,0.009-0.005,0.013c-0.16,0.385-0.526,0.644-0.943,0.644h-2.909
		c-0.559,0-1.012,0.453-1.012,1.013v8.683c0,0.559,0.453,1.013,1.012,1.013h2.909c0.417,0,0.783,0.259,0.943,0.644
		c0.002,0.004,0.004,0.009,0.005,0.013c0.161,0.386,0.086,0.83-0.21,1.126l-2.057,2.057c-0.396,0.395-0.396,1.037,0,1.432l6.14,6.14
		c0.395,0.395,1.037,0.395,1.432,0l2.058-2.058c0.296-0.296,0.74-0.371,1.126-0.21c0.005,0.002,0.008,0.004,0.013,0.006
		c0.385,0.16,0.645,0.526,0.645,0.943v2.91C442.268,201.81,442.721,202.263,443.281,202.263z M447.622,192.428
		c-5.266,0-9.534-4.269-9.534-9.534c0-5.266,4.268-9.534,9.534-9.534c5.265,0,9.534,4.268,9.534,9.534
		C457.156,188.159,452.888,192.428,447.622,192.428z"/>
	<g>
		<path fill="#2E65DC" d="M516.533,624.655V555.13h-154.5v69.526l-23.756,12.048c-3.365,1.706-2.151,6.783,1.621,6.783h198.769
			c3.773,0,4.986-5.077,1.622-6.783L516.533,624.655z"/>
		<rect x="362.05" y="567.356" opacity="0.5" fill="#2134A3" width="154.47" height="36.765"/>
		<path fill="#4C8BF5" d="M684.306,585.03H201.78c-11.647,0-21.089-9.442-21.089-21.089V240.758
			c0-11.647,9.442-21.089,21.089-21.089h482.527c11.647,0,21.089,9.442,21.089,21.089v323.183
			C705.396,575.588,695.953,585.03,684.306,585.03z"/>
		<path fill="#C6E2FF" d="M676.164,568.822H206.293c-6.819,0-12.348-5.528-12.348-12.348V245.763
			c0-6.819,5.528-12.348,12.348-12.348h469.871c6.819,0,12.348,5.528,12.348,12.348v310.711
			C688.511,563.294,682.983,568.822,676.164,568.822z"/>
		<path fill="#FFFFFF" d="M419.486,357.26H225.065c-5.51,0-9.977-4.467-9.977-9.977V265.34c0-5.511,4.445-9.978,9.956-9.978
			c35.912,0,158.553,0,194.464,0c5.51,0,9.956,4.459,9.956,9.969c0,19.496,0,62.464,0,81.96
			C429.463,352.802,424.997,357.26,419.486,357.26z"/>
		<path fill="#FFFFFF" d="M665.959,384.977H470.56c-5.24,0-9.489-4.248-9.489-9.489V264.236c0-5.24,4.248-9.489,9.489-9.489h195.399
			c5.241,0,9.489,4.248,9.489,9.489v111.251C675.448,380.728,671.2,384.977,665.959,384.977z"/>
		<g>
			<path fill="#FFFFFF" d="M424.826,404.163H230.721c-1.895,0-3.429-1.534-3.429-3.43c0-1.896,1.534-3.43,3.429-3.43h194.105
				c1.896,0,3.43,1.534,3.43,3.43C428.256,402.629,426.722,404.163,424.826,404.163z M428.256,421.2c0-1.895-1.534-3.429-3.43-3.429
				H230.721c-1.895,0-3.429,1.534-3.429,3.429c0,1.896,1.534,3.43,3.429,3.43h194.105C426.722,424.63,428.256,423.096,428.256,421.2
				z M371.077,441.668c0-1.896-1.534-3.43-3.43-3.43H230.721c-1.895,0-3.429,1.534-3.429,3.43c0,1.896,1.534,3.429,3.429,3.429
				h136.926C369.543,445.097,371.077,443.563,371.077,441.668z M329.696,462.134c0-1.895-1.534-3.43-3.43-3.43h-95.544
				c-1.895,0-3.429,1.534-3.429,3.43c0,1.896,1.534,3.43,3.429,3.43h95.544C328.161,465.564,329.696,464.03,329.696,462.134z
				 M301.927,482.602c0-1.896-1.534-3.429-3.43-3.429h-67.775c-1.895,0-3.429,1.534-3.429,3.429c0,1.895,1.534,3.43,3.429,3.43
				h67.775C300.392,486.032,301.927,484.497,301.927,482.602z"/>
		</g>
		<g>
			<path fill="#C6E2FF" d="M227.441,334.534v-56.445c0-3.825,3.088-6.925,6.913-6.925c13.454,0,43.015,0,56.469,0
				c3.824,0,6.912,3.1,6.912,6.925v56.444c0,3.824-3.088,6.925-6.912,6.925c-13.454,0-43.015,0-56.469,0
				C230.53,341.458,227.441,338.358,227.441,334.534z"/>
			<path opacity="0.52" fill="#D6ECF6" d="M415.268,286.168H311.016c-1.018,0-1.842-0.824-1.842-1.842
				c0-1.018,0.824-1.842,1.842-1.842h104.252c1.018,0,1.842,0.824,1.842,1.842C417.11,285.344,416.287,286.168,415.268,286.168z
				 M417.11,295.318c0-1.018-0.824-1.842-1.842-1.842H311.016c-1.018,0-1.842,0.824-1.842,1.842c0,1.018,0.824,1.842,1.842,1.842
				h104.252C416.287,297.16,417.11,296.337,417.11,295.318z M417.11,306.311c0-1.018-0.824-1.842-1.842-1.842H311.016
				c-1.018,0-1.842,0.824-1.842,1.842s0.824,1.842,1.842,1.842h104.252C416.287,308.153,417.11,307.33,417.11,306.311z
				 M417.11,317.304c0-1.018-0.824-1.842-1.842-1.842H311.016c-1.018,0-1.842,0.824-1.842,1.842c0,1.018,0.824,1.842,1.842,1.842
				h104.252C416.287,319.146,417.11,318.322,417.11,317.304z M417.11,328.297c0-1.018-0.824-1.842-1.842-1.842H311.016
				c-1.018,0-1.842,0.824-1.842,1.842c0,1.018,0.824,1.842,1.842,1.842h104.252C416.287,330.139,417.11,329.315,417.11,328.297z"/>
		</g>
		<g>
			<g>
				<path fill="#C6E2FF" d="M480.343,351.99v-64.256c0-4.353,3.516-7.883,7.869-7.883c15.315,0,48.967,0,64.283,0
					c4.353,0,7.868,3.529,7.868,7.883v64.255c0,4.353-3.515,7.882-7.868,7.882c-15.316,0-48.968,0-64.283,0
					C483.859,359.872,480.343,356.343,480.343,351.99z"/>
			</g>
			<g>
				<path fill="#C6E2FF" d="M576.156,351.99v-64.256c0-4.353,3.515-7.883,7.869-7.883c15.315,0,48.968,0,64.283,0
					c4.354,0,7.869,3.529,7.869,7.883v64.255c0,4.353-3.516,7.882-7.869,7.882c-15.315,0-48.967,0-64.283,0
					C579.671,359.872,576.156,356.343,576.156,351.99z"/>
			</g>
		</g>
	</g>
	<g>
		<path opacity="0.31" fill="#A5B3CE" d="M598.668,560.891H432.7c-6.368,0-11.53-5.162-11.53-11.53v-90.177
			c0-6.368,5.162-11.53,11.53-11.53h165.968c6.368,0,11.53,5.162,11.53,11.53v90.177
			C610.198,555.728,605.036,560.891,598.668,560.891z"/>
		<path fill="#FFFFFF" d="M594.207,556.962H428.239c-6.368,0-11.53-5.162-11.53-11.53v-90.177c0-6.368,5.162-11.53,11.53-11.53
			h165.968c6.368,0,11.53,5.162,11.53,11.53v90.177C605.737,551.8,600.575,556.962,594.207,556.962z"/>
		<g opacity="0.52">
			<path fill="#C6E2FF" d="M429.133,524.773v-48.86c0-3.31,2.673-5.994,5.983-5.994c11.646,0,37.234,0,48.88,0
				c3.31,0,5.983,2.684,5.983,5.994v48.859c0,3.31-2.673,5.994-5.983,5.994c-11.646,0-37.234,0-48.88,0
				C431.807,530.767,429.133,528.084,429.133,524.773z"/>
			<path fill="#D6ECF6" d="M591.718,482.907h-90.242c-0.881,0-1.594-0.713-1.594-1.594c0-0.881,0.713-1.595,1.594-1.595h90.242
				c0.881,0,1.594,0.714,1.594,1.595C593.312,482.194,592.6,482.907,591.718,482.907z M593.312,490.828
				c0-0.881-0.713-1.594-1.594-1.594h-90.242c-0.881,0-1.594,0.713-1.594,1.594c0,0.881,0.713,1.595,1.594,1.595h90.242
				C592.6,492.423,593.312,491.71,593.312,490.828z M593.312,500.344c0-0.881-0.713-1.595-1.594-1.595h-90.242
				c-0.881,0-1.594,0.713-1.594,1.595c0,0.881,0.713,1.595,1.594,1.595h90.242C592.6,501.938,593.312,501.225,593.312,500.344z
				 M593.312,509.859c0-0.881-0.713-1.595-1.594-1.595h-90.242c-0.881,0-1.594,0.714-1.594,1.595c0,0.881,0.713,1.595,1.594,1.595
				h90.242C592.6,511.454,593.312,510.741,593.312,509.859z M593.312,519.375c0-0.881-0.713-1.594-1.594-1.594h-90.242
				c-0.881,0-1.594,0.713-1.594,1.594c0,0.881,0.713,1.595,1.594,1.595h90.242C592.6,520.969,593.312,520.256,593.312,519.375z"/>
		</g>
	</g>
	<g>
		<g>
			<path fill="#FECD07" d="M496.307,639.572h-40.639l18.011-55.659c0.724-2.239,3.893-2.239,4.617,0L496.307,639.572z"/>
			<path fill="#FFFFFF" d="M500.192,643.485h-48.411c-1.08,0-1.956-0.876-1.956-1.957l0,0c0-1.08,0.876-1.957,1.956-1.957h48.411
				c1.081,0,1.957,0.876,1.957,1.957l0,0C502.149,642.609,501.273,643.485,500.192,643.485z"/>
			<g>
				<defs>
					<path id="SVGID_7_" d="M496.307,639.572h-40.639l18.011-55.659c0.724-2.239,3.893-2.239,4.617,0L496.307,639.572z"/>
				</defs>
				<linearGradient id="SVGID_8_" gradientUnits="userSpaceOnUse" x1="475.9873" y1="572.5651" x2="475.9873" y2="665.0098">
					<stop  offset="0" style="stop-color:#FECD07"/>
					<stop  offset="0.2528" style="stop-color:#FDBD07"/>
					<stop  offset="0.7431" style="stop-color:#FC9408"/>
					<stop  offset="1" style="stop-color:#FB7C09"/>
				</linearGradient>
				<use xlink:href="#SVGID_7_"  overflow="visible" fill="url(#SVGID_8_)"/>
				<clipPath id="SVGID_9_">
					<use xlink:href="#SVGID_7_"  overflow="visible"/>
				</clipPath>
				<path clip-path="url(#SVGID_9_)" fill="#FFFFFF" d="M497.57,629.524h-41.499v-10.616h41.499V629.524z M497.57,598.243h-41.499
					v10.616h41.499V598.243z"/>
			</g>
		</g>
	</g>
	<g>
		<path fill="#FFC0B3" d="M599.996,560.52c-3.24,0.209-5.958-1.714-7.839-0.648c-1.881,1.066-6.487,6.711,2.505,6.501
			c8.993-0.209,7.418,0.006,7.418,0.006L599.996,560.52z"/>
		<path fill="#FFC0B3" d="M610.145,547.09c-3.24,0.209-5.958-1.714-7.839-0.648c-1.881,1.066-6.487,6.71,2.505,6.501
			c8.993-0.209,7.418,0.006,7.418,0.006L610.145,547.09z"/>
		<path fill="#2E65DC" d="M631.177,556.55c-5.062-12.349-5.793-18.081-8.231-19.43c3.202,8.64,1.822,15.523-1.104,19.681
			c-2.927,4.159-20.788,10.298-20.788,10.298l-1.609-6.561c0,0,8.888-5.654,13.434-9.425c4.546-3.772-9.236-29.353-0.817-37.998
			c0,0,1.943-1.895,3.095-2.708c6.279-4.424,12.426-4.217,12.426-4.217s19.292,0.885,32.171,37.15
			C648.741,551.306,643.738,551.846,631.177,556.55z"/>
		<path fill="#FFC0B3" d="M618.926,505.873c1.234,3.224,4.024,6.721,3.847,8.651c-0.199,2.163-3.74,3.614-4.562,2.847
			c-2.237-2.086-4.122-6.209-3.877-6.414C614.75,510.61,618.926,505.873,618.926,505.873z"/>
		<path fill="#FFC0B3" d="M602.585,503.528c3.85,6.018,13.561,13.399,17.062,5.148c3.502-8.252-0.343-15.631-0.343-15.631
			S592.972,475.942,602.585,503.528z"/>
		<path fill="#0B257A" d="M615.852,503.942c-0.564-3.128,3.093-6.283,3.781-3.219c0.786,3.502-0.649,3.377-0.529,4.66
			c0.153,1.625,0.681,2.054,0.838,2.553c7.377-5.47,2.027-21.545-5.652-23.491c-3.693-1.821-8.738-3.399-14.073,2.729
			c-4.644,5.334-1.504,9.55-0.551,17.307c10.508-1.47,9.945-6.171,13.139-6.158C614.598,498.332,615.364,504.276,615.852,503.942z"
			/>
		<linearGradient id="SVGID_10_" gradientUnits="userSpaceOnUse" x1="631.3954" y1="516.152" x2="661.4022" y2="633.6784">
			<stop  offset="0" style="stop-color:#FECD07"/>
			<stop  offset="0.2528" style="stop-color:#FDBD07"/>
			<stop  offset="0.7431" style="stop-color:#FC9408"/>
			<stop  offset="1" style="stop-color:#FB7C09"/>
		</linearGradient>
		<path fill="url(#SVGID_10_)" d="M624.833,548.31c-11.362-11.959-13.575-35.554-13.575-35.554l2.28-1.373
			c0,0,5.517,17.413,6.912,18.016c2.996,1.294,6.468-2.396,6.468-2.396c-2.125-6.095-3.561-12.735-3.982-20.178l2.663-0.952
			c4.758,21.843,12.337,22.296,21.071,34.994l9.653-8.177c0,0,4.668,3.334,6.308,18.857c2.079,19.676,5.181,38.426,5.181,38.426
			l20.131,40.807l-9.34,1.869l-24.206-38.37l-10.512-31.317l-3.62,32.473l4.194,39.221l-10.084,0l-8.751-39.787
			c0,0,2.528-18.779,3.18-38.86C626.293,546.49,627.585,551.208,624.833,548.31z"/>
		<path fill="#FB7C09" d="M631.133,530.892l-10.684,7.231c0,0,4.485,12.244,7.62,10.978c3.134-1.265,12.583-7.068,12.181-9.691
			C639.849,536.787,631.133,530.892,631.133,530.892z"/>
		<path fill="#2E65DC" d="M627.583,506.191c20.379,1.733,14.133,41.617,11.582,45.508c-2.551,3.89-30.018,3.145-30.018,3.145v-8.657
			c0,0,19.089-0.095,22.484-2.586c3.396-2.49-0.513-25.291-0.513-25.291L627.583,506.191z"/>
		<path fill="#0B257A" d="M678.602,632.651c0,0-15.594,8.335-14.694,10.253c0.9,1.918,26.837-4.422,27.586-5.923
			c0.75-1.501-3.552-6.199-3.552-6.199L678.602,632.651z"/>
		<path fill="#0B257A" d="M644.457,634.658l-10.084,0c0,0-15.577,6.123-14.866,7.793c0.71,1.67,26.422,1.865,27.22,0.193
			C647.523,640.972,644.457,634.658,644.457,634.658z"/>
		<g>
			<path fill="#FEB605" d="M623.214,495.172c-14.45,3.381-25.196,6.251-25.196,6.251c-1.175,0.173-3.142-15.011,7.47-18.11
				C620.428,478.95,623.214,495.172,623.214,495.172z"/>
			<path fill="#FEB605" d="M597.17,498.871c-9.321,12.168,12.126,1.53,13.938-0.785L597.17,498.871z"/>
		</g>
	</g>
	<g>
		<path fill="#FFC0B3" d="M409.614,509.761c4.921-2.995,11.662-7.275,11.555-6.206c-0.107,1.07-3.831,3.745-4.162,4.708
			c-0.331,0.963,2.335,2.675,2.072,3.745c-0.263,1.07-9.036,5.029-9.036,5.029L409.614,509.761z"/>
		<path fill="#2E65DC" d="M376.218,529.883c-3.796-12.122-6.745-16.765-5.778-19.235c2.905,8.275,6.536,14.029,11.207,15.297
			c4.671,1.268,31.34-8.433,31.34-8.433l-3.006-8.82c0,0-18.04,6.088-23.663,6.088c-5.622,0-11.072-27.113-22.492-28.33
			c0,0-2.575-0.208-3.913-0.103c-7.288,0.574-11.665,4.462-11.665,4.462s-4.53,23.832-5.151,46.036
			C356.005,535.988,364.158,534.069,376.218,529.883z"/>
		<path fill="#FFC0B3" d="M353.055,482.243c2.374,6.925,2.106,11.581,5.018,11.59c2.82,0.008,2.308-10.631,1.766-10.631
			S353.055,482.243,353.055,482.243z"/>
		<path fill="#FFC0B3" d="M365.225,471.657c-0.095,7.143-4.448,18.538-11.776,13.377c-7.328-5.161-7.958-13.458-7.958-13.458
			S358.832,443.152,365.225,471.657z"/>
		<path fill="#0B257A" d="M351.41,476.88c-1.622-4.088-6.836,0.057-1.888,3.352c-5.564,1.126-9.803-12.901-4.309-18.607
			c2.175-3.496,5.628-7.498,13.394-5.109c6.76,2.079,6.318,7.318,9.602,14.41c-9.701,4.297-14.397-0.496-17.103,1.202
			C349.585,473.081,352,476.907,351.41,476.88z"/>
		<linearGradient id="SVGID_11_" gradientUnits="userSpaceOnUse" x1="362.3419" y1="472.2675" x2="362.9132" y2="615.6317">
			<stop  offset="0" style="stop-color:#FECD07"/>
			<stop  offset="0.2528" style="stop-color:#FDBD07"/>
			<stop  offset="0.7431" style="stop-color:#FC9408"/>
			<stop  offset="1" style="stop-color:#FB7C09"/>
		</linearGradient>
		<path fill="url(#SVGID_11_)" d="M377.205,525.466c-2.312-10.461-11.301-39.067-11.301-39.067l-2.079,0.051
			c0,0,3.888,18.25,2.56,18.823c-2.851,1.232-10.789,2.058-10.789,2.058l-4.383-19.173l-3.121,1.605c0,0,2.838,18.722,3.206,27.748
			s-8.985,12.227-8.985,12.227s-0.489,16.456,0.784,23.609c1.273,7.154,5.048,33.938,5.048,33.938l-8.675,49.663h9.21l14.918-49.663
			l1.941-35.062l5.771,35.062l3.362,48.55l8.232,0.667l3.414-51.871C386.318,584.631,379.517,535.927,377.205,525.466z"/>
		<path fill="#FECD07" d="M384.744,521.537l-5.066,23.768c-0.181,0.85,0.519,1.63,1.384,1.541l17.482-1.798
			c0.563-0.058,1.022-0.479,1.127-1.036l4.423-23.351c0.157-0.831-0.52-1.584-1.363-1.515l-16.84,1.381
			C385.329,520.573,384.862,520.984,384.744,521.537z"/>
		<path fill="#FFC0B3" d="M381.241,530.691c3.084,0.199,5.67-1.631,7.461-0.616s6.175,6.387-2.384,6.188s-7.06,0.006-7.06,0.006
			L381.241,530.691z"/>
		<path fill="#FB7C09" d="M356.974,517.511l11.971-2.732c0,0,5.601,11.075,2.683,12.433c-2.917,1.357-13.092,4.158-14.655,2.174
			C355.41,527.404,356.974,517.511,356.974,517.511z"/>
		<path fill="#2E65DC" d="M348.175,490.325c-11.584,5.639-12.828,39.114-10.4,42.817c2.428,3.703,44.03,5.608,44.03,5.608
			l1.266-9.481c0,0-31.29-3.022-34.522-5.392c-3.232-2.37,0.652-21.27,0.652-21.27L348.175,490.325z"/>
		<path fill="#0B257A" d="M349.095,633.693c0,0,15.257,7.399,14.836,9.371s-24.837-1.348-25.855-2.578
			c-1.018-1.23,1.957-6.513,1.957-6.513L349.095,633.693z"/>
		<path fill="#0B257A" d="M374.671,635.835l8.402-0.48c0,0,16.022,6.307,15.346,7.897c-0.675,1.59-24.426,1.77-25.185,0.178
			C372.475,641.838,374.671,635.835,374.671,635.835z"/>
		<g>
			<path fill="#FEB605" d="M343.292,475.446c14.058-4.754,24.7-7.988,24.7-7.988c1.09-0.473-5.253-14.408-15.903-11.44
				C337.098,460.197,343.292,475.446,343.292,475.446z"/>
			<path fill="#FEB605" d="M367.366,464.843c14.338,5.416-9.492,7.699-12.253,6.688L367.366,464.843z"/>
		</g>
		<polygon fill="#87A0FF" points="391.146,519.263 390.804,521.36 400.089,520.815 400.737,518.644 		"/>
	</g>
	<g>
		<path fill="#FC8215" d="M342.231,204.211c0.719-1.986,1.398-3.913,2.132-5.819c0.081-0.211,0.477-0.43,0.726-0.429
			c9.138,0.038,16.855-5.721,19.312-14.509c1.204-4.306,0.891-8.553-0.79-12.696c-0.093-0.23-0.217-0.448-0.353-0.725
			c-2.91,1.36-5.788,2.706-8.865,4.144c2.145-5.897,4.218-11.596,6.325-17.39c5.767,2.094,11.475,4.167,17.386,6.313
			c-3.03,1.425-5.905,2.778-8.778,4.13c4.256,10.972,2.877,20.963-5.359,29.57C358.065,202.969,349.656,205.291,342.231,204.211z"/>
		<path fill="#FC8215" d="M348.784,152.334c-0.809,2.221-1.564,4.296-2.312,6.35c-15.825-0.452-24.769,15.622-18.747,27.912
			c2.883-1.334,5.77-2.669,8.861-4.099c-2.139,5.869-4.219,11.575-6.324,17.35c-5.782-2.101-11.488-4.173-17.385-6.315
			c3.038-1.415,5.921-2.758,8.781-4.09c-4.22-10.531-3.023-20.264,4.528-28.75C332.096,154.05,339.785,151.472,348.784,152.334z"/>
	</g>
	<g>
		<g>
			<path fill="#2E65DC" d="M770.125,437.282c-10.991,0-21.981,0-32.972,0c-0.038-0.022-0.074-0.06-0.114-0.065
				c-2.94-0.382-4.73-2.952-4.702-5.876c0.083-8.592,0.028-17.185,0.031-25.778c0.001-3.193,2.282-5.485,5.47-5.506
				c0.813-0.005,1.627-0.001,2.504-0.001c0-1.764,0.025-3.464-0.005-5.163c-0.058-3.261,0.951-6.152,3.057-8.621
				c3.375-3.956,7.701-5.515,12.784-4.545c4.914,0.938,8.188,3.96,9.959,8.614c0.589,1.549,0.762,3.18,0.782,4.825
				c0.02,1.609,0.004,3.219,0.004,4.892c0.951,0,1.832-0.015,2.712,0.003c2.264,0.047,4.201,1.452,4.942,3.582
				c0.136,0.391,0.224,0.799,0.334,1.199c0,9.218,0,18.436,0,27.654c-0.308,1.435-0.846,2.781-2.115,3.6
				C771.988,436.617,771.021,436.894,770.125,437.282z M769.53,431.907c0-8.887,0-17.693,0-26.494c-10.633,0-21.214,0-31.808,0
				c0,8.847,0,17.654,0,26.494C748.339,431.907,758.918,431.907,769.53,431.907z M761.76,400.038c0-2.176,0.155-4.308-0.034-6.41
				c-0.353-3.926-3.889-7.044-7.838-7.129c-4.124-0.089-7.829,2.824-8.333,6.79c-0.264,2.073-0.123,4.197-0.16,6.299
				c-0.003,0.145,0.034,0.292,0.054,0.449C750.914,400.038,756.339,400.038,761.76,400.038z"/>
			<path fill="#2E65DC" d="M770.125,437.282c0.896-0.387,1.863-0.665,2.672-1.187c1.269-0.819,1.806-2.165,2.115-3.6
				c0,1.595,0,3.191,0,4.786C773.316,437.282,771.72,437.282,770.125,437.282z"/>
			<path fill="#2E65DC" d="M753.637,413.333c2.948,0.005,5.338,2.439,5.307,5.404c-0.03,2.811-2.466,5.208-5.308,5.223
				c-2.943,0.015-5.318-2.392-5.318-5.392C748.318,415.692,750.721,413.327,753.637,413.333z"/>
		</g>
	</g>
	<g>
		<path fill="#F3B85C" d="M210.299,194.909c0,0-0.188-21.726,0.173-29.135c0.361-7.409,1.006-13.852,1.006-13.852
			s2.475-13.042,8.872-10.205c0,0,15.451,2.982,19.604,26.861c4.153,23.88,7.059,28.15,7.845,31.576
			c0.786,3.425-0.131,14.589-6.339,18.085c0,0-11.988-17.493-16.498-21.248S210.299,194.909,210.299,194.909z"/>
		<path fill="#2E65DC" d="M232.854,197.623c0,0-14.737,3.282-30.542,2.689c-15.805-0.593-28.39,0.398-26.619,18.903
			c1.771,18.505,1.623,45.295,1.623,45.295l9.209-1.215c0,0,6.223-28.929,4.333-40.726c0,0,42.09-0.197,50.603-4.331
			C241.46,218.239,240.624,204.797,232.854,197.623z"/>
		<path fill="#2E65DC" d="M154.86,254.087l5.87,3.911c0,0,12.422-25.062,18.263-31.521c5.841-6.459,7.351-25.457,7.351-25.457
			s-13.705-7.502-18.384,6.5C163.281,221.522,154.86,254.087,154.86,254.087z"/>
		<polygon fill="#8683A2" points="154.86,254.087 151.961,257.481 158.376,262.993 160.729,257.998 		"/>
		<path fill="#0B257A" d="M153.034,256.225c0,0-3.375,1.56-12.975-0.186c-9.6-1.746-8.88,1.171-8.88,1.171l22.561,13.756
			c0,0,4.988-1.327,5.477-9.757L153.034,256.225z"/>
		<path fill="#0B257A" d="M178.768,260.303l-5.071,4.684c0,0-13.311,3.094-15.422,7.388c-2.111,4.294,26.348,1.879,26.348,1.879
			s0.951-5.479,0.256-10.742L178.768,260.303z"/>
		<polygon fill="#9C9DBC" points="152.212,180.485 170.221,201.836 202.46,202.468 201.997,198.956 172.926,197.998 155.942,178.32 
					"/>
		<path fill="#FFC0B3" d="M212.125,156.83l-3.077-6.93c0,0-6.076,2.14-8.223,1.084c-2.147-1.055-4.02-2.816-4.02-2.816l-3.531,1.135
			l-2.084-6.92l19.745-15.618c0,0,2.496,8.167,2.142,10.556s5.968,4.039,5.968,4.039S213.309,155.41,212.125,156.83z"/>
		<polygon fill="#493A51" points="199.754,135.856 206.227,143.496 206.672,150.61 209.048,149.9 208.094,142.665 202.261,133.961 
					"/>
		<polygon fill="#0B257A" points="204.245,132.205 211.611,138.271 213.078,137.322 212.217,125.724 		"/>
		<path fill="#FEB605" d="M191.091,142.899l21.127-17.175c0,0-2.053-5.418-8.06-5.295c-6.007,0.123-14.056,2.523-16.481,12.045
			C185.251,141.996,191.091,142.899,191.091,142.899z"/>
		<path fill="#FC8215" d="M222.47,191.296c0,0-5.096-23.421,4.897-36.45c0,0,8.049-2.4,8.201,13.976s0.087,31.108-7.59,33.794
			s-27.744-7.384-31.033-6.95l-0.607-4.605C196.339,191.062,214.298,187.689,222.47,191.296z"/>
		<path fill="#FFC0B3" d="M199.288,190.589c0,0-12.436-2.961-17.023,0.321c-4.587,3.282-4.948,8.15-4.948,8.15l8.593,1.216
			c0,0,7.634-6.158,13.618-4.145L199.288,190.589z"/>
		<line fill="#FC8215" x1="222.953" y1="207.128" x2="238.641" y2="196.86"/>
	</g>
	<g>
		<rect x="181.461" y="617.152" fill="#0B257A" width="122.355" height="4.532"/>
		<g>
			<path fill="#0B257A" d="M181.607,643.569L181.607,643.569c-1.95,0-3.531-1.581-3.531-3.531V531.666
				c0-1.95,1.581-3.531,3.531-3.531l0,0c1.95,0,3.531,1.581,3.531,3.531v108.373C185.137,641.989,183.556,643.569,181.607,643.569z"
				/>
			<path fill="#0B257A" d="M186.466,643.569h-9.718c-1.241,0-2.247-1.006-2.247-2.246l0,0c0-1.241,1.006-2.247,2.247-2.247h9.718
				c1.24,0,2.246,1.006,2.246,2.247l0,0C188.712,642.563,187.706,643.569,186.466,643.569z"/>
		</g>
		<g>
			<path fill="#0B257A" d="M303.499,643.569L303.499,643.569c-1.95,0-3.531-1.581-3.531-3.531V531.666
				c0-1.95,1.581-3.531,3.531-3.531l0,0c1.95,0,3.531,1.581,3.531,3.531v108.373C307.029,641.989,305.449,643.569,303.499,643.569z"
				/>
			<path fill="#0B257A" d="M308.358,643.569h-9.717c-1.241,0-2.247-1.006-2.247-2.246l0,0c0-1.241,1.006-2.247,2.247-2.247h9.717
				c1.24,0,2.247,1.006,2.247,2.247l0,0C310.604,642.563,309.598,643.569,308.358,643.569z"/>
		</g>
		<path fill="#2E65DC" d="M316.893,578.473H166.027v-42.907h150.866V578.473z M316.893,583.732H166.027v19.654h150.866V583.732z"/>
		<g>
			<defs>
				<rect id="SVGID_12_" x="166.027" y="535.565" width="150.866" height="42.907"/>
			</defs>
			<clipPath id="SVGID_13_">
				<use xlink:href="#SVGID_12_"  overflow="visible"/>
			</clipPath>
			<linearGradient id="SVGID_14_" gradientUnits="userSpaceOnUse" x1="125.7905" y1="558.9598" x2="362.5015" y2="558.9598">
				<stop  offset="0" style="stop-color:#FECD07"/>
				<stop  offset="0.2528" style="stop-color:#FDBD07"/>
				<stop  offset="0.7431" style="stop-color:#FC9408"/>
				<stop  offset="1" style="stop-color:#FB7C09"/>
			</linearGradient>
			<path clip-path="url(#SVGID_13_)" fill="url(#SVGID_14_)" d="M147.72,635.875h-21.93l75.464-153.83h21.93L147.72,635.875z
				 M258.013,482.045h-21.93l-75.464,153.83h21.93L258.013,482.045z M292.843,482.045h-21.93l-75.464,153.83h21.929L292.843,482.045
				z M327.672,482.045h-21.93l-75.464,153.83h21.93L327.672,482.045z M362.501,482.045h-21.93l-75.464,153.83h21.93L362.501,482.045
				z"/>
		</g>
		<g>
			<defs>
				<rect id="SVGID_15_" x="166.027" y="583.732" width="150.866" height="19.654"/>
			</defs>
			<clipPath id="SVGID_16_">
				<use xlink:href="#SVGID_15_"  overflow="visible"/>
			</clipPath>
			<linearGradient id="SVGID_17_" gradientUnits="userSpaceOnUse" x1="125.7905" y1="558.9598" x2="362.5015" y2="558.9598">
				<stop  offset="0" style="stop-color:#FECD07"/>
				<stop  offset="0.2528" style="stop-color:#FDBD07"/>
				<stop  offset="0.7431" style="stop-color:#FC9408"/>
				<stop  offset="1" style="stop-color:#FB7C09"/>
			</linearGradient>
			<path clip-path="url(#SVGID_16_)" fill="url(#SVGID_17_)" d="M147.72,635.875h-21.93l75.464-153.83h21.93L147.72,635.875z
				 M258.013,482.045h-21.93l-75.464,153.83h21.93L258.013,482.045z M292.843,482.045h-21.93l-75.464,153.83h21.929L292.843,482.045
				z M327.672,482.045h-21.93l-75.464,153.83h21.93L327.672,482.045z M362.501,482.045h-21.93l-75.464,153.83h21.93L362.501,482.045
				z"/>
		</g>
	</g>
	<g>
		<polygon fill="#2E65DC" points="728.781,615 734.508,648 753.766,648 758.527,615 		"/>
		<linearGradient id="SVGID_18_" gradientUnits="userSpaceOnUse" x1="712.1504" y1="555.704" x2="773.9056" y2="555.704">
			<stop  offset="0" style="stop-color:#A8CD5E"/>
			<stop  offset="1" style="stop-color:#6ED891"/>
		</linearGradient>
		<path fill="url(#SVGID_18_)" d="M741.434,611.262c-11.397-0.427-24.231-3.989-27.834-13.565
			c-4.891-13.001,4.094-18.421,4.896-19.723c1.594-2.589,3.483-5.632,3.244-8.805c-0.174-2.314-1.651-4.485-2.435-6.647
			c-1.958-5.395-3.234-12.123-0.031-17.309c2.571-4.163,6.71-7.441,8.308-12.173c1.512-4.478,0.561-9.64-0.78-14.047
			c-3.401-11.176,6.4-15.989,7.603-16.334c0,0,11.09-6.191,19.558,0.687c8.467,6.877,6.06,11.348,5.889,16.849
			c-0.141,4.5-2.513,10.128-0.154,14.37c2.762,4.964,7.129,7.395,8.434,13.298c0.947,4.281,0.693,8.719-0.397,12.946
			c-0.93,3.605-2.658,6.975-2.508,10.787c0.209,5.32,6.012,9.886,7.812,14.89c4.268,11.867-8.047,21.619-18.63,23.834
			C750.897,611.057,746.296,611.445,741.434,611.262z"/>
		<g>
			<path fill="#D8D8D8" d="M741.454,616c0,0,0.515-89.461,2.149-96.683c0,0,1.634,89.683,1.634,96.683H741.454z"/>
			<g>
				<path fill="#231F20" d="M745,593.571c0,0,15.044-16.506,18.913-19.472c3.869-2.966-18.913,23.598-18.913,23.598V593.571z"/>
				<path fill="#D8D8D8" d="M745,593.571c0,0,15.044-16.506,18.913-19.472c3.869-2.966-18.913,23.598-18.913,23.598V593.571z"/>
			</g>
			<g>
				<path fill="#231F20" d="M741.454,603.371c0,0-12.38-13.024-16.893-23.985c0,0,16.772,19.211,16.893,20.117
					C741.575,600.408,741.454,603.371,741.454,603.371z"/>
				<path fill="#231F20" d="M741.454,603.371c0,0-12.38-13.024-16.893-23.985c0,0,16.772,19.211,16.893,20.117
					C741.575,600.408,741.454,603.371,741.454,603.371z"/>
				<path fill="#D8D8D8" d="M741.454,603.371c0,0-12.38-13.024-16.893-23.985c0,0,16.772,19.211,16.893,20.117
					C741.575,600.408,741.454,603.371,741.454,603.371z"/>
			</g>
			<g>
				<path fill="#231F20" d="M742.268,558.096c0,0-12.419-17.009-13.709-19.718c0,0,10.127,10.33,13.639,14.966L742.268,558.096z"/>
				<path fill="#D8D8D8" d="M742.268,558.096c0,0-12.419-17.009-13.709-19.718c0,0,10.127,10.33,13.639,14.966L742.268,558.096z"/>
			</g>
			<g>
				<path fill="#231F20" d="M744.033,553.853c0.852-0.388,12.766-17.28,12.766-17.28c-3.224,2.192-12.766,13.927-12.766,13.927"/>
				<path fill="#D8D8D8" d="M744.033,553.853c0.852-0.388,12.766-17.28,12.766-17.28c-3.224,2.192-12.766,13.927-12.766,13.927"/>
			</g>
			<g>
				<path fill="#231F20" d="M743.595,523.283c0,0,6.499-8.116,10.368-10.953c0,0-7.093,10.098-10.317,13.709L743.595,523.283z"/>
				<path fill="#D8D8D8" d="M743.595,523.283c0,0,6.499-8.116,10.368-10.953c0,0-7.093,10.098-10.317,13.709L743.595,523.283z"/>
			</g>
			<g>
				<path fill="#231F20" d="M742.727,530.327c0,0-4.656-5.36-7.349-13.355c0,0,5.318,5.95,7.567,10.196l0.292,1.27"/>
				<path fill="#D8D8D8" d="M742.727,530.327c0,0-4.656-5.36-7.349-13.355c0,0,5.318,5.95,7.567,10.196l0.292,1.27"/>
			</g>
		</g>
		<g>
			<polygon opacity="0.54" fill="#CBEAFF" points="758.051,618 729.354,618 728.781,615 758.834,615 			"/>
		</g>
	</g>
</g>
</svg>
